<svg viewBox="0 0 330 200" xmlns="http://www.w3.org/2000/svg"><g><g><g><g><g><line x1="51.41200256347656" y1="177.98199939727783" x2="46.41200256347656" y2="177.98199939727783" style="visibility: inherit;" fill="rgb(0, 0, 0)" stroke="rgb(204, 204, 204)" stroke-width="1px"></line><line x1="51.41200256347656" y1="160.18379945755038" x2="46.41200256347656" y2="160.18379945755038" style="visibility: inherit;" fill="rgb(0, 0, 0)" stroke="rgb(204, 204, 204)" stroke-width="1px"></line><line x1="51.41200256347656" y1="142.3855995178229" x2="46.41200256347656" y2="142.3855995178229" style="visibility: inherit;" fill="rgb(0, 0, 0)" stroke="rgb(204, 204, 204)" stroke-width="1px"></line><line x1="51.41200256347656" y1="124.58739957809544" x2="46.41200256347656" y2="124.58739957809544" style="visibility: inherit;" fill="rgb(0, 0, 0)" stroke="rgb(204, 204, 204)" stroke-width="1px"></line><line x1="51.41200256347656" y1="106.78919963836479" x2="46.41200256347656" y2="106.78919963836479" style="visibility: inherit;" fill="rgb(0, 0, 0)" stroke="rgb(204, 204, 204)" stroke-width="1px"></line><line x1="51.41200256347656" y1="88.99099969863734" x2="46.41200256347656" y2="88.99099969863734" style="visibility: inherit;" fill="rgb(0, 0, 0)" stroke="rgb(204, 204, 204)" stroke-width="1px"></line><line x1="51.41200256347656" y1="71.19279975890987" x2="46.41200256347656" y2="71.19279975890987" style="visibility: inherit;" fill="rgb(0, 0, 0)" stroke="rgb(204, 204, 204)" stroke-width="1px"></line><line x1="51.41200256347656" y1="53.3945998191824" x2="46.41200256347656" y2="53.3945998191824" style="visibility: inherit;" fill="rgb(0, 0, 0)" stroke="rgb(204, 204, 204)" stroke-width="1px"></line><line x1="51.41200256347656" y1="35.596399879454935" x2="46.41200256347656" y2="35.596399879454935" style="visibility: inherit;" fill="rgb(0, 0, 0)" stroke="rgb(204, 204, 204)" stroke-width="1px"></line><line x1="51.41200256347656" y1="17.798199939727454" x2="46.41200256347656" y2="17.798199939727454" style="visibility: inherit;" fill="rgb(0, 0, 0)" stroke="rgb(204, 204, 204)" stroke-width="1px"></line><line x1="51.41200256347656" y1="0" x2="46.41200256347656" y2="0" style="visibility: inherit;" fill="rgb(0, 0, 0)" stroke="rgb(204, 204, 204)" stroke-width="1px"></line></g><g transform="translate(41.41200256347656, 0)"><text style="text-anchor: end; visibility: hidden; font-family: &quot;Helvetica Neue&quot;, sans-serif; font-size: 12px; font-weight: 200;" x="0" y="177.98199939727783" dx="0em" dy="0.3em" fill="rgb(50, 49, 63)" stroke="none" stroke-width="1px">9.51</text><text style="text-anchor: end; visibility: inherit; font-family: &quot;Helvetica Neue&quot;, sans-serif; font-size: 12px; font-weight: 200;" x="0" y="160.18379945755038" dx="0em" dy="0.3em" fill="rgb(50, 49, 63)" stroke="none" stroke-width="1px">9.52</text><text style="text-anchor: end; visibility: hidden; font-family: &quot;Helvetica Neue&quot;, sans-serif; font-size: 12px; font-weight: 200;" x="0" y="142.3855995178229" dx="0em" dy="0.3em" fill="rgb(50, 49, 63)" stroke="none" stroke-width="1px">9.53</text><text style="text-anchor: end; visibility: inherit; font-family: &quot;Helvetica Neue&quot;, sans-serif; font-size: 12px; font-weight: 200;" x="0" y="124.58739957809544" dx="0em" dy="0.3em" fill="rgb(50, 49, 63)" stroke="none" stroke-width="1px">9.54</text><text style="text-anchor: end; visibility: hidden; font-family: &quot;Helvetica Neue&quot;, sans-serif; font-size: 12px; font-weight: 200;" x="0" y="106.78919963836479" dx="0em" dy="0.3em" fill="rgb(50, 49, 63)" stroke="none" stroke-width="1px">9.55</text><text style="text-anchor: end; visibility: inherit; font-family: &quot;Helvetica Neue&quot;, sans-serif; font-size: 12px; font-weight: 200;" x="0" y="88.99099969863734" dx="0em" dy="0.3em" fill="rgb(50, 49, 63)" stroke="none" stroke-width="1px">9.56</text><text style="text-anchor: end; visibility: hidden; font-family: &quot;Helvetica Neue&quot;, sans-serif; font-size: 12px; font-weight: 200;" x="0" y="71.19279975890987" dx="0em" dy="0.3em" fill="rgb(50, 49, 63)" stroke="none" stroke-width="1px">9.57</text><text style="text-anchor: end; visibility: inherit; font-family: &quot;Helvetica Neue&quot;, sans-serif; font-size: 12px; font-weight: 200;" x="0" y="53.3945998191824" dx="0em" dy="0.3em" fill="rgb(50, 49, 63)" stroke="none" stroke-width="1px">9.58</text><text style="text-anchor: end; visibility: hidden; font-family: &quot;Helvetica Neue&quot;, sans-serif; font-size: 12px; font-weight: 200;" x="0" y="35.596399879454935" dx="0em" dy="0.3em" fill="rgb(50, 49, 63)" stroke="none" stroke-width="1px">9.59</text><text style="text-anchor: end; visibility: inherit; font-family: &quot;Helvetica Neue&quot;, sans-serif; font-size: 12px; font-weight: 200;" x="0" y="17.798199939727454" dx="0em" dy="0.3em" fill="rgb(50, 49, 63)" stroke="none" stroke-width="1px">9.6</text><text style="text-anchor: end; visibility: hidden; font-family: &quot;Helvetica Neue&quot;, sans-serif; font-size: 12px; font-weight: 200;" x="0" y="0" dx="0em" dy="0.3em" fill="rgb(50, 49, 63)" stroke="none" stroke-width="1px">9.61</text></g><line x1="51.41200256347656" y1="0" x2="51.41200256347656" y2="177.98199939727783" fill="rgb(0, 0, 0)" stroke="rgb(204, 204, 204)" stroke-width="1px"></line></g></g><g transform="translate(51, 0)" clip-path="url(#clip_0)"><clipPath id="clip_0"><rect width="278" height="177"></rect></clipPath><g><g><g><line x1="0" y1="0" x2="0" y2="177.98199939727783" fill="rgb(0, 0, 0)" stroke="rgb(60, 60, 60)" stroke-width="1px" opacity="0.25"></line><line x1="23.215666453043617" y1="0" x2="23.215666453043617" y2="177.98199939727783" fill="rgb(0, 0, 0)" stroke="rgb(60, 60, 60)" stroke-width="1px" opacity="0.25"></line><line x1="46.431332906087235" y1="0" x2="46.431332906087235" y2="177.98199939727783" fill="rgb(0, 0, 0)" stroke="rgb(60, 60, 60)" stroke-width="1px" opacity="0.25"></line><line x1="69.64699935913086" y1="0" x2="69.64699935913086" y2="177.98199939727783" fill="rgb(0, 0, 0)" stroke="rgb(60, 60, 60)" stroke-width="1px" opacity="0.25"></line><line x1="92.86266581217447" y1="0" x2="92.86266581217447" y2="177.98199939727783" fill="rgb(0, 0, 0)" stroke="rgb(60, 60, 60)" stroke-width="1px" opacity="0.25"></line><line x1="116.07833226521811" y1="0" x2="116.07833226521811" y2="177.98199939727783" fill="rgb(0, 0, 0)" stroke="rgb(60, 60, 60)" stroke-width="1px" opacity="0.25"></line><line x1="139.29399871826172" y1="0" x2="139.29399871826172" y2="177.98199939727783" fill="rgb(0, 0, 0)" stroke="rgb(60, 60, 60)" stroke-width="1px" opacity="0.25"></line><line x1="162.50966517130536" y1="0" x2="162.50966517130536" y2="177.98199939727783" fill="rgb(0, 0, 0)" stroke="rgb(60, 60, 60)" stroke-width="1px" opacity="0.25"></line><line x1="185.72533162434894" y1="0" x2="185.72533162434894" y2="177.98199939727783" fill="rgb(0, 0, 0)" stroke="rgb(60, 60, 60)" stroke-width="1px" opacity="0.25"></line><line x1="208.94099807739258" y1="0" x2="208.94099807739258" y2="177.98199939727783" fill="rgb(0, 0, 0)" stroke="rgb(60, 60, 60)" stroke-width="1px" opacity="0.25"></line><line x1="232.15666453043622" y1="0" x2="232.15666453043622" y2="177.98199939727783" fill="rgb(0, 0, 0)" stroke="rgb(60, 60, 60)" stroke-width="1px" opacity="0.25"></line><line x1="255.3723309834798" y1="0" x2="255.3723309834798" y2="177.98199939727783" fill="rgb(0, 0, 0)" stroke="rgb(60, 60, 60)" stroke-width="1px" opacity="0.25"></line><line x1="278.58799743652344" y1="0" x2="278.58799743652344" y2="177.98199939727783" fill="rgb(0, 0, 0)" stroke="rgb(60, 60, 60)" stroke-width="1px" opacity="0.25"></line></g><g><line x1="0" y1="177.98199939727783" x2="278.58799743652344" y2="177.98199939727783" fill="rgb(0, 0, 0)" stroke="rgb(60, 60, 60)" stroke-width="1px" opacity="0.25"></line><line x1="0" y1="160.18379945755038" x2="278.58799743652344" y2="160.18379945755038" fill="rgb(0, 0, 0)" stroke="rgb(60, 60, 60)" stroke-width="1px" opacity="0.25"></line><line x1="0" y1="142.3855995178229" x2="278.58799743652344" y2="142.3855995178229" fill="rgb(0, 0, 0)" stroke="rgb(60, 60, 60)" stroke-width="1px" opacity="0.25"></line><line x1="0" y1="124.58739957809544" x2="278.58799743652344" y2="124.58739957809544" fill="rgb(0, 0, 0)" stroke="rgb(60, 60, 60)" stroke-width="1px" opacity="0.25"></line><line x1="0" y1="106.78919963836479" x2="278.58799743652344" y2="106.78919963836479" fill="rgb(0, 0, 0)" stroke="rgb(60, 60, 60)" stroke-width="1px" opacity="0.25"></line><line x1="0" y1="88.99099969863734" x2="278.58799743652344" y2="88.99099969863734" fill="rgb(0, 0, 0)" stroke="rgb(60, 60, 60)" stroke-width="1px" opacity="0.25"></line><line x1="0" y1="71.19279975890987" x2="278.58799743652344" y2="71.19279975890987" fill="rgb(0, 0, 0)" stroke="rgb(60, 60, 60)" stroke-width="1px" opacity="0.25"></line><line x1="0" y1="53.3945998191824" x2="278.58799743652344" y2="53.3945998191824" fill="rgb(0, 0, 0)" stroke="rgb(60, 60, 60)" stroke-width="1px" opacity="0.25"></line><line x1="0" y1="35.596399879454935" x2="278.58799743652344" y2="35.596399879454935" fill="rgb(0, 0, 0)" stroke="rgb(60, 60, 60)" stroke-width="1px" opacity="0.25"></line><line x1="0" y1="17.798199939727454" x2="278.58799743652344" y2="17.798199939727454" fill="rgb(0, 0, 0)" stroke="rgb(60, 60, 60)" stroke-width="1px" opacity="0.25"></line><line x1="0" y1="0" x2="278.58799743652344" y2="0" fill="rgb(0, 0, 0)" stroke="rgb(60, 60, 60)" stroke-width="1px" opacity="0.25"></line></g></g></g><g><g><line x1="0" y1="17104.07014207846" x2="278.58799743652344" y2="17104.07014207846" fill="rgb(0, 0, 0)" stroke="rgb(153, 153, 153)" stroke-width="1.5px"></line></g></g><g><g><line x1="23.215666453043617" y1="0" x2="23.215666453043617" y2="177.98199939727783" fill="rgb(0, 0, 0)" stroke="rgb(153, 153, 153)" stroke-width="1.5px"></line></g></g><g><g><g><g><g><path style="fill: none;" stroke="rgb(51, 187, 238)" stroke-width="2px" d="M23.967854046122234,-7.223389777327924L24.393861525535584,2.750348210747404L24.76415140546163,10.391901720331333L24.82451213823954,11.09800706461985L24.883712087694803,11.702270291943677L25.229625517845154,15.424599667003122L25.23310786781311,15.43478387869959L25.395617532984414,16.865665622053484L25.894754361724853,22.074889904797402L25.98993859418233,22.90829789529178L26.101373793156945,23.809600630429287L26.102534576479595,23.823179579357912L26.333530457687377,25.091113935568302L26.966157368532816,29.397338114558607L26.984729901695253,29.529732866612704L27.053216117731733,30.06270661206125L27.416541297721864,32.22515422894486L28.227928840255736,36.65189157967674L28.32427385603587,37.38854955905467L28.43106592171987,38.344168089906674L28.450799238204954,38.62253654294349L28.987081133270266,48.18211658869575L29.17628881486257,52.63770920590095L29.42121409594218,58.10832825552089L29.859990191904707,67.23847404140538L30.073574323272705,71.15939554454596L30.169919339052836,71.69915876445882L30.413683836809792,75.72531712179624L30.99291471481323,84.57539708602782L31.00684411468506,84.78417342580543L31.172836129824322,86.98735788947491L31.302843861961367,88.84427915546442L31.522231909942626,91.81127949636907L31.876270823351543,95.92060891589432L31.879753173319497,95.95795102544804L32.268615586407975,100.50859628515362L32.3092430027008,101.05514897953078L32.57970551687876,104.09174143369464L32.71203481566111,105.2680178846368L32.75962693188985,105.55826791798617L33.08116391226451,108.67803143433785L33.09277174549103,108.79514986884725L33.52226157487234,112.60404504332666L33.58842622426351,113.19472932172188L33.96568080412547,116.55721655017273L34.20712373523712,118.55332204268066L34.30695110098521,119.44783530335386L34.47410389944712,120.88890125840422L35.28781300862631,127.49845464941262L35.38067567443848,128.20455999370114L35.43058935731252,128.59156003816696L35.875169369888305,125.06612542257261L35.94597715257009,124.41603324261467L36.00865945199331,123.85759896792496L36.60298051319122,118.70947995535985L36.642447146161395,118.39546676138539L37.11024282519023,114.62730843369184L37.11604674180349,114.58487421828988L37.3365955731074,112.95540034685486L37.482854271761575,111.87587390702913L38.16423408215841,107.20980758143024L38.346477063814795,106.03353113048806L38.37781821352641,105.82305742209437L39.026696090888976,101.79689906475696L39.80906405035655,97.39731961188232L40.243197013028464,95.10417461156072L40.372043961842856,94.46426664329925L40.48115759417216,93.89564815691307L41.177627587763475,90.55013461462299L41.51541553465525,89.03608180908125L41.92401126422882,87.27421318559212L42.784151706314084,83.80818647156049L43.026755420748394,82.87972583856573L43.06273970375061,82.75412056097595L43.31811203473409,81.7866204498114L43.34364926783243,81.68987043869494L43.58044906565348,80.84118613065586L43.59670003217062,80.78008086047704L44.634440322621664,77.27671203689168L45.88808631108602,73.50006686611775L46.014611693255105,73.12834313919663L46.120242975616456,72.84148784307942L46.42668977279663,71.98601406057603L46.49401520551046,71.80439561865566L46.504462255414325,71.77384298356625L46.71572482013702,71.1950402854836L46.80742670262655,70.96419815369697L47.05815590031941,70.29204018173002L47.103426449902855,70.17831648445278L47.33674389775594,69.58254010020934L47.3402262477239,69.57405325712895L47.4249634302775,69.36188218011917L47.686139677874245,68.70160578846476L47.76042981052399,68.51828997792832L47.86257874291738,68.2636846855166L47.963566891988116,68.0226583420335L48.57762126967112,66.60875028484038L49.03845224876403,65.59372385242564L49.137118831189476,65.3951317243445L49.16962076422373,65.33063171693352L50.07503175589243,63.4024209690687L50.08663958911895,63.378657808443606L50.24682768764496,63.03918408522797L50.33388643684387,62.86774985500408L50.41049813613892,62.70819720509273L50.54166665159861,62.453591912681006L50.6925684835434,62.16503924794772L50.72855276654562,62.093749766072435L51.246262128448485,61.104183862898864L51.40296787700653,60.82072330401381L51.40528944365183,60.81902593539773L51.44939920991262,60.72736803012951L51.79647342338562,60.0908547991002L51.91951645558675,59.846433718384944L52.159798603375755,59.41699945851717L52.530088483301796,58.78727570195217L52.690276581827796,58.52418356646005L53.17896636066436,57.71793347382291L53.2195937769572,57.650038729179784L53.30549174283345,57.50406502819706L53.74891097208659,56.789472840828154L54.32233793347677,55.89665694877104L54.32349871679942,55.89495958015496L54.7367375796636,55.27711740390251L55.144172525914506,54.688130494123385L55.257929291534424,54.53366995006027L55.29855670782725,54.4691699426493L55.51562318916321,54.16534096037131L55.62125447152455,54.02785410246898L56.227183365948996,53.180867163045974L56.349065614827474,53.014525038670314L56.84472009359996,52.306722325765705L56.874900459988915,52.269380216211985L56.95151215928396,52.17432757371161L57.112861041132604,51.96215649670184L57.18482960713704,51.870498591433616L57.426272538248696,51.56157750330739L57.84183296775818,51.06085376156433L58.04613083254497,50.80964320638476L58.076311198933915,50.77739320267928L58.24230321407318,50.59068265491068L58.41990306243896,50.36662999758836L58.58589507757822,50.16464313227506L58.750726309394835,49.95756416111351L58.85983994172414,49.840445726604116L58.876090908241274,49.82177467182726L59.67238826758067,48.889919301600344L59.7153372505188,48.83730087450192L60.22259956251781,48.30432712905338L60.28760342858633,48.233037647178094L60.60217570902506,47.91223497873932L60.866834306589766,47.65253758047936L60.99103812211355,47.528629671505655L61.12452820421855,47.39453755083548L61.24641045309702,47.26723490462962L61.39963385168712,47.111076991950426L61.408920118268334,47.09919541163788L61.56214351685842,46.96001118511947L61.732778665288286,46.79366906074381L61.95797062988281,46.58319535235012L61.99047256291708,46.5611295603411L62.3781741926829,46.18940583341998L62.39210359255473,46.17412951587528L62.43389179217021,46.13678740632156L62.49657409159342,46.08077424199098L62.53952307453156,46.04682686966942L62.58247205746968,45.99760317980315L62.7252484061559,45.86520842774905L63.103663769340514,45.512155755604795L63.292871450932815,45.35260310569345L63.378769416809085,45.27622151796993L64.25516082541148,44.495431954573974L64.40490187403361,44.36643193975203L64.73920747095744,44.08297138086698L64.95047003568014,43.903050307562694L65.04797583478292,43.81478713952663L65.73515956179301,43.271629182381616L65.76998306147257,43.235984441443975L65.89534766031902,43.13074758724713L65.99169267609915,43.05606336813969L66.40028840567271,42.72337911938837L66.73343321927389,42.48065540728919L67.05264863300323,42.25830011858295L67.18265636514028,42.15985273885042L67.85474990895588,41.654036891259096L68.16235748945873,41.424892128088544L68.30165148817699,41.33662896005248L68.46532193667093,41.20762894523054L68.83096868330637,40.953023652818814L69.30224671230316,40.64240519607651L69.54252886009216,40.460786754156146L69.67137580890656,40.37422095473616L69.99175200595856,40.155260403262076L70.22855180377961,39.99740512196681L70.42240261866252,39.870102475760945L70.48392413476307,39.83106299759115L70.5686613173167,39.778444570492724L70.85537479801178,39.60361560303667L71.12351574554444,39.433878741428856L71.43460567601522,39.24207608781202L72.12527175299326,38.81773393379248L72.49207928295135,38.591983907854086L72.5129733827591,38.575010221693304L72.75673788051606,38.41545757178196L73.7317958715439,37.8366548736993L73.8722506535848,37.75348381151147L73.95582705281576,37.71104959610952L73.98716820252736,37.69407590994874L73.99181133581797,37.69237854133266L74.06494068514505,37.658431169011095L74.28316794980367,37.54301010311778L74.37603061561585,37.49548378186759L74.52345009759267,37.427589037224465L74.53157558085124,37.42079956276015L74.58265004704793,37.390246927670745L74.6441715631485,37.35629955534918L75.2384926243464,37.02361530659786L75.41028855609895,36.9353521385618L75.88388815174103,36.68074684615007L76.04059390029909,36.60775999565871L76.21587218201955,36.521194196238724L76.98198917497,36.105338885299545L77.00056170813242,36.09175993637092L77.09226359062195,36.040838877888575L78.12303918113707,35.52483881860081L78.51422316087087,35.348312482528684L78.59199564348857,35.31266774159104L78.63726619307201,35.29399668681418L78.797454291598,35.21591773047459L78.8729052075704,35.17348351507263L78.89960322399139,35.161601934760085L79.02264625619252,35.107286139045584L79.14452850507101,35.04448350025069L79.19792453791301,35.024115076857754L79.5403556180954,34.8492861094017L80.41094311008453,34.450404484623334L80.50264499257405,34.404575531989224L80.64890369122823,34.33158868149786L81.26295806891123,34.04473338538065L81.32099723504385,34.02606233060379L81.44752261721293,33.97514127212145L81.48234611689249,33.95137811149635L82.20667491022745,33.65094386645052L82.39240024185182,33.56437806703053L82.5723216568629,33.486299110690936L82.68027450586955,33.44895700113722L83.34308178310394,33.173983285332554L83.57872079760233,33.080628011448255L83.91650874449412,32.96181220832278L83.9873165271759,32.9295622046173L84.1695595088323,32.849785879661624L84.36921424032846,32.77849639778634L84.62922970460255,32.66647006912518L84.66753555425008,32.65119375158048L84.84513540261587,32.58499637555343L84.86254715245565,32.579904269705196L85.28158993193308,32.41865425117777L85.55785636272431,32.313417396980924L85.57062497927348,32.31002265974877L85.73893856105805,32.25061475818603L85.79001302725473,32.23194370340917L86.04190300827027,32.136891060908795L86.70122793553669,31.887377874345304L86.83587880096435,31.792325231844927L86.98678063290913,31.70745680104102L87.03901588242849,31.6701146914873L87.40698419570923,31.47661466925439L87.69021532643636,31.315364650726963L87.69950159301759,31.31027254487873L87.88754849128723,31.18975937313718L87.9490700073878,31.16090410666385L88.6118772846222,30.816338277599982L88.80921044947306,30.695825105858432L88.8254614159902,30.68903563139412L88.92644956506093,30.638114572911775L89.13422977981568,30.502325083625493L89.1725356294632,30.481956660232555L89.7355155409495,30.19170662688319L89.94329575570424,30.093259247150655L91.05300461215973,29.514456549068L91.18765547758738,29.45165391027311L91.37686315917969,29.346417056076262L91.40820430889129,29.341324950228028L91.42793762537639,29.327746001299403L92.00949007002512,29.022219650405333L92.06404688618979,28.991667015315926L92.20450166823069,28.9237722706728L92.44594459934235,28.818535416475953L92.48076809902192,28.80156173031517L93.07160681025188,28.51470643419796L93.07857151018779,28.511311696965805L93.10410874328613,28.492640642188945L93.20857924232483,28.446811689554835L93.41519867375692,28.344969572590145L94.262570499293,27.963061633972558L94.34498611520131,27.920627418570604L94.8139425775528,27.927416893034916L95.34674212265014,28.65389066071637L95.43960478846233,28.852482788797516L95.78435743529002,29.390548640094295L95.82034171829223,29.429588118264093L96.1999178647995,30.205285575811814L96.37403536319732,30.60416720059021L96.60154889443714,30.950430398270157L96.94165840797423,31.675206797335534L97.12506217295329,32.08427263381037L97.35025413754781,32.59348321863382L98.11172799720765,34.301036046408456L98.3044180287679,34.754233466901326L98.53889625994364,35.31436511020712L99.00669193897248,36.427838922354425L99.36537398567201,37.27482586177743L99.41412688522338,37.390246927670745L99.88540491422017,38.46128652441607L100.17443996156057,39.14193133946341L100.74206300633747,40.397984115361254L100.96145105431876,40.88512890817569L101.01368630383809,41.000549974069L101.50005451602935,42.117418523448464L102.47627329037985,44.39019510037713L102.5888692726771,44.651589867253165L102.64806922213236,44.78398461930726L102.83495533707936,45.20153729886249L103.50937044754028,46.705405892707745L103.52562141405741,46.73935326502931L103.8390329111735,47.44036650346959L104.14547970835369,48.110827106820466L104.2371815908432,48.30941923490161L104.3729932395935,48.59966926825098L105.00794171708425,50.001695745131556L105.1449141491572,50.28685367263269L105.23313368167878,50.473564220401286L105.53377656224569,51.084616922189426L105.62780001138051,51.28151168165449L106.12925840676625,52.315209168846096L106.27551710542042,52.629222362820556L106.3056974718094,52.686932895767214L106.44034833723705,52.96530134880405L106.684112834994,53.45923561608279L106.74331278444926,53.586538262288656L106.7688500175476,53.634064583538844L106.80715586719512,53.71214353987844L106.83617545026144,53.7698540728251L107.137979114151,54.38769624907755L107.1403006807963,54.392788354925784L107.25870057970683,54.63041996117673L107.26218292967478,54.63890680425712L107.44094356136323,55.00723579394608L107.63247280960084,55.392538469795824L107.80659030799866,55.743893773324004L107.96445683987936,56.05960433591454L108.16179000473022,56.455091223460755L108.87567174816132,57.862209806189554L108.93022856432597,57.9674466603864L108.9998755636851,58.110025624136966L109.0265735801061,58.167736157083624L109.33185959396363,58.75842043547884L110.16065888633729,60.35055219736016L110.84087791341145,61.606604973258L110.93374057922364,61.779736572097974L111.35278335870107,62.56222350411001L111.68941052227021,63.18006568036246L111.93665736999512,63.64514468116788L111.99585731945038,63.76226311567727L112.1630101179123,64.06269736072313L112.21756693407694,64.16793421491998L112.35337858282726,64.40386845255485L112.4880294482549,64.6482895332701L112.49615493151346,64.66017111358265L112.82697817846935,65.24236854889746L113.21235824158987,65.92131599532873L113.64300885429383,66.6851318725639L113.91463215179444,67.16548719091402L113.99936933434803,67.31825036636106L114.65753347829184,68.44869786466911L114.73646674423217,68.58109261672321L114.8258470600764,68.74064526663456L114.84209802659352,68.76780316449181L114.88736857617695,68.84248738359925L114.92451364250182,68.90359265377806L115.40391715475718,69.69796116610266L115.61169736951192,70.03404015208613L116.05047346547444,70.76390865699975L116.11547733154298,70.87254024842875L116.19557138080597,71.00154026325069L116.27102229677836,71.1254481722244L116.53219854437509,71.58713243579766L116.55077107753755,71.61938243950314L116.71792387599946,71.89265878669173L116.74810424238841,71.93679037070976L116.79105322532654,72.00807985258504L117.23563323790232,72.69381677348062L117.25768812103271,72.7260667771861L117.37608801994324,72.81602731383825L117.68253481712341,73.30656684388484L117.81370333258312,73.5034616033499L117.85433074887592,73.56796161076088L119.25539621931712,75.80169870951975L119.2948628522873,75.86450134831465L119.38656473477681,76.01726452376168L119.87177216364543,76.77259355791647L120.44635990835825,77.64673839519672L120.95130065371195,78.41904111551229L121.19738671811422,78.79246221104948L121.42025711606344,79.13023856564904L121.51892369848888,79.27960700386392L121.67214709707896,79.5138438728827L121.9867193775177,79.98740971676851L122.07958204332986,80.12998868051908L122.47308758970897,80.6901203238249L122.50907187271117,80.73594927645901L122.5473777223587,80.78856770355743L122.67970702114106,80.97867298855819L122.75283637046813,81.08051510552288L123.06044395097096,81.53371252601575L123.94960397612253,82.82541004285123L124.04827055854797,82.97308111245003L124.21426257368724,83.20562061285274L124.66116415290833,83.7996996284801L124.7273288022995,83.88287069066793L124.97805799999237,84.21725230803533L125.16726568158467,84.48543654937568L125.52478694496155,84.99125239696697L126.14812758922577,85.86200249701507L126.31179803771974,86.0928446288017L126.83066818294526,86.793857867242L126.92933476537068,86.9177657762157L126.94790729853312,86.94322630545688L127.39132652778625,87.52372637215561L127.65598512535095,87.87508167568379L127.7279536913554,87.9752264240324L127.96243192253112,88.28075277492647L128.20967877025606,88.56081859657937L128.95722323004404,89.53341081359216L129.1963445945104,89.8406345331023L129.5724383910497,90.34135827484536L129.59565405750274,90.37021354131869L129.5991364074707,90.37530564716693L129.69780298989613,90.50939776783711L129.7012853398641,90.51618724230143L130.1481869190852,91.08480572868761L130.85510396258036,91.9793189893608L130.92359017861685,92.06249005154864L131.31593494167328,92.58358221668463L131.42853092397053,92.73464802351559L131.71640518798827,93.11655596213318L132.21554201672873,93.72760866392133L132.95263942661285,94.63739824213923L133.2405136906306,94.9734772281227L133.55740753771462,95.37575359013323L133.70482701969146,95.55227992620536L133.86385433489482,95.73729310535788L133.92885820096333,95.81876679892963L133.96600326728822,95.86120101433158L134.04841888319652,95.95964839406412L134.48951654580435,96.48753003366443L134.5928262615204,96.61143794263813L134.6195242779414,96.64368794634362L135.00142199109393,97.09349062960433L135.27304528859455,97.39731961188232L135.34849620456694,97.48558277991839L135.99389173196155,98.20696444175161L136.07514656454723,98.30201708425199L136.29569539585114,98.56850395697626L136.50463639392854,98.7993460887629L136.73679305845897,99.04206980086208L136.82965572427113,99.15070139229108L136.9573418897629,99.2966750932738L137.21967892068227,99.59031986385533L137.44254931863148,99.84492515626705L137.52380415121715,99.93658306153527L137.5806825340271,99.99429359448193L138.19821926167805,100.68512262122574L138.72173254019418,101.25883321346016L138.84477557239532,101.38953059689818L138.8470971390406,101.39292533413034L139.16050863615672,101.72900432011383L139.9521628622055,102.56750441645644L139.9788608786265,102.59296494569762L140.16690777689615,102.78985970516268L140.29111159241995,102.91546498275247L140.3595978084564,102.98845183324383L140.4524604742686,103.08859658159244L140.5395192234675,103.18025448686066L140.63586423924764,103.28888607828966L140.72756612173714,103.38393872079004L140.84480523732503,103.50784662976375L140.95624043629965,103.62666243288922L141.03517370223997,103.70474138922881L141.52734583104453,104.21734671128442L141.55056149749757,104.24110987190952L141.97308662694297,104.685820449322L142.2075648581187,104.93872837311764L142.24470992444355,104.97437311405528L142.3073922238668,105.04226785869841L142.41186272290548,105.15259681874349L142.63821547082267,105.35458368405679L142.67419975382487,105.3851363191462L142.73804283657074,105.45303106378933L142.77867025286358,105.4937679105752L142.79027808609007,105.50564949088775L143.0166308340073,105.73649162267438L143.37763444735208,106.11330745544373L143.8767712760925,106.61572856580287L144.25866898924508,106.97726808102752L144.3259944219589,107.04346545705457L144.75548425134022,107.47289971692236L144.89245668341317,107.6018997317443L144.9621036827723,107.67318921361958L144.97835464928946,107.68846553116428L144.99576639912922,107.70374184870899L145.0108565823237,107.71901816625369L145.20702896385194,107.90742608263837L145.60285607687632,108.30970244464889L145.8071539416631,108.51338667857827L145.99752240657807,108.69330775188256L146.0137733730952,108.70688670081118L146.5036239352544,109.1957288622417L146.56978858464558,109.25853150103659L146.7125649333318,109.39262362170676L146.9168627981186,109.59461048702006L147.03294113038382,109.70493944706514L147.5402034423828,110.19208423987959L148.3074812186559,110.92874221925751L148.3922184012095,111.01191328144535L149.10261779467262,111.68067651618014L149.261645109876,111.83683442885933L150.0231189695358,112.5548213534604L150.02427975285846,112.55651872207648L150.09160518557232,112.61762399225529L150.32376185010276,112.82979506926507L150.6963732966741,113.1624793180164L150.97612207743327,113.35428197163323L151.12470234273275,113.4493346141336L151.16300819238026,113.47479514337478L151.3882001569748,113.62246621297358L151.58321175518037,113.7531635964116L151.64705483792622,113.79390044319747L151.75849003690084,113.87028203092099L152.2889680153529,114.20805838552053L152.33656013158162,114.24030838922602L152.438709063975,114.30650576525306L152.69640296160378,114.47284788962872L152.8740028099696,114.58487421828988L153.1258927909851,114.73763739373692L153.9953194996516,115.28249271949801L154.04059004923505,115.30965061735526L154.27158593044282,115.455624318338L154.7591149259567,115.64572960333875L155.06904407310486,115.83753225695558L155.245483138148,115.94276911115243L155.52291035226187,116.10232176106378L155.88507474892936,115.8748743665093L156.07892556381228,115.83922962557166L156.81834454034168,116.01066385579556L156.87986605644227,116.04800596534928L157.29426570262908,116.28224283436806L157.3081951025009,116.29072967744845L157.594908583196,116.46216390767235L157.7260770986557,116.5436376012441L157.9129632136027,116.66245340436957L158.39352750918073,116.89838764200444L158.64889984016418,117.0494534488354L158.69300960642497,117.07321660946049L158.7765860056559,117.12074293071068L158.82185655523938,117.14790082856793L159.04704851983388,117.19033504396988L159.063299486351,117.1886376753538L159.08303280283607,117.16996662057694L159.20839740168253,117.24125610245223L159.7655733965556,117.56884824535531L159.98612222785948,117.6944535229451L160.12077309328717,117.77083511066861L160.37614542427065,117.92359828611565L160.40980814062752,117.94226934089251L160.9449292523702,118.25288779763483L161.2432505662918,118.42432202785872L161.27691328264874,118.44299308263558L161.34772106533052,118.48203256080538L161.70059919541677,118.67892732027045L161.89561079362235,118.78925628031553L162.48644950485232,119.12363789768293L163.89447967522938,119.9112169355432L163.89564045855204,119.9112169355432L164.0569893404007,119.99948010357926L164.09181284008028,120.0198485269722L164.139404956309,120.04530905621337L164.64086335169475,120.31858540340195L164.68961625124615,120.34744066987528L165.07035318107603,120.55791437826898L165.55439982662202,120.81591440791286L165.56832922649383,120.82440125099325L165.6902114753723,120.88890125840422L166.07210918852488,121.09088812371752L166.70009296607972,121.42357237246884L166.72795176582335,121.43884869001354L166.7662576154709,121.4575197447904L167.2735199274699,121.72570398613075L167.38263355979922,121.78171715046133L167.77149597288766,121.98200664715856L168.03615457045237,122.11440139921265L168.1034800031662,122.1500461401503L168.36465625076295,122.28413826082047L168.65136973145803,122.38598037778516L169.99091368579863,122.92574359769802L170.2729840332031,123.03437518912702L170.56085829722085,123.1684673097972L170.62237981332143,123.1990199448866L170.74890519549052,123.26691468952973L170.90328937740327,123.34159890863717L171.11687350877128,123.45362523729833L171.26545377407075,123.53000682502184L171.3757281897227,123.5877173579685L171.54752412147522,123.67088842015633L171.58466918780007,123.68955947493319L171.65547697048186,123.72350684725475L171.6763710702896,123.73369105895122L171.9271002679825,123.85590159930888L172.1499706659317,123.96792792797004L172.27069213148752,124.0256384609167L172.7860799267451,124.28024375332842L173.12735022360485,124.444888509088L173.327004955101,124.5382437829723L173.4291538874944,124.58577010422249L173.44308328736625,124.5925595786868L173.45236955394745,124.59765168453504L173.540589086469,124.64008589993699L173.59050276934306,124.66215169194601L174.0316004319509,124.87602013757186L174.20107479705808,124.95579646252753L174.93468985697427,125.3003622915914L175.19354453792573,125.31224387190395L175.8493871152242,125.59400706217292L175.86215573177336,125.59909916802116L176.0687751632055,125.69754654775369L176.13145746262867,125.72640181422702L176.2962886944453,125.80278340195053L177.22491535256705,126.22373081873792L177.50350335000357,126.3493360963277L177.84013051357272,126.50040190315866L177.97013824570973,126.5598098047214L178.2139027434667,126.67013876476648L178.29747914269765,126.7074808743202L178.59928280658724,126.79404667374018L178.7699179550171,126.86873089284762L179.19824700107574,127.06053354646446L179.21333718427024,127.06732302092877L179.31200376669565,126.99603353905349L179.7797994457245,127.13012565972366L179.90284247792562,127.181046718206L180.63645753784178,127.44413885369812L180.9347788517634,127.5782309743683L181.32596283149718,127.74627046736003L181.4083784474055,127.7802178396816L181.49891954657238,127.8192573178514L181.86456629320782,127.97541523053059L181.87037020982106,127.97880996776274L181.88778195966086,127.98559944222706L182.27084045613606,128.1536389352188L182.30798552246094,128.17061262137958L182.53665983702342,128.2707573697282L182.89998501701356,128.43031001963953L182.92203990014394,128.440494231336L183.04160058237713,128.49141528981835L183.36545912939707,128.62890214772068L183.92031355762484,128.8614416481234L183.95281549065908,128.87162585981986L184.05264285640718,128.9072706007575L184.49490130233764,129.1007706229904L184.86519118226371,129.25523116705352L185.03350476404827,129.32821801754488L185.08690079689026,129.35198117816998L185.69747282460528,129.6065864705817L185.7439041575114,129.62695489397464L185.77872765719096,129.64223121151934L185.7903354904175,129.64732331736758L185.87855502293905,129.65071805459974L185.91802165590923,129.66599437214444L186.05499408798218,129.72200753647502L186.59707989966077,129.93078387625263L186.87450711377463,130.03092862460124L187.14496962795258,130.13277074156593L187.87742390454608,130.42471814353138L187.9192121041616,130.44169182969216L188.03180808645885,130.4858234137102L188.2755725842158,130.5859681620588L188.27673336753844,130.5859681620588L188.62380758101145,130.7268497571933L188.91980732828776,130.84736292893484L189.0834777767817,130.90846819911366L189.42474807364147,131.04765242563207L189.60583027197518,131.11894190750735L189.77182228711445,131.18174454630224L189.87164965286254,131.21908665585596L190.09916318410237,131.3090471925081L190.12818276716868,131.32092877282065L190.27444146582286,131.37694193715123L190.35569629840853,131.40919194085672L190.63196272919973,131.50594195197317L190.70044894523622,131.53309984983042L190.8385821606318,131.5806261710806L190.9825192926407,131.62984986094688L192.25357703094483,132.0474025405021L192.35572596333822,132.08813938728798L192.40099651292164,132.1051130734488L192.44858862915038,132.12378412822565L193.05335674025218,132.35123152278013L193.49909753615063,132.52096838438794L194.27682236232758,132.81461315496946L194.4219202776591,132.87062631930004L195.23214703687034,133.1693631957298L195.3470645858129,133.21179741113176L195.5049311176936,133.2695079440784L195.64654668305715,133.32212637117684L195.71387211577098,133.347586900418L195.793966165034,133.37813953550742L195.7986092983246,133.3798369041235L195.91584841391247,133.42227111952545L196.01567577966054,133.4579158604631L196.68660854015351,133.7057316784105L196.8177770556132,133.75495536827677L196.96635732091266,133.8075737953752L197.20199633541105,133.89413959479518L197.26119628486634,133.91450801818812L197.34129033412933,133.94336328466144L197.34593346741994,133.94506065327752L197.95766627845762,134.16232383613553L197.97972116158803,134.17081067921592L198.0725838274002,134.2030606829214L198.21419939276376,134.25398174140375L198.33608164164224,134.29811332542178L198.54386185639697,134.37279754452922L198.56011282291414,134.37958701899353L198.6019010225296,134.39486333653824L198.64949313875834,134.41183702269902L198.75860677108764,134.45087650086882L198.8154851538976,134.47124492426175L198.92808113619486,134.51198177104763L199.02442615197498,134.5459291433692L199.12541430104574,134.57987651569076L199.14630840085348,134.58836335877115L199.3030141494115,134.64437652310173L200.26298195724488,134.99063972078167L200.54505230464935,135.09078446913028L201.46207112954457,135.41328450618514L201.5398436121623,135.4404424040424L201.61065139484407,135.46590293328356L202.02853339099883,135.60678452841805L202.58222703590394,135.79858718203488L202.7482190510432,135.85799508359761L203.3576302954356,136.06507405475915L203.44817139460244,136.09392932123248L203.81613970788322,136.22292933605442L203.9740062397639,136.27724513176892L203.99141798960366,136.28233723761716L204.65770761680602,136.50808726355555L204.75405263258617,136.53863989864496L205.05585629647572,136.6370872783775L205.2578325946172,136.69988991717238L205.3425697771708,136.7287451836457L205.51204414227803,136.7847583479763L205.53409902540844,136.7915478224406L205.61071072470347,136.81700835168178L205.79759683965048,136.8781136218606L205.9032281220118,136.91206099418216L205.95894572149913,136.93073204895902L206.182976902771,137.00711363668253L206.39888260078428,137.0801004871739L206.53585503285726,137.125929439808L206.6147882987976,137.15138996904918L206.6681843316396,137.16836365520996L207.4308189746221,137.42296894762168L207.61190117295584,137.48577158641658L207.76280300490063,137.53329790766676L207.9473675532023,137.59610054646166L208.25497513370513,137.69794266342635L208.38730443248747,137.73867951021222L208.6856257464091,137.8337321527126L209.17663709189097,137.99328480262395L209.2346762580236,138.01025848878473L209.43433098951976,138.06966639034746L209.47727997245786,138.08154797066L209.76399345315298,138.16981113869608L210.0495461505254,138.25807430673214L210.2875067316691,138.33275852583958L210.32000866470338,138.34294273753605L210.5254673128128,138.40744274494705L211.20568633988697,138.62300855918897L211.232384356308,138.63149540226937L211.4285567378362,138.69429804106426L211.42971752115886,138.69599540968034L211.50284687048594,138.71806120168935L211.59803110294342,138.74861383677876L211.74777215156553,138.7927454207968L211.81393680095672,138.8148112128058L211.94046218312582,138.8538506909756L212.02287779903412,138.88100858883286L212.17958354759216,138.92683754146697L212.57308909397125,139.04735071320852L212.7681006921768,139.10845598338733L213.53421768512726,139.3443902210222L213.67002933387755,139.38512706780807L214.3072993780136,139.57862709004098L214.5359736925761,139.64991657191626L214.5824050254822,139.6634955208449L214.72518137416841,139.70423236763077L215.2835181523641,139.87396922923858L215.4390631175995,139.9197981818727L215.67470213209788,139.9893902951319L215.90337644666036,140.05558767115895L216.25277222677866,140.15573241950756L216.27947024319968,140.16421926258795L216.50234064114886,140.230416638615L216.91674028733573,140.3543245475887L217.00612060317994,140.38148244544595L217.24059883435567,140.45107455870516L217.3392654167811,140.4799298251785L217.46811236559552,140.5172719347322L217.52731231505075,140.53933772674122L217.8151865790685,140.62250878892905L218.27137442487083,140.74811406651884L218.4373664400101,140.79564038776903L218.67997015444436,140.86353513241215L218.86569548606872,140.91615355951058L219.06418943424225,140.9450088259839L219.23366379934947,140.99083777861802L219.24643241589862,140.99423251585017L219.39617346452076,141.01120620201095L219.41938913097383,141.01799567647527L219.76414177780154,141.12153516205603L220.03228272533417,141.19791674977955L220.3352471725464,141.28278518058346L220.4025726052602,141.30145623536032L220.5070431042989,141.33031150183365L220.76821935189565,141.4049957209411L221.12457983194986,141.511929943754L221.9568614742915,141.75125891862103L222.43046106993359,141.88195630205905L222.475731619517,141.8938378823716L222.48733945274353,141.89723261960376L223.13969968007407,142.08224579875628L223.35444459476471,142.14504843755117L223.9998401221593,142.31987740500722L224.14029490420026,142.35891688317702L224.23431835333508,142.3843774124182L224.25173010317485,142.38946951826642L224.374773135376,142.423416890588L224.6777375825882,142.50658795277582L224.89712563056946,142.56769322295463L225.67368967342378,142.77646956273225L225.94415218760173,142.85454851907184L226.26336760133108,142.9428116871079L226.4815948659897,143.00052222005456L226.55124186534883,143.01919327483142L226.670802547582,143.05483801576906L226.79268479646046,143.08539065085847L226.9935003112793,143.14140381518905L227.60871547228496,143.30435120233255L227.84319370346068,143.36545647251137L227.86060545330048,143.36885120974353L227.94186028588612,143.39091700175254L228.19142870025635,143.4554170091635L228.77414192822775,143.6047854473784L229.47061192181906,143.77621967760228L229.57740398750306,143.80337757545954L229.72366268615724,143.84071968501326L230.0591290664037,143.922193378585L230.60353644472758,144.06477234233557L230.6105011446635,144.06646971095165L230.64996777763366,144.07665392264812L230.80086960957846,144.11569340081792L231.19089280598956,144.21414078055045L231.2245555223465,144.22262762363084L231.52868075288137,144.30070657997044L231.58555913569134,144.31598289751514L231.78637465051014,144.3652065873814L232.11835868078867,144.45007501818532L232.52347206039428,144.55361450376608L232.55829556007387,144.56379871546255L232.85893844064077,144.64357504041823L233.375487019221,144.7776671610884L233.3801301525116,144.7776671610884L233.44397323525746,144.7929434786331L233.62853778355915,144.84556190573153L233.66336128323874,144.85404874881192L233.78408274879456,144.8319829568029L233.856051314799,144.77257505524017L234.0568668296178,144.60962766809666L234.58038010813394,144.1869828826932L235.0621051870346,143.7982854696113L235.44864603347776,143.487667012869L235.511328332901,143.43674595438665L235.57517141564688,143.3858248959043L235.58097533226012,143.38073279005607L235.90019074598948,143.12612749764435L235.95474756215413,143.08199591362632L235.95706912879945,143.08029854501024L236.20431597652436,142.88510115416125L236.3343237086614,142.78156166858048L236.58040977306368,142.5863642777315L236.70925672187803,142.4845221607668L236.72086455510458,142.47433794907033L236.97391531944274,142.2740484523731L237.66574217974346,141.72919312661202L237.67735001296995,141.72070628353163L237.75860484555562,141.65620627612066L238.02906735973357,141.44403519911089L238.67562367045085,140.93991672013567L239.1283291662852,140.5885614166075L239.39182698052724,140.3848771826781L239.40691716372172,140.37299560236556L239.65068166147867,140.1845876859809L239.74586589393616,140.11160083548953L239.92114417565662,139.97581134620327L239.9536461086909,139.95204818557818L240.1962498231252,139.76533763780958L240.32277520529428,139.66858762669312L240.38777907136281,139.61766656821078L240.44581823749542,139.57353498419275L240.4585868540446,139.56335077249628L240.97977856591544,139.166166516334L241.0656765317917,139.09996914030694L241.37792724558514,138.86403490267207L241.43132327842713,138.8232980558862L241.52534672756195,138.75200857401092L241.88054642429353,138.4821269640545L242.87301616516115,137.73867951021222L242.89739261493685,137.72000845543536L242.9055180981954,137.71491634958713L242.93221611461638,137.6945479261942L242.97864744752246,137.66060055387263L243.27580797812146,137.4382452651664L243.44528234322868,137.3126399875766L243.68788605766295,137.13271891427232L244.02335243790944,136.88320572770883L244.1580033033371,136.78306097936022L244.2787247688929,136.69479781132415L246.33679359995523,135.18753448024674L247.63454935468036,134.2505870041716L247.83536486949922,134.10800804042103L248.0977019004186,133.91960012403635L248.13949010003407,133.88904748894694L248.84292479356128,133.39002111581996L248.9497168592453,133.31363952809645L249.1296382742564,133.18633688189058L249.51966147066753,132.91136316608592L249.89691605052948,132.64657366197773L249.91432780036925,132.6329947130491L250.03388848260244,132.54982365086127L250.1650569980621,132.45816574559305L250.28810003026325,132.37159994617306L250.6247271938324,132.1356657085382L251.30610700422923,131.66209986465236L251.57308716843923,131.47708668549984L251.63112633457183,131.43804720733004L251.89694571545917,131.25303402817752L252.0397220641454,131.154586648445L252.15115726312004,131.07820506072147L252.7338704910914,130.67762606732703L252.9532585390727,130.52656026049607L253.2852425693512,130.30081023455767L253.5278462837855,130.134468110182L254.03975172907514,129.786507543886L254.04439486236575,129.7848101752699L254.5133513247172,129.46909961267937L254.54585325775145,129.44703382067036L254.98114700374603,129.1550864187049L254.98462935371398,129.15338905008883L255.1274057024002,129.05663903897238L255.26669970111848,128.96328376508808L255.42920936628977,128.85465217365908L255.61841704788208,128.7273495274532L255.68226013062795,128.68491531205126L256.42748302377066,128.1909810447725L256.9997492018382,127.810770474771L257.2400313496272,127.65291519347574L257.4454899977366,127.51712570418948L257.6021957462947,127.41358621860871L258.09320709177655,127.09278355016994L258.23134030717216,127.0028230135178L258.52269692115783,126.81271772851704L258.8198574517568,126.61921770628413L259.1239826822917,126.42232294681907L259.42926869614917,126.225428187354L260.167526889356,125.74846760623603L260.27315817171734,125.6805728615929L260.89069489936827,125.28678334266277L261.07525944766996,125.1679675395373L261.5175178936005,124.8879017178844L261.67886677544914,124.78436223230364L261.83789409065247,124.68421748395502L262.4658778682073,124.28703322779273L262.6411561499278,124.17670426774765" fill="none"></path></g></g></g></g></g></g><g transform="translate(51, 177)" clip-path="url(#clip_1)"><clipPath id="clip_1"><rect width="278" height="22"></rect></clipPath><g><g><line x1="0" y1="0" x2="0" y2="5" style="visibility: inherit;" fill="rgb(0, 0, 0)" stroke="rgb(204, 204, 204)" stroke-width="1px"></line><line x1="23.215666453043617" y1="0" x2="23.215666453043617" y2="5" style="visibility: inherit;" fill="rgb(0, 0, 0)" stroke="rgb(204, 204, 204)" stroke-width="1px"></line><line x1="46.431332906087235" y1="0" x2="46.431332906087235" y2="5" style="visibility: inherit;" fill="rgb(0, 0, 0)" stroke="rgb(204, 204, 204)" stroke-width="1px"></line><line x1="69.64699935913086" y1="0" x2="69.64699935913086" y2="5" style="visibility: inherit;" fill="rgb(0, 0, 0)" stroke="rgb(204, 204, 204)" stroke-width="1px"></line><line x1="92.86266581217447" y1="0" x2="92.86266581217447" y2="5" style="visibility: inherit;" fill="rgb(0, 0, 0)" stroke="rgb(204, 204, 204)" stroke-width="1px"></line><line x1="116.07833226521811" y1="0" x2="116.07833226521811" y2="5" style="visibility: inherit;" fill="rgb(0, 0, 0)" stroke="rgb(204, 204, 204)" stroke-width="1px"></line><line x1="139.29399871826172" y1="0" x2="139.29399871826172" y2="5" style="visibility: inherit;" fill="rgb(0, 0, 0)" stroke="rgb(204, 204, 204)" stroke-width="1px"></line><line x1="162.50966517130536" y1="0" x2="162.50966517130536" y2="5" style="visibility: inherit;" fill="rgb(0, 0, 0)" stroke="rgb(204, 204, 204)" stroke-width="1px"></line><line x1="185.72533162434894" y1="0" x2="185.72533162434894" y2="5" style="visibility: inherit;" fill="rgb(0, 0, 0)" stroke="rgb(204, 204, 204)" stroke-width="1px"></line><line x1="208.94099807739258" y1="0" x2="208.94099807739258" y2="5" style="visibility: inherit;" fill="rgb(0, 0, 0)" stroke="rgb(204, 204, 204)" stroke-width="1px"></line><line x1="232.15666453043622" y1="0" x2="232.15666453043622" y2="5" style="visibility: inherit;" fill="rgb(0, 0, 0)" stroke="rgb(204, 204, 204)" stroke-width="1px"></line><line x1="255.3723309834798" y1="0" x2="255.3723309834798" y2="5" style="visibility: inherit;" fill="rgb(0, 0, 0)" stroke="rgb(204, 204, 204)" stroke-width="1px"></line><line x1="278.58799743652344" y1="0" x2="278.58799743652344" y2="5" style="visibility: inherit;" fill="rgb(0, 0, 0)" stroke="rgb(204, 204, 204)" stroke-width="1px"></line></g><g transform="translate(0, 8)"><text style="text-anchor: middle; visibility: hidden; font-family: &quot;Helvetica Neue&quot;, sans-serif; font-size: 12px; font-weight: 200;" x="0" y="0" dx="0em" dy="0.95em" fill="rgb(50, 49, 63)" stroke="none" stroke-width="1px">-20k</text><text style="text-anchor: middle; visibility: inherit; font-family: &quot;Helvetica Neue&quot;, sans-serif; font-size: 12px; font-weight: 200;" x="23.215666453043617" y="0" dx="0em" dy="0.95em" fill="rgb(50, 49, 63)" stroke="none" stroke-width="1px">0</text><text style="text-anchor: middle; visibility: hidden; font-family: &quot;Helvetica Neue&quot;, sans-serif; font-size: 12px; font-weight: 200;" x="46.431332906087235" y="0" dx="0em" dy="0.95em" fill="rgb(50, 49, 63)" stroke="none" stroke-width="1px">20k</text><text style="text-anchor: middle; visibility: inherit; font-family: &quot;Helvetica Neue&quot;, sans-serif; font-size: 12px; font-weight: 200;" x="69.64699935913086" y="0" dx="0em" dy="0.95em" fill="rgb(50, 49, 63)" stroke="none" stroke-width="1px">40k</text><text style="text-anchor: middle; visibility: hidden; font-family: &quot;Helvetica Neue&quot;, sans-serif; font-size: 12px; font-weight: 200;" x="92.86266581217447" y="0" dx="0em" dy="0.95em" fill="rgb(50, 49, 63)" stroke="none" stroke-width="1px">60k</text><text style="text-anchor: middle; visibility: inherit; font-family: &quot;Helvetica Neue&quot;, sans-serif; font-size: 12px; font-weight: 200;" x="116.07833226521811" y="0" dx="0em" dy="0.95em" fill="rgb(50, 49, 63)" stroke="none" stroke-width="1px">80k</text><text style="text-anchor: middle; visibility: hidden; font-family: &quot;Helvetica Neue&quot;, sans-serif; font-size: 12px; font-weight: 200;" x="139.29399871826172" y="0" dx="0em" dy="0.95em" fill="rgb(50, 49, 63)" stroke="none" stroke-width="1px">100k</text><text style="text-anchor: middle; visibility: inherit; font-family: &quot;Helvetica Neue&quot;, sans-serif; font-size: 12px; font-weight: 200;" x="162.50966517130536" y="0" dx="0em" dy="0.95em" fill="rgb(50, 49, 63)" stroke="none" stroke-width="1px">120k</text><text style="text-anchor: middle; visibility: hidden; font-family: &quot;Helvetica Neue&quot;, sans-serif; font-size: 12px; font-weight: 200;" x="185.72533162434894" y="0" dx="0em" dy="0.95em" fill="rgb(50, 49, 63)" stroke="none" stroke-width="1px">140k</text><text style="text-anchor: middle; visibility: inherit; font-family: &quot;Helvetica Neue&quot;, sans-serif; font-size: 12px; font-weight: 200;" x="208.94099807739258" y="0" dx="0em" dy="0.95em" fill="rgb(50, 49, 63)" stroke="none" stroke-width="1px">160k</text><text style="text-anchor: middle; visibility: hidden; font-family: &quot;Helvetica Neue&quot;, sans-serif; font-size: 12px; font-weight: 200;" x="232.15666453043622" y="0" dx="0em" dy="0.95em" fill="rgb(50, 49, 63)" stroke="none" stroke-width="1px">180k</text><text style="text-anchor: middle; visibility: inherit; font-family: &quot;Helvetica Neue&quot;, sans-serif; font-size: 12px; font-weight: 200;" x="255.3723309834798" y="0" dx="0em" dy="0.95em" fill="rgb(50, 49, 63)" stroke="none" stroke-width="1px">200k</text><text style="text-anchor: middle; visibility: hidden; font-family: &quot;Helvetica Neue&quot;, sans-serif; font-size: 12px; font-weight: 200;" x="278.58799743652344" y="0" dx="0em" dy="0.95em" fill="rgb(50, 49, 63)" stroke="none" stroke-width="1px">220k</text></g><line x1="0" y1="0" x2="278.58799743652344" y2="0" fill="rgb(0, 0, 0)" stroke="rgb(204, 204, 204)" stroke-width="1px"></line></g></g></g></g></svg>