<svg viewBox="0 0 330 200" xmlns="http://www.w3.org/2000/svg"><g><g><g><g><g><line x1="51.41200256347656" y1="177.98199939727783" x2="46.41200256347656" y2="177.98199939727783" style="visibility: inherit;" fill="rgb(0, 0, 0)" stroke="rgb(204, 204, 204)" stroke-width="1px"></line><line x1="51.41200256347656" y1="163.15016611417101" x2="46.41200256347656" y2="163.15016611417101" style="visibility: inherit;" fill="rgb(0, 0, 0)" stroke="rgb(204, 204, 204)" stroke-width="1px"></line><line x1="51.41200256347656" y1="148.31833283106485" x2="46.41200256347656" y2="148.31833283106485" style="visibility: inherit;" fill="rgb(0, 0, 0)" stroke="rgb(204, 204, 204)" stroke-width="1px"></line><line x1="51.41200256347656" y1="133.48649954795803" x2="46.41200256347656" y2="133.48649954795803" style="visibility: inherit;" fill="rgb(0, 0, 0)" stroke="rgb(204, 204, 204)" stroke-width="1px"></line><line x1="51.41200256347656" y1="118.6546662648519" x2="46.41200256347656" y2="118.6546662648519" style="visibility: inherit;" fill="rgb(0, 0, 0)" stroke="rgb(204, 204, 204)" stroke-width="1px"></line><line x1="51.41200256347656" y1="103.82283298174507" x2="46.41200256347656" y2="103.82283298174507" style="visibility: inherit;" fill="rgb(0, 0, 0)" stroke="rgb(204, 204, 204)" stroke-width="1px"></line><line x1="51.41200256347656" y1="88.99099969863892" x2="46.41200256347656" y2="88.99099969863892" style="visibility: inherit;" fill="rgb(0, 0, 0)" stroke="rgb(204, 204, 204)" stroke-width="1px"></line><line x1="51.41200256347656" y1="74.15916641553211" x2="46.41200256347656" y2="74.15916641553211" style="visibility: inherit;" fill="rgb(0, 0, 0)" stroke="rgb(204, 204, 204)" stroke-width="1px"></line><line x1="51.41200256347656" y1="59.32733313242595" x2="46.41200256347656" y2="59.32733313242595" style="visibility: inherit;" fill="rgb(0, 0, 0)" stroke="rgb(204, 204, 204)" stroke-width="1px"></line><line x1="51.41200256347656" y1="44.49549984931912" x2="46.41200256347656" y2="44.49549984931912" style="visibility: inherit;" fill="rgb(0, 0, 0)" stroke="rgb(204, 204, 204)" stroke-width="1px"></line><line x1="51.41200256347656" y1="29.663666566212953" x2="46.41200256347656" y2="29.663666566212953" style="visibility: inherit;" fill="rgb(0, 0, 0)" stroke="rgb(204, 204, 204)" stroke-width="1px"></line><line x1="51.41200256347656" y1="14.831833283106818" x2="46.41200256347656" y2="14.831833283106818" style="visibility: inherit;" fill="rgb(0, 0, 0)" stroke="rgb(204, 204, 204)" stroke-width="1px"></line><line x1="51.41200256347656" y1="0" x2="46.41200256347656" y2="0" style="visibility: inherit;" fill="rgb(0, 0, 0)" stroke="rgb(204, 204, 204)" stroke-width="1px"></line></g><g transform="translate(41.41200256347656, 0)"><text style="text-anchor: end; visibility: hidden; font-family: &quot;Helvetica Neue&quot;, sans-serif; font-size: 12px; font-weight: 200;" x="0" y="177.98199939727783" dx="0em" dy="0.3em" fill="rgb(50, 49, 63)" stroke="none" stroke-width="1px">4.8</text><text style="text-anchor: end; visibility: inherit; font-family: &quot;Helvetica Neue&quot;, sans-serif; font-size: 12px; font-weight: 200;" x="0" y="163.15016611417101" dx="0em" dy="0.3em" fill="rgb(50, 49, 63)" stroke="none" stroke-width="1px">4.82</text><text style="text-anchor: end; visibility: hidden; font-family: &quot;Helvetica Neue&quot;, sans-serif; font-size: 12px; font-weight: 200;" x="0" y="148.31833283106485" dx="0em" dy="0.3em" fill="rgb(50, 49, 63)" stroke="none" stroke-width="1px">4.84</text><text style="text-anchor: end; visibility: inherit; font-family: &quot;Helvetica Neue&quot;, sans-serif; font-size: 12px; font-weight: 200;" x="0" y="133.48649954795803" dx="0em" dy="0.3em" fill="rgb(50, 49, 63)" stroke="none" stroke-width="1px">4.86</text><text style="text-anchor: end; visibility: hidden; font-family: &quot;Helvetica Neue&quot;, sans-serif; font-size: 12px; font-weight: 200;" x="0" y="118.6546662648519" dx="0em" dy="0.3em" fill="rgb(50, 49, 63)" stroke="none" stroke-width="1px">4.88</text><text style="text-anchor: end; visibility: inherit; font-family: &quot;Helvetica Neue&quot;, sans-serif; font-size: 12px; font-weight: 200;" x="0" y="103.82283298174507" dx="0em" dy="0.3em" fill="rgb(50, 49, 63)" stroke="none" stroke-width="1px">4.9</text><text style="text-anchor: end; visibility: hidden; font-family: &quot;Helvetica Neue&quot;, sans-serif; font-size: 12px; font-weight: 200;" x="0" y="88.99099969863892" dx="0em" dy="0.3em" fill="rgb(50, 49, 63)" stroke="none" stroke-width="1px">4.92</text><text style="text-anchor: end; visibility: inherit; font-family: &quot;Helvetica Neue&quot;, sans-serif; font-size: 12px; font-weight: 200;" x="0" y="74.15916641553211" dx="0em" dy="0.3em" fill="rgb(50, 49, 63)" stroke="none" stroke-width="1px">4.94</text><text style="text-anchor: end; visibility: hidden; font-family: &quot;Helvetica Neue&quot;, sans-serif; font-size: 12px; font-weight: 200;" x="0" y="59.32733313242595" dx="0em" dy="0.3em" fill="rgb(50, 49, 63)" stroke="none" stroke-width="1px">4.96</text><text style="text-anchor: end; visibility: inherit; font-family: &quot;Helvetica Neue&quot;, sans-serif; font-size: 12px; font-weight: 200;" x="0" y="44.49549984931912" dx="0em" dy="0.3em" fill="rgb(50, 49, 63)" stroke="none" stroke-width="1px">4.98</text><text style="text-anchor: end; visibility: hidden; font-family: &quot;Helvetica Neue&quot;, sans-serif; font-size: 12px; font-weight: 200;" x="0" y="29.663666566212953" dx="0em" dy="0.3em" fill="rgb(50, 49, 63)" stroke="none" stroke-width="1px">5</text><text style="text-anchor: end; visibility: inherit; font-family: &quot;Helvetica Neue&quot;, sans-serif; font-size: 12px; font-weight: 200;" x="0" y="14.831833283106818" dx="0em" dy="0.3em" fill="rgb(50, 49, 63)" stroke="none" stroke-width="1px">5.02</text><text style="text-anchor: end; visibility: hidden; font-family: &quot;Helvetica Neue&quot;, sans-serif; font-size: 12px; font-weight: 200;" x="0" y="0" dx="0em" dy="0.3em" fill="rgb(50, 49, 63)" stroke="none" stroke-width="1px">5.04</text></g><line x1="51.41200256347656" y1="0" x2="51.41200256347656" y2="177.98199939727783" fill="rgb(0, 0, 0)" stroke="rgb(204, 204, 204)" stroke-width="1px"></line></g></g><g transform="translate(51, 0)" clip-path="url(#clip_0)"><clipPath id="clip_0"><rect width="278" height="177"></rect></clipPath><g><g><g><line x1="0" y1="0" x2="0" y2="177.98199939727783" fill="rgb(0, 0, 0)" stroke="rgb(60, 60, 60)" stroke-width="1px" opacity="0.25"></line><line x1="23.215666453043617" y1="0" x2="23.215666453043617" y2="177.98199939727783" fill="rgb(0, 0, 0)" stroke="rgb(60, 60, 60)" stroke-width="1px" opacity="0.25"></line><line x1="46.431332906087235" y1="0" x2="46.431332906087235" y2="177.98199939727783" fill="rgb(0, 0, 0)" stroke="rgb(60, 60, 60)" stroke-width="1px" opacity="0.25"></line><line x1="69.64699935913086" y1="0" x2="69.64699935913086" y2="177.98199939727783" fill="rgb(0, 0, 0)" stroke="rgb(60, 60, 60)" stroke-width="1px" opacity="0.25"></line><line x1="92.86266581217447" y1="0" x2="92.86266581217447" y2="177.98199939727783" fill="rgb(0, 0, 0)" stroke="rgb(60, 60, 60)" stroke-width="1px" opacity="0.25"></line><line x1="116.07833226521811" y1="0" x2="116.07833226521811" y2="177.98199939727783" fill="rgb(0, 0, 0)" stroke="rgb(60, 60, 60)" stroke-width="1px" opacity="0.25"></line><line x1="139.29399871826172" y1="0" x2="139.29399871826172" y2="177.98199939727783" fill="rgb(0, 0, 0)" stroke="rgb(60, 60, 60)" stroke-width="1px" opacity="0.25"></line><line x1="162.50966517130536" y1="0" x2="162.50966517130536" y2="177.98199939727783" fill="rgb(0, 0, 0)" stroke="rgb(60, 60, 60)" stroke-width="1px" opacity="0.25"></line><line x1="185.72533162434894" y1="0" x2="185.72533162434894" y2="177.98199939727783" fill="rgb(0, 0, 0)" stroke="rgb(60, 60, 60)" stroke-width="1px" opacity="0.25"></line><line x1="208.94099807739258" y1="0" x2="208.94099807739258" y2="177.98199939727783" fill="rgb(0, 0, 0)" stroke="rgb(60, 60, 60)" stroke-width="1px" opacity="0.25"></line><line x1="232.15666453043622" y1="0" x2="232.15666453043622" y2="177.98199939727783" fill="rgb(0, 0, 0)" stroke="rgb(60, 60, 60)" stroke-width="1px" opacity="0.25"></line><line x1="255.3723309834798" y1="0" x2="255.3723309834798" y2="177.98199939727783" fill="rgb(0, 0, 0)" stroke="rgb(60, 60, 60)" stroke-width="1px" opacity="0.25"></line><line x1="278.58799743652344" y1="0" x2="278.58799743652344" y2="177.98199939727783" fill="rgb(0, 0, 0)" stroke="rgb(60, 60, 60)" stroke-width="1px" opacity="0.25"></line></g><g><line x1="0" y1="177.98199939727783" x2="278.58799743652344" y2="177.98199939727783" fill="rgb(0, 0, 0)" stroke="rgb(60, 60, 60)" stroke-width="1px" opacity="0.25"></line><line x1="0" y1="163.15016611417101" x2="278.58799743652344" y2="163.15016611417101" fill="rgb(0, 0, 0)" stroke="rgb(60, 60, 60)" stroke-width="1px" opacity="0.25"></line><line x1="0" y1="148.31833283106485" x2="278.58799743652344" y2="148.31833283106485" fill="rgb(0, 0, 0)" stroke="rgb(60, 60, 60)" stroke-width="1px" opacity="0.25"></line><line x1="0" y1="133.48649954795803" x2="278.58799743652344" y2="133.48649954795803" fill="rgb(0, 0, 0)" stroke="rgb(60, 60, 60)" stroke-width="1px" opacity="0.25"></line><line x1="0" y1="118.6546662648519" x2="278.58799743652344" y2="118.6546662648519" fill="rgb(0, 0, 0)" stroke="rgb(60, 60, 60)" stroke-width="1px" opacity="0.25"></line><line x1="0" y1="103.82283298174507" x2="278.58799743652344" y2="103.82283298174507" fill="rgb(0, 0, 0)" stroke="rgb(60, 60, 60)" stroke-width="1px" opacity="0.25"></line><line x1="0" y1="88.99099969863892" x2="278.58799743652344" y2="88.99099969863892" fill="rgb(0, 0, 0)" stroke="rgb(60, 60, 60)" stroke-width="1px" opacity="0.25"></line><line x1="0" y1="74.15916641553211" x2="278.58799743652344" y2="74.15916641553211" fill="rgb(0, 0, 0)" stroke="rgb(60, 60, 60)" stroke-width="1px" opacity="0.25"></line><line x1="0" y1="59.32733313242595" x2="278.58799743652344" y2="59.32733313242595" fill="rgb(0, 0, 0)" stroke="rgb(60, 60, 60)" stroke-width="1px" opacity="0.25"></line><line x1="0" y1="44.49549984931912" x2="278.58799743652344" y2="44.49549984931912" fill="rgb(0, 0, 0)" stroke="rgb(60, 60, 60)" stroke-width="1px" opacity="0.25"></line><line x1="0" y1="29.663666566212953" x2="278.58799743652344" y2="29.663666566212953" fill="rgb(0, 0, 0)" stroke="rgb(60, 60, 60)" stroke-width="1px" opacity="0.25"></line><line x1="0" y1="14.831833283106818" x2="278.58799743652344" y2="14.831833283106818" fill="rgb(0, 0, 0)" stroke="rgb(60, 60, 60)" stroke-width="1px" opacity="0.25"></line><line x1="0" y1="0" x2="278.58799743652344" y2="0" fill="rgb(0, 0, 0)" stroke="rgb(60, 60, 60)" stroke-width="1px" opacity="0.25"></line></g></g></g><g><g><line x1="0" y1="3737.6219873428313" x2="278.58799743652344" y2="3737.6219873428313" fill="rgb(0, 0, 0)" stroke="rgb(153, 153, 153)" stroke-width="1.5px"></line></g></g><g><g><line x1="23.215666453043617" y1="0" x2="23.215666453043617" y2="177.98199939727783" fill="rgb(0, 0, 0)" stroke="rgb(153, 153, 153)" stroke-width="1.5px"></line></g></g><g><g><g><g><g><path style="fill: none;" stroke="rgb(51, 187, 238)" stroke-width="2px" d="M23.265580135917663,102.6239956729478L23.410678051249185,124.01720536784296L23.48264661725362,132.0118115495711L23.767038531303406,147.57456004823777L23.839007097307842,149.48091717517056L23.888920780181888,151.2536065235872L23.89704626344045,151.51917398831108L23.967854046122234,153.01179751507482L24.393861525535584,157.641370415428L24.76415140546163,158.11592639100652L24.82451213823954,158.38573727727064L24.883712087694803,158.44125537575485L25.229625517845154,158.44797412652682L25.23310786781311,158.4610580096091L25.395617532984414,158.15517804025333L25.894754361724853,157.1045775905933L25.98993859418233,156.86270256280216L26.101373793156945,156.53666634113048L26.102534576479595,156.5281794980501L26.333530457687377,156.02109062399674L26.966157368532816,154.09351638936297L26.984729901695253,154.0344621062619L27.053216117731733,153.75439628460902L27.416541297721864,152.66772675185732L28.227928840255736,150.08065408618484L28.32427385603587,149.72880371681032L28.43106592171987,149.1439187811867L28.450799238204954,149.02227403036778L28.987081133270266,143.23141810184777L29.17628881486257,140.37948520837477L29.42121409594218,136.68381866532624L29.859990191904707,130.04533928415222L30.073574323272705,126.68596389816419L30.169919339052836,126.26975496876335L30.413683836809792,122.04295349626705L30.99291471481323,114.340436163889L31.00684411468506,114.17494272382137L31.172836129824322,111.64692434124997L31.302843861961367,109.56022179885888L31.522231909942626,106.63226093612404L31.876270823351543,102.50235092212885L31.879753173319497,102.49704664520361L32.268615586407975,98.04605106800031L32.3092430027008,97.56689805241992L32.57970551687876,94.63858357122339L32.71203481566111,93.5519140384717L32.75962693188985,92.94970179822563L33.08116391226451,89.47186422757382L33.09277174549103,89.31556486750993L33.52226157487234,85.97387040460606L33.58842622426351,85.54104140750613L33.96568080412547,81.92246368910449L34.20712373523712,78.84315412476936L34.30695110098521,77.7013201119951L34.47410389944712,75.89857319433543L35.28781300862631,68.83716613298857L35.38067567443848,68.1147236157703L35.43058935731252,67.76959199716775L35.875169369888305,71.3690743186385L35.94597715257009,71.95714182041725L36.00865945199331,72.46493793139396L36.60298051319122,76.96862265938803L36.642447146161395,77.2596506533531L37.11024282519023,80.50233194698576L37.11604674180349,80.54122997777088L37.3365955731074,82.00414955375325L37.482854271761575,82.95220064952524L38.16423408215841,87.10509586352981L38.346477063814795,88.16418315627025L38.37781821352641,88.34028515018836L39.026696090888976,91.8446441054664L39.80906405035655,95.71358369473957L40.243197013028464,97.69809050170429L40.372043961842856,98.27130602809235L40.48115759417216,98.74409391136246L41.177627587763475,101.6388146386991L41.51541553465525,102.97266347616718L41.92401126422882,104.51161102141138L42.784151706314084,107.56086301650348L43.026755420748394,108.37595357068268L43.06273970375061,108.4937085184231L43.31811203473409,109.32152933722288L43.34364926783243,109.40392243879501L43.58044906565348,110.15182548525445L43.59670003217062,110.20027121450502L44.634440322621664,113.28629952961214L45.88808631108602,116.6534545217572L46.014611693255105,116.96746771573164L46.120242975616456,117.23940031276584L46.42668977279663,117.98129184537666L46.49401520551046,118.1485533777527L46.504462255414325,118.17366028853219L46.71572482013702,118.6712014641201L46.80742670262655,118.89221300267195L47.05815590031941,119.46790385829179L47.103426449902855,119.57080683064153L47.33674389775594,120.09239406162388L47.3402262477239,120.1005272862426L47.4249634302775,120.2868842155495L47.686139677874245,120.85408822808895L47.76042981052399,121.00932673276778L47.86257874291738,121.22786294208784L47.963566891988116,121.43932678217425L48.57762126967112,122.72791245654692L49.03845224876403,123.64908854923101L49.137118831189476,123.84181061084821L49.16962076422373,123.90970535549134L50.07503175589243,125.59575818079566L50.08663958911895,125.61768252542L50.24682768764496,125.90128453168973L50.33388643684387,126.05475494406012L50.41049813613892,126.18453291949777L50.54166665159861,126.42039643344029L50.6925684835434,126.681720476624L50.72855276654562,126.74643265511197L51.246262128448485,127.61102979392679L51.40296787700653,127.87730449557405L51.40528944365183,127.88154791711425L51.44939920991262,127.94979628021906L51.79647342338562,128.50108746198276L51.91951645558675,128.6892124835981L52.159798603375755,129.0583901575951L52.530088483301796,129.62948397321307L52.690276581827796,129.87878498869955L53.17896636066436,130.590972570529L53.2195937769572,130.6475515243983L53.30549174283345,130.771671604449L53.74891097208659,131.40146608470633L54.32233793347677,132.17871946348546L54.32349871679942,132.1797803188705L54.7367375796636,132.73283959294264L55.144172525914506,133.26538899623716L55.257929291534424,133.41214065783558L55.29855670782725,133.46235447939458L55.51562318916321,133.72933641796521L55.62125447152455,133.86477228878977L56.227183365948996,134.59676250447347L56.349065614827474,134.7353809414532L56.84472009359996,135.30223133553096L56.874900459988915,135.3365323263142L56.95151215928396,135.42882674481345L57.112861041132604,135.614476437197L57.18482960713704,135.69828401261586L57.426272538248696,135.9673876619566L57.84183296775818,136.42426271445098L58.04613083254497,136.64987129300468L58.076311198933915,136.6827578099412L58.24230321407318,136.8609815146294L58.41990306243896,137.04026607470266L58.58589507757822,137.21212464708057L58.750726309394835,137.38504407484353L58.85983994172414,137.49855560104376L58.876090908241274,137.51588290566625L59.67238826758067,138.30091589060237L59.7153372505188,138.34158201369593L60.22259956251781,138.8437202292857L60.28760342858633,138.90171365700172L60.60217570902506,139.1962778355836L60.866834306589766,139.43673838952802L60.99103812211355,139.55237162649834L61.12452820421855,139.6740163773173L61.24641045309702,139.78434533736237L61.39963385168712,139.91872035280187L61.408920118268334,139.92720719588226L61.56214351685842,140.07537333132743L61.732778665288286,140.22460032215764L61.95797062988281,140.4222730422384L61.99047256291708,140.45197699301977L62.3781741926829,140.78048854392324L62.39210359255473,140.7914507162354L62.43389179217021,140.82822703625044L62.49657409159342,140.88126980550288L62.53952307453156,140.9159244147478L62.58247205746968,140.949164550146L62.7252484061559,141.06444416865463L63.103663769340514,141.37173861185713L63.292871450932815,141.52945244576773L63.378769416809085,141.5980544273342L64.25516082541148,142.28195253222904L64.40490187403361,142.39192787381245L64.73920747095744,142.64511869237742L64.95047003568014,142.80849042167495L65.04797583478292,142.87744602170312L65.73515956179301,143.3863029880649L65.76998306147257,143.4089345696126L65.89534766031902,143.49910727734175L65.99169267609915,143.56841649583163L66.40028840567271,143.8573227790266L66.73343321927389,144.09000372681396L67.05264863300323,144.31384421305927L67.18265636514028,144.40437053925012L67.85474990895588,144.84568637943045L68.16235748945873,145.04194462566448L68.30165148817699,145.13282457031698L68.46532193667093,145.23254497651158L68.83096868330637,145.473005530456L69.30224671230316,145.76615523519115L69.54252886009216,145.9104315675578L69.67137580890656,145.98610591835796L69.99175200595856,146.17069475535646L70.22855180377961,146.30966681079786L70.42240261866252,146.42176386315134L70.48392413476307,146.4581865647047L70.5686613173167,146.50875400472535L70.85537479801178,146.6781372478715L71.12351574554444,146.82701062024L71.43460567601522,147.00275899569644L72.12527175299326,147.37370476200186L72.49207928295135,147.56890215285085L72.5129733827591,147.57951070670134L72.75673788051606,147.71141039290907L73.7317958715439,148.216731174654L73.8722506535848,148.28710124852893L73.95582705281576,148.32918184546918L73.98716820252736,148.3450946762449L73.99181133581797,148.347216387015L74.06494068514505,148.38646803626182L74.28316794980367,148.49573614092185L74.37603061561585,148.54312101478737L74.52345009759267,148.61808812866417L74.53157558085124,148.621624313281L74.58265004704793,148.6467312240605L74.6441715631485,148.67643517484186L75.2384926243464,148.9660486949602L75.41028855609895,149.0441983749921L75.88388815174103,149.26273458431217L76.04059390029909,149.33664084280392L76.21587218201955,149.41868032591435L76.98198917497,149.75815404912998L77.00056170813242,149.76558003682533L77.09226359062195,149.80624615991889L78.12303918113707,150.26559654164504L78.51422316087087,150.43922320633135L78.59199564348857,150.47423143403796L78.63726619307201,150.4943876863539L78.797454291598,150.56016072022692L78.8729052075704,150.58986467100829L78.89960322399139,150.6022413171672L79.02264625619252,150.65705217872807L79.14452850507101,150.70832685567208L79.19792453791301,150.728483107988L79.5403556180954,150.8653334526593L80.41094311008453,151.20622164972167L80.50264499257405,151.2408762589666L80.64890369122823,151.29816244975925L81.26295806891123,151.5418055698588L81.32099723504385,151.5644371514065L81.44752261721293,151.61394373604213L81.48234611689249,151.62596676373934L82.20667491022745,151.90567896693057L82.39240024185182,151.973220093112L82.5723216568629,152.0397003639084L82.68027450586955,152.08072010546363L83.34308178310394,152.31658361940615L83.57872079760233,152.40145205021005L83.91650874449412,152.5206214717972L83.9873165271759,152.54537476411502L84.1695595088323,152.60867246875625L84.36921424032846,152.68187149032462L84.62922970460255,152.769568868822L84.66753555425008,152.78159189651922L84.84513540261587,152.8424142719287L84.86254715245565,152.84948664116234L85.28158993193308,152.99411659199066L85.55785636272431,153.0871182474133L85.57062497927348,153.09171528741516L85.73893856105805,153.14546529359097L85.79001302725473,153.16420707206018L86.04190300827027,153.24766102901734L86.70122793553669,153.44639460448317L86.83587880096435,153.48423177988323L86.98678063290913,153.53161665374876L87.03901588242849,153.54611501067777L87.40698419570923,153.65679758918452L87.69021532643636,153.73989792768L87.69950159301759,153.7423732569118L87.88754849128723,153.80001306616612L87.9490700073878,153.81804760771195L88.6118772846222,154.00829434009736L88.80921044947306,154.06204434627318L88.8254614159902,154.06734862319843L88.92644956506093,154.09316277090127L89.13422977981568,154.14974172477056L89.1725356294632,154.16035027862105L89.7355155409495,154.32549010022697L89.94329575570424,154.38808056794485L91.05300461215973,154.69254606345388L91.18765547758738,154.72613981731376L91.37686315917969,154.7714029804092L91.40820430889129,154.7813042973363L91.42793762537639,154.78590133733817L92.00949007002512,154.9365428020151L92.06404688618979,154.95104115894412L92.20450166823069,154.98817109742083L92.44594459934235,155.0514688020621L92.48076809902192,155.05995564514248L93.07160681025188,155.20918263597267L93.07857151018779,155.21059710981942L93.10410874328613,155.2169622421297L93.20857924232483,155.24348362675593L93.41519867375692,155.29475830369995L94.262570499293,155.51223365763497L94.34498611520131,155.53415800225932L94.8139425775528,155.5985165622856L95.34674212265014,155.33436357140843L95.43960478846233,155.25409218060642L95.78435743529002,154.9885247158825L95.82034171829223,154.95422372509927L96.1999178647995,154.47966774952076L96.37403536319732,154.25158384173525L96.60154889443714,154.03764467241706L96.94165840797423,153.49059691219352L97.12506217295329,153.1656215459069L97.35025413754781,152.75648498573975L98.11172799720765,151.24971672050867L98.3044180287679,150.8282035141826L98.53889625994364,150.3101524678171L99.00669193897248,149.32284972279828L99.36537398567201,148.50174765477047L99.41412688522338,148.39035783934034L99.88540491422017,147.31394324197743L100.17443996156057,146.6406536909331L100.74206300633747,145.34287393655666L100.96145105431876,144.8131534809556L101.01368630383809,144.6968130070619L101.50005451602935,143.5832684712223L102.47627329037985,141.39790637802167L102.5888692726771,141.12880272868094L102.64806922213236,140.99336685785636L102.83495533707936,140.58458391615088L103.50937044754028,139.08736334938527L103.52562141405741,139.05235512167866L103.8390329111735,138.36173826601186L104.14547970835369,137.69976450574137L104.2371815908432,137.51128586566435L104.3729932395935,137.22308681939276L105.00794171708425,135.89843206192842L105.1449141491572,135.6038678833465L105.23313368167878,135.42493694173496L105.53377656224569,134.7870092368589L105.62780001138051,134.57837434446597L106.12925840676625,133.56667192559104L106.27551710542042,133.27741202393437L106.3056974718094,133.2208330700651L106.44034833723705,132.95455836841785L106.684112834994,132.5266800297815L106.74331278444926,132.42165534666165L106.7688500175476,132.3767458020279L106.80715586719512,132.31309447892497L106.83617545026144,132.26252703890432L107.137979114151,131.69709111867328L107.1403006807963,131.69107960482467L107.25870057970683,131.46087398626906L107.26218292967478,131.4541552354971L107.44094356136323,131.1037193399693L107.63247280960084,130.7235794936601L107.80659030799866,130.37031465043884L107.96445683987936,130.04958270569242L108.16179000473022,129.64186061937198L108.87567174816132,128.2620413818851L108.93022856432597,128.1559558433802L108.9998755636851,128.02511701255753L109.0265735801061,127.97136700638171L109.33185959396363,127.39390805845346L110.16065888633729,125.87759209475696L110.84087791341145,124.53631726959352L110.93374057922364,124.37542086952779L111.35278335870107,123.58437637074303L111.68941052227021,122.97120195818479L111.93665736999512,122.5044255887633L111.99585731945038,122.40541241949207L112.1630101179123,122.13241896707282L112.21756693407694,122.0457824439605L112.35337858282726,121.81062616694135L112.4880294482549,121.5874929176194L112.49615493151346,121.57653074530722L112.82697817846935,121.00968035122946L113.21235824158987,120.35053553865244L113.64300885429383,119.5860124244939L113.91463215179444,119.06654690428164L113.99936933434803,118.90918668883273L114.65753347829184,117.77583951913887L114.73646674423217,117.6506585837031L114.8258470600764,117.49824902671776L114.84209802659352,117.4724348790149L114.88736857617695,117.38685921128763L114.92451364250182,117.33487729742023L115.40391715475718,116.5576239186411L115.61169736951192,116.23264855235448L116.05047346547444,115.51515669359978L116.11547733154298,115.40412049663132L116.19557138080597,115.28778002273762L116.27102229677836,115.16967145653553L116.53219854437509,114.75487700098142L116.55077107753755,114.72764837943183L116.71792387599946,114.46243453316961L116.74810424238841,114.41752498853589L116.79105322532654,114.35599537620305L117.23563323790232,113.66502490207458L117.25768812103271,113.62612687128944L117.37608801994324,113.50554297585555L117.68253481712341,113.02709719719853L117.81370333258312,112.8287172401944L117.85433074887592,112.77355276017185L119.25539621931712,110.63380744852832L119.2948628522873,110.57581402081232L119.38656473477681,110.43754920229428L119.87177216364543,109.68257378660118L120.44635990835825,108.77872499853956L120.95130065371195,108.02763938592497L121.19738671811422,107.65138934269432L121.42025711606344,107.30024621024315L121.51892369848888,107.14253237633254L121.67214709707896,106.90242544084983L121.9867193775177,106.44272144066198L122.07958204332986,106.30976089906919L122.47308758970897,105.73371642498766L122.50907187271117,105.66582168034454L122.5473777223587,105.6064137787818L122.67970702114106,105.41121638793281L122.75283637046813,105.32104368020366L123.06044395097096,104.91332159388323L123.94960397612253,103.68272934722656L124.04827055854797,103.54870795024871L124.21426257368724,103.3209776609249L124.66116415290833,102.68693975912736L124.7273288022995,102.5907555375496L124.97805799999237,102.26613378972465L125.16726568158467,102.02425876193351L125.52478694496155,101.53449719250263L126.14812758922577,100.68156946292335L126.31179803771974,100.45136384436775L126.83066818294526,99.7678193579346L126.92933476537068,99.63698052711192L126.94790729853312,99.6083374317156L127.39132652778625,99.03971894532941L127.65598512535095,98.67230936364082L127.7279536913554,98.58001494514157L127.96243192253112,98.2702451727073L128.20967877025606,97.99300829874787L128.95722323004404,97.0569802306731L129.1963445945104,96.76948842132487L129.5724383910497,96.27866599650892L129.59565405750274,96.25073013803598L129.5991364074707,96.24471862418736L129.69780298989613,96.1174159779815L129.7012853398641,96.11175808259458L130.1481869190852,95.53535999005136L130.85510396258036,94.63469376814488L130.92359017861685,94.5515934296494L131.31593494167328,94.08128087561107L131.42853092397053,93.93488283247433L131.71640518798827,93.57277752771098L132.21554201672873,92.9564205489976L132.95263942661285,92.07308163171359L133.2405136906306,91.73466876388301L133.55740753771462,91.3594795760374L133.70482701969146,91.17736606827067L133.86385433489482,91.00621473281613L133.92885820096333,90.938319988173L133.96600326728822,90.89234958815422L134.04841888319652,90.79333641888299L134.48951654580435,90.34424097254565L134.5928262615204,90.23744819711739L134.6195242779414,90.20986595710612L135.00142199109393,89.79825406770716L135.27304528859455,89.4884842952729L135.34849620456694,89.3997260613905L135.99389173196155,88.67410097801707L136.07514656454723,88.5740269533608L136.29569539585114,88.32649403018273L136.50463639392854,88.0803755808514L136.73679305845897,87.8063212730471L136.82965572427113,87.69634593146371L136.9573418897629,87.54040018986153L137.21967892068227,87.26174884205537L137.44254931863148,87.01280144503056L137.52380415121715,86.92050702653131L137.5806825340271,86.86746425727887L138.19821926167805,86.19452832469622L138.72173254019418,85.61105786291935L138.84477557239532,85.47668284747982L138.8470971390406,85.473146662863L139.16050863615672,85.17363182581754L139.9521628622055,84.40062186857861L139.9788608786265,84.37410048395239L140.16690777689615,84.18420737002864L140.29111159241995,84.04841788074239L140.3595978084564,83.97734056994412L140.4524604742686,83.89035042837011L140.5395192234675,83.80795732679799L140.63586423924764,83.70293264367815L140.72756612173714,83.6085165144088L140.84480523732503,83.48121386820294L140.95624043629965,83.3553256958438L141.03517370223997,83.27646877888851L141.52734583104453,82.7478091786725L141.55056149749757,82.72765292635657L141.97308662694297,82.31745551080435L142.2075648581187,82.07628771993657L142.24470992444355,82.03597521530472L142.3073922238668,81.97479922143357L142.41186272290548,81.86058045830997L142.63821547082267,81.64239786745159L142.67419975382487,81.59890279666459L142.73804283657074,81.54161660587195L142.77867025286358,81.50165771970178L142.79027808609007,81.49387811354475L143.0166308340073,81.28170703653498L143.37763444735208,80.91429745484639L143.8767712760925,80.39271022386404L144.25866898924508,79.99099965139222L144.3259944219589,79.92522661751919L144.75548425134022,79.49169038349588L144.89245668341317,79.36332688190497L144.9621036827723,79.29826108495531L144.97835464928946,79.28517720187304L144.99576639912922,79.26997160802067L145.0108565823237,79.25335154032157L145.20702896385194,79.07477421717168L145.60285607687632,78.69640246317093L145.8071539416631,78.50332678309204L145.99752240657807,78.32368860455709L146.0137733730952,78.30742215531968L146.5036239352544,77.84064578589819L146.56978858464558,77.76532505355972L146.7125649333318,77.62847470888842L146.9168627981186,77.42655856726745L147.03294113038382,77.33567862261494L147.5402034423828,76.83813744702702L148.3074812186559,76.14964230213032L148.3922184012095,76.06866367440492L149.10261779467262,75.41340866490641L149.261645109876,75.26453529253789L150.0231189695358,74.57639376610287L150.02427975285846,74.57604014764118L150.09160518557232,74.51203520607658L150.32376185010276,74.30764373522382L150.6963732966741,73.98302198739887L150.97612207743327,73.73584268268249L151.12470234273275,73.60288214108971L151.16300819238026,73.565752202613L151.3882001569748,73.3769199440743L151.58321175518037,73.20117156861787L151.64705483792622,73.14918965475047L151.75849003690084,73.04557944547737L152.2889680153529,72.59224057759982L152.33656013158162,72.54874550681282L152.438709063975,72.45220766677338L152.69640296160378,72.22235566667946L152.8740028099696,72.05933755584363L153.1258927909851,71.82771746344129L153.9953194996516,71.09820257698937L154.04059004923505,71.05541474312572L154.27158593044282,70.87330123535901L154.7591149259567,70.58969922908928L155.06904407310486,70.31599853974667L155.245483138148,70.19152484123428L155.52291035226187,69.99562021346192L155.88507474892936,70.23749524125306L156.07892556381228,70.30079294589432L156.81834454034168,70.10135213350513L156.87986605644227,70.04654127194426L157.29426570262908,69.71590801027071L157.3081951025009,69.70742116719032L157.594908583196,69.50974844710954L157.7260770986557,69.41391784399347L157.9129632136027,69.28272539470909L158.39352750918073,68.98957568997393L158.64889984016418,68.82655757913808L158.69300960642497,68.79402468066326L158.7765860056559,68.73426316063883L158.82185655523938,68.7038519729341L159.04704851983388,68.63560360982929L159.063299486351,68.63065295136573L159.08303280283607,68.64515130829473L159.20839740168253,68.55214965287212L159.7655733965556,68.15680421271058L159.98612222785948,68.00828445880374L160.12077309328717,67.91422194799607L160.37614542427065,67.72680416330411L160.40980814062752,67.70028277867789L160.9449292523702,67.32332549852386L161.2432505662918,67.12989619998329L161.27691328264874,67.10973994766736L161.34772106533052,67.05351461225978L161.70059919541677,66.77380240906855L161.89561079362235,66.62846522131686L162.48644950485232,66.1984651719104L163.89447967522938,65.20232196534953L163.89564045855204,65.20126110996448L164.0569893404007,65.08704234684087L164.09181284008028,65.06830056837168L164.139404956309,65.03824299912863L164.64086335169475,64.68285644513726L164.68961625124615,64.65032354666243L165.07035318107603,64.38546331886191L165.55439982662202,64.01770011871163L165.56832922649383,64.00638432793778L165.6902114753723,63.91797971251704L166.07210918852488,63.64286454932771L166.70009296607972,63.18280693067818L166.72795176582335,63.16194344143889L166.7662576154709,63.13259310911921L167.2735199274699,62.76907333050916L167.38263355979922,62.69445983509404L167.77149597288766,62.42641704113838L168.03615457045237,62.23758478259968L168.1034800031662,62.18206668411544L168.36465625076295,62.00596469019733L168.65136973145803,61.845775527054954L169.99091368579863,61.20572611140881L170.2729840332031,61.08584945289829L170.56085829722085,60.93591522514474L170.62237981332143,60.89878528666803L170.74890519549052,60.82381817279122L170.90328937740327,60.73824250506395L171.11687350877128,60.59538064654406L171.26545377407075,60.514755637280345L171.3757281897227,60.45393326187086L171.54752412147522,60.356688184908066L171.58466918780007,60.33299574797529L171.65547697048186,60.293036861805135L171.6763710702896,60.2813674525696L171.9271002679825,60.134969409432856L172.1499706659317,59.98326708937087L172.27069213148752,59.90052036933706L172.7860799267451,59.57660585843546L173.12735022360485,59.337913396799465L173.327004955101,59.21591502751885L173.4291538874944,59.143776861335525L173.44308328736625,59.135290018255134L173.45236955394745,59.13210745209999L173.540589086469,59.08436895977279L173.59050276934306,59.04900711360449L174.0316004319509,58.793340965807715L174.20107479705808,58.67947582114583L174.93468985697427,58.21446754403273L175.19354453792573,58.17910569786443L175.8493871152242,57.774919796160816L175.86215573177336,57.767493808465474L176.0687751632055,57.637008596104465L176.13145746262867,57.59422076224085L176.2962886944453,57.48707436835092L177.22491535256705,56.924821014275025L177.50350335000357,56.76251014036255L177.84013051357272,56.55882590643317L177.97013824570973,56.45804464485353L178.2139027434667,56.32048706325884L178.29747914269765,56.26178639861949L178.59928280658724,56.13660546318373L178.7699179550171,56.017436041596554L179.19824700107574,55.79005937073441L179.21333718427024,55.785815949194216L179.31200376669565,55.87669589384676L179.7797994457245,55.658513302988354L179.90284247792562,55.5980445460406L180.63645753784178,55.30029780130353L180.9347788517634,55.14010863816115L181.32596283149718,54.93889973346357L181.4083784474055,54.90353788729526L181.49891954657238,54.84801978881106L181.86456629320782,54.647871739498484L181.87037020982106,54.64468917334334L181.88778195966086,54.63266614564614L182.27084045613606,54.427567437870024L182.30798552246094,54.40352138247559L182.53665983702342,54.27091445934448L182.89998501701356,54.04990292079263L182.92203990014394,54.03964798540383L183.04160058237713,53.971753240760705L183.36545912939707,53.805198945308035L183.92031355762484,53.50426963441582L183.95281549065908,53.490478514410185L184.05264285640718,53.444508114391425L184.49490130233764,53.22950808968817L184.86519118226371,53.037139646532665L185.03350476404827,52.954392926498855L185.08690079689026,52.929639634181044L185.69747282460528,52.59511656942895L185.7439041575114,52.57142413249622L185.77872765719096,52.55232873556534L185.7903354904175,52.540305707868114L185.87855502293905,52.51732050785873L185.91802165590923,52.502114914006356L186.05499408798218,52.43386655090153L186.59707989966077,52.168652704639314L186.87450711377463,52.032155978429714L187.14496962795258,51.90697504299395L187.87742390454608,51.55264934438763L187.9192121041616,51.52506710437636L188.03180808645885,51.46990262435382L188.2755725842158,51.34825787353489L188.27673336753844,51.34719701814984L188.62380758101145,51.1633154180747L188.91980732828776,50.99039599031174L189.0834777767817,50.89350453181059L189.42474807364147,50.70113608865509L189.60583027197518,50.60990252554089L189.77182228711445,50.49957356549581L189.87164965286254,50.44334823008822L190.09916318410237,50.33089755927304L190.12818276716868,50.31286301772721L190.27444146582286,50.23754228538874L190.35569629840853,50.20041234691203L190.63196272919973,50.077706740708024L190.70044894523622,50.05083173762014L190.8385821606318,50.002032389907896L190.9825192926407,49.94333172526851L192.25357703094483,49.34324119579256L192.35572596333822,49.287723097308316L192.40099651292164,49.26579875268399L192.44858862915038,49.24528888190636L193.05335674025218,48.96875924487031L193.49909753615063,48.7445651401633L194.27682236232758,48.33896476461297L194.4219202776591,48.25657166304083L195.23214703687034,47.86617688134285L195.3470645858129,47.813841349013785L195.5049311176936,47.74842193360243L195.64654668305715,47.68229528126773L195.71387211577098,47.65612751510318L195.793966165034,47.61687586585637L195.7986092983246,47.614754155086274L195.91584841391247,47.56595480737403L196.01567577966054,47.5231669735104L196.68660854015351,47.216933385692954L196.8177770556132,47.1539892995134L196.96635732091266,47.082911988715125L197.20199633541105,46.96621789635975L197.26119628486634,46.93616032711671L197.34129033412933,46.889836308636234L197.34593346741994,46.88806821632781L197.95766627845762,46.598808314671174L197.97972116158803,46.588199760820686L198.0725838274002,46.54329021618693L198.21419939276376,46.47398099769708L198.33608164164224,46.42447441306146L198.54386185639697,46.32970466533044L198.56011282291414,46.320864203788375L198.6019010225296,46.30000071454907L198.64949313875834,46.27842998838642L198.75860677108764,46.22432636374893L198.8154851538976,46.197451360661006L198.92808113619486,46.14653030217866L199.02442615197498,46.10126713908326L199.12541430104574,46.05211417290931L199.14630840085348,46.040444763673776L199.3030141494115,45.97431811133907L200.26298195724488,45.51496772961292L200.54505230464935,45.37882462186499L201.46207112954457,44.941752203224866L201.5398436121623,44.90002522474626L201.61065139484407,44.87173574781164L202.02853339099883,44.65850381541682L202.58222703590394,44.37773075684055L202.7482190510432,44.29392318142169L203.3576302954356,44.0053705166884L203.44817139460244,43.962582682824774L203.81613970788322,43.798503716603875L203.9740062397639,43.72601193195888L203.99141798960366,43.72000041811026L204.65770761680602,43.41235235644609L204.75405263258617,43.364613864118894L205.05585629647572,43.22422733483077L205.2578325946172,43.127335876329624L205.3425697771708,43.089145082467866L205.51204414227803,43.017006916284544L205.53409902540844,43.0117026393593L205.61071072470347,42.981291451654585L205.79759683965048,42.8957157839273L205.9032281220118,42.841258540828136L205.95894572149913,42.818273340818735L206.182976902771,42.718906553085816L206.39888260078428,42.614589106889355L206.53585503285726,42.552352257633146L206.6147882987976,42.512746989924665L206.6681843316396,42.48587198683677L207.4308189746221,42.179992017481L207.61190117295584,42.10679299591263L207.76280300490063,42.0392518697312L207.9473675532023,41.9685281773946L208.25497513370513,41.84087191272707L208.38730443248747,41.778281445009185L208.6856257464091,41.654868601881816L209.17663709189097,41.44340476179542L209.2346762580236,41.423602127941166L209.43433098951976,41.3461596848326L209.47727997245786,41.31610211558956L209.76399345315298,41.192335654000516L210.0495461505254,41.08023860164704L210.2875067316691,40.98087181391412L210.32000866470338,40.96283727236829L210.5254673128128,40.87337180156251L211.20568633988697,40.58057571528903L211.232384356308,40.566784595283394L211.4285567378362,40.47979445370939L211.42971752115886,40.47979445370939L211.50284687048594,40.4486760290813L211.59803110294342,40.405180958294295L211.74777215156553,40.33870068749789L211.81393680095672,40.30899673671652L211.94046218312582,40.24852797976874L212.02287779903412,40.21033718590698L212.17958354759216,40.146332244342375L212.57308909397125,39.970230250424265L212.7681006921768,39.8903124780839L213.53421768512726,39.57665290257114L213.67002933387755,39.5211348040869L214.3072993780136,39.261932471673305L214.5359736925761,39.16150482855534L214.5824050254822,39.14417752393288L214.72518137416841,39.088305806986966L215.2835181523641,38.85032058227435L215.4390631175995,38.78914458840319L215.67470213209788,38.689070563746924L215.90337644666036,38.59960509294115L216.25277222677866,38.46452284057824L216.27947024319968,38.454267905189454L216.50234064114886,38.37717908054256L216.91674028733573,38.227244852789L217.00612060317994,38.19400471739078L217.24059883435567,38.11444056351212L217.3392654167811,38.07837148042046L217.46811236559552,38.030279369631586L217.52731231505075,38.00552607731379L217.8151865790685,37.87221191725931L218.27137442487083,37.689744791030904L218.4373664400101,37.62609346792797L218.67997015444436,37.52036154788476L218.86569548606872,37.44822338170144L219.06418943424225,37.39411975706395L219.23366379934947,37.33329738165449L219.24643241589862,37.327993104729245L219.39617346452076,37.30323981241145L219.41938913097383,37.29050954779086L219.76414177780154,37.15754900619805L220.03228272533417,37.05570688923336L220.3352471725464,36.94643878457333L220.4025726052602,36.91602759686862L220.5070431042989,36.87677594762181L220.76821935189565,36.775641067580466L221.12457983194986,36.63242559059887L221.9568614742915,36.31876601508611L222.43046106993359,36.133469941164236L222.475731619517,36.11331368884831L222.48733945274353,36.10765579346139L223.13969968007407,35.86754885797865L223.35444459476471,35.776315294864446L223.9998401221593,35.53019684553311L224.14029490420026,35.480336642435816L224.23431835333508,35.44108499318901L224.25173010317485,35.435780716263764L224.374773135376,35.38698136855152L224.6777375825882,35.274177079274665L224.89712563056946,35.18824779308571L225.67368967342378,34.89757341758232L225.94415218760173,34.80174281446625L226.26336760133108,34.694242802114616L226.4815948659897,34.61184970054251L226.55124186534883,34.58249936822281L226.670802547582,34.544308574361054L226.79268479646046,34.50045988511238L226.9935003112793,34.41912763892529L227.60871547228496,34.1988233372968L227.84319370346068,34.11501576187794L227.86060545330048,34.10617530033588L227.94186028588612,34.079653915709656L228.19142870025635,33.98523778644031L228.77414192822775,33.7865042109745L229.47061192181906,33.572565041656304L229.57740398750306,33.535435103179594L229.72366268615724,33.489818321622494L230.0591290664037,33.38302554619423L230.60353644472758,33.20338736765933L230.6105011446635,33.20091203842753L230.64996777763366,33.189242629191995L230.80086960957846,33.13832157070965L231.19089280598956,33.01137254296549L231.2245555223465,32.99687418603645L231.52868075288137,32.89962910907366L231.58555913569134,32.88336265983622L231.78637465051014,32.81228534903795L232.11835868078867,32.70690704745647L232.52347206039428,32.57288565047861L232.55829556007387,32.560155385858025L232.85893844064077,32.448765570427895L233.375487019221,32.27655337958828L233.3801301525116,32.27549252420323L233.44397323525746,32.25427541650225L233.62853778355915,32.19380665955447L233.66336128323874,32.18107639493388L233.78408274879456,32.207951398021805L233.856051314799,32.27230995804808L234.0568668296178,32.40668497348764L234.58038010813394,32.74509784131823L235.0621051870346,33.05451399529079L235.44864603347776,33.302046918468875L235.511328332901,33.34200580463903L235.57517141564688,33.38302554619423L235.58097533226012,33.38656173081108L235.90019074598948,33.59024596474046L235.95474756215413,33.62490057398537L235.95706912879945,33.62631504783212L236.20431597652436,33.78332164481935L236.3343237086614,33.86571474639146L236.58040977306368,34.02166048799364L236.70925672187803,34.10299273418073L236.72086455510458,34.11041872187607L236.97391531944274,34.2695470296334L237.66574217974346,34.70449773750343L237.67735001296995,34.7115701067371L237.75860484555562,34.762491165219444L238.02906735973357,34.93116717144221L238.67562367045085,35.3335849808374L239.1283291662852,35.61400442095197L239.39182698052724,35.776315294864446L239.40691716372172,35.78550937486821L239.65068166147867,35.935797221083476L239.74586589393616,35.994497885722836L239.92114417565662,36.101997898074444L239.9536461086909,36.1218005319287L240.1962498231252,36.27032028583554L240.32277520529428,36.347762728944105L240.38777907136281,36.38772161511429L240.44581823749542,36.42308346128257L240.4585868540446,36.43086306743959L240.97977856591544,36.748058827569196L241.0656765317917,36.80039435989829L241.37792724558514,36.98922661843699L241.43132327842713,37.021405898450126L241.52534672756195,37.07798485231939L241.88054642429353,37.29227764009926L242.87301616516115,37.88847836649671L242.89739261493685,37.90297672342572L242.9055180981954,37.907927381889294L242.93221611461638,37.92384021266503L242.97864744752246,37.9514224526763L243.27580797812146,38.128585301979456L243.44528234322868,38.2293665635591L243.68788605766295,38.37364289592574L244.02335243790944,38.571669234468175L244.1580033033371,38.65158700680854L244.2787247688929,38.72337155453016L246.33679359995523,39.92425985040546L247.63454935468036,40.67145565994156L247.83536486949922,40.78602804152683L248.0977019004186,40.935962269280395L248.13949010003407,40.95965470621314L248.84292479356128,41.35853633099151L248.9497168592453,41.41865146947762L249.1296382742564,41.52013996798061L249.51966147066753,41.74079788807077L249.89691605052948,41.952968965080544L249.91432780036925,41.96251666354598L250.03388848260244,42.02935055280406L250.1650569980621,42.102903192834134L250.28810003026325,42.17185879286231L250.6247271938324,42.35963019601596L251.30610700422923,42.73764833155502L251.57308716843923,42.885460848538486L251.63112633457183,42.91764012855165L251.89694571545917,43.064038171688395L252.0397220641454,43.14254147018201L252.15115726312004,43.20371746405314L252.7338704910914,43.52268131649117L252.9532585390727,43.64291159346337L253.2852425693512,43.823610627383374L253.5278462837855,43.95586393205278L254.03975172907514,44.233454424473905L254.04439486236575,44.235929753705676L254.5133513247172,44.48947419073235L254.54585325775145,44.50715511381651L254.98114700374603,44.741604153912306L254.98462935371398,44.74337224622073L255.1274057024002,44.82010745240592L255.26669970111848,44.89436732935934L255.42920936628977,44.98171108939502L255.61841704788208,45.08284596943636L255.68226013062795,45.1171469602196L256.42748302377066,45.51284601884282L256.9997492018382,45.81660427742847L257.2400313496272,45.94319968671098L257.4454899977366,46.051406935985966L257.6021957462947,46.13415365601978L258.09320709177655,46.39123427766327L258.23134030717216,46.46301882538492L258.52269692115783,46.61507476390858L258.8198574517568,46.76925241320234L259.1239826822917,46.926966247112944L259.42926869614917,47.08468008102355L260.167526889356,47.46446630887104L260.27315817171734,47.51856993350853L260.89069489936827,47.83399760132971L261.07525944766996,47.92806011213739L261.5175178936005,48.15260783530604L261.67886677544914,48.234647318416506L261.83789409065247,48.31562594614189L262.4658778682073,48.632114469348124L262.6411561499278,48.72016546630718" fill="none"></path></g></g></g></g></g></g><g transform="translate(51, 177)" clip-path="url(#clip_1)"><clipPath id="clip_1"><rect width="278" height="22"></rect></clipPath><g><g><line x1="0" y1="0" x2="0" y2="5" style="visibility: inherit;" fill="rgb(0, 0, 0)" stroke="rgb(204, 204, 204)" stroke-width="1px"></line><line x1="23.215666453043617" y1="0" x2="23.215666453043617" y2="5" style="visibility: inherit;" fill="rgb(0, 0, 0)" stroke="rgb(204, 204, 204)" stroke-width="1px"></line><line x1="46.431332906087235" y1="0" x2="46.431332906087235" y2="5" style="visibility: inherit;" fill="rgb(0, 0, 0)" stroke="rgb(204, 204, 204)" stroke-width="1px"></line><line x1="69.64699935913086" y1="0" x2="69.64699935913086" y2="5" style="visibility: inherit;" fill="rgb(0, 0, 0)" stroke="rgb(204, 204, 204)" stroke-width="1px"></line><line x1="92.86266581217447" y1="0" x2="92.86266581217447" y2="5" style="visibility: inherit;" fill="rgb(0, 0, 0)" stroke="rgb(204, 204, 204)" stroke-width="1px"></line><line x1="116.07833226521811" y1="0" x2="116.07833226521811" y2="5" style="visibility: inherit;" fill="rgb(0, 0, 0)" stroke="rgb(204, 204, 204)" stroke-width="1px"></line><line x1="139.29399871826172" y1="0" x2="139.29399871826172" y2="5" style="visibility: inherit;" fill="rgb(0, 0, 0)" stroke="rgb(204, 204, 204)" stroke-width="1px"></line><line x1="162.50966517130536" y1="0" x2="162.50966517130536" y2="5" style="visibility: inherit;" fill="rgb(0, 0, 0)" stroke="rgb(204, 204, 204)" stroke-width="1px"></line><line x1="185.72533162434894" y1="0" x2="185.72533162434894" y2="5" style="visibility: inherit;" fill="rgb(0, 0, 0)" stroke="rgb(204, 204, 204)" stroke-width="1px"></line><line x1="208.94099807739258" y1="0" x2="208.94099807739258" y2="5" style="visibility: inherit;" fill="rgb(0, 0, 0)" stroke="rgb(204, 204, 204)" stroke-width="1px"></line><line x1="232.15666453043622" y1="0" x2="232.15666453043622" y2="5" style="visibility: inherit;" fill="rgb(0, 0, 0)" stroke="rgb(204, 204, 204)" stroke-width="1px"></line><line x1="255.3723309834798" y1="0" x2="255.3723309834798" y2="5" style="visibility: inherit;" fill="rgb(0, 0, 0)" stroke="rgb(204, 204, 204)" stroke-width="1px"></line><line x1="278.58799743652344" y1="0" x2="278.58799743652344" y2="5" style="visibility: inherit;" fill="rgb(0, 0, 0)" stroke="rgb(204, 204, 204)" stroke-width="1px"></line></g><g transform="translate(0, 8)"><text style="text-anchor: middle; visibility: hidden; font-family: &quot;Helvetica Neue&quot;, sans-serif; font-size: 12px; font-weight: 200;" x="0" y="0" dx="0em" dy="0.95em" fill="rgb(50, 49, 63)" stroke="none" stroke-width="1px">-20k</text><text style="text-anchor: middle; visibility: inherit; font-family: &quot;Helvetica Neue&quot;, sans-serif; font-size: 12px; font-weight: 200;" x="23.215666453043617" y="0" dx="0em" dy="0.95em" fill="rgb(50, 49, 63)" stroke="none" stroke-width="1px">0</text><text style="text-anchor: middle; visibility: hidden; font-family: &quot;Helvetica Neue&quot;, sans-serif; font-size: 12px; font-weight: 200;" x="46.431332906087235" y="0" dx="0em" dy="0.95em" fill="rgb(50, 49, 63)" stroke="none" stroke-width="1px">20k</text><text style="text-anchor: middle; visibility: inherit; font-family: &quot;Helvetica Neue&quot;, sans-serif; font-size: 12px; font-weight: 200;" x="69.64699935913086" y="0" dx="0em" dy="0.95em" fill="rgb(50, 49, 63)" stroke="none" stroke-width="1px">40k</text><text style="text-anchor: middle; visibility: hidden; font-family: &quot;Helvetica Neue&quot;, sans-serif; font-size: 12px; font-weight: 200;" x="92.86266581217447" y="0" dx="0em" dy="0.95em" fill="rgb(50, 49, 63)" stroke="none" stroke-width="1px">60k</text><text style="text-anchor: middle; visibility: inherit; font-family: &quot;Helvetica Neue&quot;, sans-serif; font-size: 12px; font-weight: 200;" x="116.07833226521811" y="0" dx="0em" dy="0.95em" fill="rgb(50, 49, 63)" stroke="none" stroke-width="1px">80k</text><text style="text-anchor: middle; visibility: hidden; font-family: &quot;Helvetica Neue&quot;, sans-serif; font-size: 12px; font-weight: 200;" x="139.29399871826172" y="0" dx="0em" dy="0.95em" fill="rgb(50, 49, 63)" stroke="none" stroke-width="1px">100k</text><text style="text-anchor: middle; visibility: inherit; font-family: &quot;Helvetica Neue&quot;, sans-serif; font-size: 12px; font-weight: 200;" x="162.50966517130536" y="0" dx="0em" dy="0.95em" fill="rgb(50, 49, 63)" stroke="none" stroke-width="1px">120k</text><text style="text-anchor: middle; visibility: hidden; font-family: &quot;Helvetica Neue&quot;, sans-serif; font-size: 12px; font-weight: 200;" x="185.72533162434894" y="0" dx="0em" dy="0.95em" fill="rgb(50, 49, 63)" stroke="none" stroke-width="1px">140k</text><text style="text-anchor: middle; visibility: inherit; font-family: &quot;Helvetica Neue&quot;, sans-serif; font-size: 12px; font-weight: 200;" x="208.94099807739258" y="0" dx="0em" dy="0.95em" fill="rgb(50, 49, 63)" stroke="none" stroke-width="1px">160k</text><text style="text-anchor: middle; visibility: hidden; font-family: &quot;Helvetica Neue&quot;, sans-serif; font-size: 12px; font-weight: 200;" x="232.15666453043622" y="0" dx="0em" dy="0.95em" fill="rgb(50, 49, 63)" stroke="none" stroke-width="1px">180k</text><text style="text-anchor: middle; visibility: inherit; font-family: &quot;Helvetica Neue&quot;, sans-serif; font-size: 12px; font-weight: 200;" x="255.3723309834798" y="0" dx="0em" dy="0.95em" fill="rgb(50, 49, 63)" stroke="none" stroke-width="1px">200k</text><text style="text-anchor: middle; visibility: hidden; font-family: &quot;Helvetica Neue&quot;, sans-serif; font-size: 12px; font-weight: 200;" x="278.58799743652344" y="0" dx="0em" dy="0.95em" fill="rgb(50, 49, 63)" stroke="none" stroke-width="1px">220k</text></g><line x1="0" y1="0" x2="278.58799743652344" y2="0" fill="rgb(0, 0, 0)" stroke="rgb(204, 204, 204)" stroke-width="1px"></line></g></g></g></g></svg>