<svg viewBox="0 0 330 200" xmlns="http://www.w3.org/2000/svg"><g><g><g><g><g><line x1="51.41200256347656" y1="177.98199939727783" x2="46.41200256347656" y2="177.98199939727783" style="visibility: inherit;" fill="rgb(0, 0, 0)" stroke="rgb(204, 204, 204)" stroke-width="1px"></line><line x1="51.41200256347656" y1="163.15016611417136" x2="46.41200256347656" y2="163.15016611417136" style="visibility: inherit;" fill="rgb(0, 0, 0)" stroke="rgb(204, 204, 204)" stroke-width="1px"></line><line x1="51.41200256347656" y1="148.31833283106485" x2="46.41200256347656" y2="148.31833283106485" style="visibility: inherit;" fill="rgb(0, 0, 0)" stroke="rgb(204, 204, 204)" stroke-width="1px"></line><line x1="51.41200256347656" y1="133.48649954795837" x2="46.41200256347656" y2="133.48649954795837" style="visibility: inherit;" fill="rgb(0, 0, 0)" stroke="rgb(204, 204, 204)" stroke-width="1px"></line><line x1="51.41200256347656" y1="118.6546662648519" x2="46.41200256347656" y2="118.6546662648519" style="visibility: inherit;" fill="rgb(0, 0, 0)" stroke="rgb(204, 204, 204)" stroke-width="1px"></line><line x1="51.41200256347656" y1="103.8228329817454" x2="46.41200256347656" y2="103.8228329817454" style="visibility: inherit;" fill="rgb(0, 0, 0)" stroke="rgb(204, 204, 204)" stroke-width="1px"></line><line x1="51.41200256347656" y1="88.99099969863893" x2="46.41200256347656" y2="88.99099969863893" style="visibility: inherit;" fill="rgb(0, 0, 0)" stroke="rgb(204, 204, 204)" stroke-width="1px"></line><line x1="51.41200256347656" y1="74.15916641553244" x2="46.41200256347656" y2="74.15916641553244" style="visibility: inherit;" fill="rgb(0, 0, 0)" stroke="rgb(204, 204, 204)" stroke-width="1px"></line><line x1="51.41200256347656" y1="59.32733313242598" x2="46.41200256347656" y2="59.32733313242598" style="visibility: inherit;" fill="rgb(0, 0, 0)" stroke="rgb(204, 204, 204)" stroke-width="1px"></line><line x1="51.41200256347656" y1="44.495499849319486" x2="46.41200256347656" y2="44.495499849319486" style="visibility: inherit;" fill="rgb(0, 0, 0)" stroke="rgb(204, 204, 204)" stroke-width="1px"></line><line x1="51.41200256347656" y1="29.66366656621298" x2="46.41200256347656" y2="29.66366656621298" style="visibility: inherit;" fill="rgb(0, 0, 0)" stroke="rgb(204, 204, 204)" stroke-width="1px"></line><line x1="51.41200256347656" y1="14.831833283106505" x2="46.41200256347656" y2="14.831833283106505" style="visibility: inherit;" fill="rgb(0, 0, 0)" stroke="rgb(204, 204, 204)" stroke-width="1px"></line><line x1="51.41200256347656" y1="0" x2="46.41200256347656" y2="0" style="visibility: inherit;" fill="rgb(0, 0, 0)" stroke="rgb(204, 204, 204)" stroke-width="1px"></line></g><g transform="translate(41.41200256347656, 0)"><text style="text-anchor: end; visibility: hidden; font-family: &quot;Helvetica Neue&quot;, sans-serif; font-size: 12px; font-weight: 200;" x="0" y="177.98199939727783" dx="0em" dy="0.3em" fill="rgb(50, 49, 63)" stroke="none" stroke-width="1px">-0.2</text><text style="text-anchor: end; visibility: inherit; font-family: &quot;Helvetica Neue&quot;, sans-serif; font-size: 12px; font-weight: 200;" x="0" y="163.15016611417136" dx="0em" dy="0.3em" fill="rgb(50, 49, 63)" stroke="none" stroke-width="1px">0</text><text style="text-anchor: end; visibility: hidden; font-family: &quot;Helvetica Neue&quot;, sans-serif; font-size: 12px; font-weight: 200;" x="0" y="148.31833283106485" dx="0em" dy="0.3em" fill="rgb(50, 49, 63)" stroke="none" stroke-width="1px">0.2</text><text style="text-anchor: end; visibility: inherit; font-family: &quot;Helvetica Neue&quot;, sans-serif; font-size: 12px; font-weight: 200;" x="0" y="133.48649954795837" dx="0em" dy="0.3em" fill="rgb(50, 49, 63)" stroke="none" stroke-width="1px">0.4</text><text style="text-anchor: end; visibility: hidden; font-family: &quot;Helvetica Neue&quot;, sans-serif; font-size: 12px; font-weight: 200;" x="0" y="118.6546662648519" dx="0em" dy="0.3em" fill="rgb(50, 49, 63)" stroke="none" stroke-width="1px">0.6</text><text style="text-anchor: end; visibility: inherit; font-family: &quot;Helvetica Neue&quot;, sans-serif; font-size: 12px; font-weight: 200;" x="0" y="103.8228329817454" dx="0em" dy="0.3em" fill="rgb(50, 49, 63)" stroke="none" stroke-width="1px">0.8</text><text style="text-anchor: end; visibility: hidden; font-family: &quot;Helvetica Neue&quot;, sans-serif; font-size: 12px; font-weight: 200;" x="0" y="88.99099969863893" dx="0em" dy="0.3em" fill="rgb(50, 49, 63)" stroke="none" stroke-width="1px">1</text><text style="text-anchor: end; visibility: inherit; font-family: &quot;Helvetica Neue&quot;, sans-serif; font-size: 12px; font-weight: 200;" x="0" y="74.15916641553244" dx="0em" dy="0.3em" fill="rgb(50, 49, 63)" stroke="none" stroke-width="1px">1.2</text><text style="text-anchor: end; visibility: hidden; font-family: &quot;Helvetica Neue&quot;, sans-serif; font-size: 12px; font-weight: 200;" x="0" y="59.32733313242598" dx="0em" dy="0.3em" fill="rgb(50, 49, 63)" stroke="none" stroke-width="1px">1.4</text><text style="text-anchor: end; visibility: inherit; font-family: &quot;Helvetica Neue&quot;, sans-serif; font-size: 12px; font-weight: 200;" x="0" y="44.495499849319486" dx="0em" dy="0.3em" fill="rgb(50, 49, 63)" stroke="none" stroke-width="1px">1.6</text><text style="text-anchor: end; visibility: hidden; font-family: &quot;Helvetica Neue&quot;, sans-serif; font-size: 12px; font-weight: 200;" x="0" y="29.66366656621298" dx="0em" dy="0.3em" fill="rgb(50, 49, 63)" stroke="none" stroke-width="1px">1.8</text><text style="text-anchor: end; visibility: inherit; font-family: &quot;Helvetica Neue&quot;, sans-serif; font-size: 12px; font-weight: 200;" x="0" y="14.831833283106505" dx="0em" dy="0.3em" fill="rgb(50, 49, 63)" stroke="none" stroke-width="1px">2</text><text style="text-anchor: end; visibility: hidden; font-family: &quot;Helvetica Neue&quot;, sans-serif; font-size: 12px; font-weight: 200;" x="0" y="0" dx="0em" dy="0.3em" fill="rgb(50, 49, 63)" stroke="none" stroke-width="1px">2.2</text></g><line x1="51.41200256347656" y1="0" x2="51.41200256347656" y2="177.98199939727783" fill="rgb(0, 0, 0)" stroke="rgb(204, 204, 204)" stroke-width="1px"></line></g></g><g transform="translate(51, 0)" clip-path="url(#clip_0)"><clipPath id="clip_0"><rect width="278" height="177"></rect></clipPath><g><g><g><line x1="0" y1="0" x2="0" y2="177.98199939727783" fill="rgb(0, 0, 0)" stroke="rgb(60, 60, 60)" stroke-width="1px" opacity="0.25"></line><line x1="23.215666453043617" y1="0" x2="23.215666453043617" y2="177.98199939727783" fill="rgb(0, 0, 0)" stroke="rgb(60, 60, 60)" stroke-width="1px" opacity="0.25"></line><line x1="46.431332906087235" y1="0" x2="46.431332906087235" y2="177.98199939727783" fill="rgb(0, 0, 0)" stroke="rgb(60, 60, 60)" stroke-width="1px" opacity="0.25"></line><line x1="69.64699935913086" y1="0" x2="69.64699935913086" y2="177.98199939727783" fill="rgb(0, 0, 0)" stroke="rgb(60, 60, 60)" stroke-width="1px" opacity="0.25"></line><line x1="92.86266581217447" y1="0" x2="92.86266581217447" y2="177.98199939727783" fill="rgb(0, 0, 0)" stroke="rgb(60, 60, 60)" stroke-width="1px" opacity="0.25"></line><line x1="116.07833226521811" y1="0" x2="116.07833226521811" y2="177.98199939727783" fill="rgb(0, 0, 0)" stroke="rgb(60, 60, 60)" stroke-width="1px" opacity="0.25"></line><line x1="139.29399871826172" y1="0" x2="139.29399871826172" y2="177.98199939727783" fill="rgb(0, 0, 0)" stroke="rgb(60, 60, 60)" stroke-width="1px" opacity="0.25"></line><line x1="162.50966517130536" y1="0" x2="162.50966517130536" y2="177.98199939727783" fill="rgb(0, 0, 0)" stroke="rgb(60, 60, 60)" stroke-width="1px" opacity="0.25"></line><line x1="185.72533162434894" y1="0" x2="185.72533162434894" y2="177.98199939727783" fill="rgb(0, 0, 0)" stroke="rgb(60, 60, 60)" stroke-width="1px" opacity="0.25"></line><line x1="208.94099807739258" y1="0" x2="208.94099807739258" y2="177.98199939727783" fill="rgb(0, 0, 0)" stroke="rgb(60, 60, 60)" stroke-width="1px" opacity="0.25"></line><line x1="232.15666453043622" y1="0" x2="232.15666453043622" y2="177.98199939727783" fill="rgb(0, 0, 0)" stroke="rgb(60, 60, 60)" stroke-width="1px" opacity="0.25"></line><line x1="255.3723309834798" y1="0" x2="255.3723309834798" y2="177.98199939727783" fill="rgb(0, 0, 0)" stroke="rgb(60, 60, 60)" stroke-width="1px" opacity="0.25"></line><line x1="278.58799743652344" y1="0" x2="278.58799743652344" y2="177.98199939727783" fill="rgb(0, 0, 0)" stroke="rgb(60, 60, 60)" stroke-width="1px" opacity="0.25"></line></g><g><line x1="0" y1="177.98199939727783" x2="278.58799743652344" y2="177.98199939727783" fill="rgb(0, 0, 0)" stroke="rgb(60, 60, 60)" stroke-width="1px" opacity="0.25"></line><line x1="0" y1="163.15016611417136" x2="278.58799743652344" y2="163.15016611417136" fill="rgb(0, 0, 0)" stroke="rgb(60, 60, 60)" stroke-width="1px" opacity="0.25"></line><line x1="0" y1="148.31833283106485" x2="278.58799743652344" y2="148.31833283106485" fill="rgb(0, 0, 0)" stroke="rgb(60, 60, 60)" stroke-width="1px" opacity="0.25"></line><line x1="0" y1="133.48649954795837" x2="278.58799743652344" y2="133.48649954795837" fill="rgb(0, 0, 0)" stroke="rgb(60, 60, 60)" stroke-width="1px" opacity="0.25"></line><line x1="0" y1="118.6546662648519" x2="278.58799743652344" y2="118.6546662648519" fill="rgb(0, 0, 0)" stroke="rgb(60, 60, 60)" stroke-width="1px" opacity="0.25"></line><line x1="0" y1="103.8228329817454" x2="278.58799743652344" y2="103.8228329817454" fill="rgb(0, 0, 0)" stroke="rgb(60, 60, 60)" stroke-width="1px" opacity="0.25"></line><line x1="0" y1="88.99099969863893" x2="278.58799743652344" y2="88.99099969863893" fill="rgb(0, 0, 0)" stroke="rgb(60, 60, 60)" stroke-width="1px" opacity="0.25"></line><line x1="0" y1="74.15916641553244" x2="278.58799743652344" y2="74.15916641553244" fill="rgb(0, 0, 0)" stroke="rgb(60, 60, 60)" stroke-width="1px" opacity="0.25"></line><line x1="0" y1="59.32733313242598" x2="278.58799743652344" y2="59.32733313242598" fill="rgb(0, 0, 0)" stroke="rgb(60, 60, 60)" stroke-width="1px" opacity="0.25"></line><line x1="0" y1="44.495499849319486" x2="278.58799743652344" y2="44.495499849319486" fill="rgb(0, 0, 0)" stroke="rgb(60, 60, 60)" stroke-width="1px" opacity="0.25"></line><line x1="0" y1="29.66366656621298" x2="278.58799743652344" y2="29.66366656621298" fill="rgb(0, 0, 0)" stroke="rgb(60, 60, 60)" stroke-width="1px" opacity="0.25"></line><line x1="0" y1="14.831833283106505" x2="278.58799743652344" y2="14.831833283106505" fill="rgb(0, 0, 0)" stroke="rgb(60, 60, 60)" stroke-width="1px" opacity="0.25"></line><line x1="0" y1="0" x2="278.58799743652344" y2="0" fill="rgb(0, 0, 0)" stroke="rgb(60, 60, 60)" stroke-width="1px" opacity="0.25"></line></g></g></g><g><g><line x1="0" y1="163.15016611417136" x2="278.58799743652344" y2="163.15016611417136" fill="rgb(0, 0, 0)" stroke="rgb(153, 153, 153)" stroke-width="1.5px"></line></g></g><g><g><line x1="23.215666453043617" y1="0" x2="23.215666453043617" y2="177.98199939727783" fill="rgb(0, 0, 0)" stroke="rgb(153, 153, 153)" stroke-width="1.5px"></line></g></g><g><g><g><g><g><path style="fill: none;" stroke="rgb(238, 51, 119)" stroke-width="2px" d="M30.413683836809792,-1.7522537375159573L30.99291471481323,2.578635329176734L31.00684411468506,2.6743421658312343L31.172836129824322,3.794570090596636L31.302843861961367,4.637861717095063L31.522231909942626,5.990434652109258L31.876270823351543,8.05547806372229L31.879753173319497,8.07436128957616L32.268615586407975,9.660552261301206L32.3092430027008,9.869523091232736L32.57970551687876,11.2239348422477L32.71203481566111,11.858397086199233L32.75962693188985,12.081353526290343L33.08116391226451,13.543530503503177L33.52226157487234,15.394219244105528L33.58842622426351,15.66271290159986L33.96568080412547,17.113927706500505L34.20712373523712,17.997355028399937L34.30695110098521,18.348834098389716L34.47410389944712,18.928335192934185L35.28781300862631,21.51295905075952L35.38067567443848,21.786138152871132L35.43058935731252,21.93470210908569L35.875169369888305,23.170943410667718L35.94597715257009,23.358714813821365L36.00865945199331,23.52289986558077L36.60298051319122,25.033549093428803L36.642447146161395,25.13056431839152L37.11024282519023,26.227409222378157L37.11604674180349,26.24148323715312L37.3365955731074,26.729954099198864L37.482854271761575,27.04769796794409L38.16423408215841,28.449954296824757L38.346477063814795,28.798409928967118L38.37781821352641,28.85960360376137L39.026696090888976,30.020506492081893L39.80906405035655,31.34074101877519L40.243197013028464,32.0079748536632L40.372043961842856,32.198424916664095L40.48115759417216,32.35891465549889L41.177627587763475,33.340223567592176L41.51541553465525,33.65497051987464L41.92401126422882,34.185521978860635L42.784151706314084,35.238995578521866L43.026755420748394,35.520599640483084L43.06273970375061,35.56142489188437L43.31811203473409,35.84873105154023L43.34364926783243,35.877630520321276L43.58044906565348,36.13776994165835L43.59670003217062,36.15538014105016L44.634440322621664,37.22393556810215L45.88808631108602,38.37933968934348L46.014611693255105,38.48590261277164L46.120242975616456,38.57769312496299L46.42668977279663,38.83884035891586L46.49401520551046,38.89442034063086L46.504462255414325,38.90327848309602L46.71572482013702,39.07761238470573L46.80742670262655,39.15064343750478L47.05815590031941,39.35303696404904L47.103426449902855,39.3888761951406L47.33674389775594,39.57296996629273L47.3402262477239,39.575675147524606L47.4249634302775,39.640130952627885L47.686139677874245,39.83633615609267L47.76042981052399,39.89127962457664L47.86257874291738,39.96703353953069L47.963566891988116,40.043238318023356L48.57762126967112,40.48744498912794L49.03845224876403,40.80824765756671L49.137118831189476,40.87600095482517L49.16962076422373,40.898685579142125L50.07503175589243,41.4720690742995L50.08663958911895,41.47941549784096L50.24682768764496,41.58107196511327L50.33388643684387,41.635546889135526L50.41049813613892,41.684010299309165L50.54166665159861,41.7647855964191L50.6925684835434,41.85586887168708L50.72855276654562,41.87740423600357L51.246262128448485,42.18334608859013L51.40296787700653,42.27415530955031L51.40528944365183,42.27564050708938L51.44939920991262,42.300862343868914L51.79647342338562,42.497005664102886L51.91951645558675,42.56536011274622L52.159798603375755,42.69595141064573L52.530088483301796,42.879726925182354L52.690276581827796,42.91738729135159L53.17896636066436,43.169402328531476L53.2195937769572,43.19000944438605L53.30549174283345,43.233212779942164L53.74891097208659,43.457115149418286L54.32233793347677,43.733945362146784L54.32349871679942,43.73456419445472L54.7367375796636,43.929018986534174L55.144172525914506,44.118001532919095L55.257929291534424,44.16982431847873L55.29855670782725,44.187690891255244L55.62125447152455,44.33090636823684L56.227183365948996,44.58655483511052L56.349065614827474,44.63829805651628L56.84472009359996,44.84309618859996L56.874900459988915,44.855534717989656L56.95151215928396,44.88774051938745L57.112861041132604,44.953071530183365L57.18482960713704,44.980910143579365L57.426272538248696,45.07476932377156L57.84183296775818,45.23514413660632L58.04613083254497,45.312869474484216L58.076311198933915,45.32461844787363L58.24230321407318,45.388057599899554L58.41990306243896,45.454732360849874L58.58589507757822,45.51600559979801L58.750726309394835,45.57762361674625L58.85983994172414,45.61612382676199L58.876090908241274,45.621976212302826L59.67238826758067,45.90719602303477L59.7153372505188,45.92254306427179L60.22259956251781,46.054195217556355L60.28760342858633,46.07506754725719L60.60217570902506,46.181957567762424L60.866834306589766,46.27144955995283L60.99103812211355,46.31314117658525L61.12452820421855,46.355893648602716L61.24641045309702,46.39614427000379L61.39963385168712,46.44542100263931L61.408920118268334,46.44847096187132L61.56214351685842,46.49769465173759L61.732778665288286,46.55170103129811L61.95797062988281,46.62267225655788L61.99047256291708,46.6333957364084L62.3781741926829,46.75249443430323L62.39210359255473,46.75682626045884L62.43389179217021,46.76968029154102L62.49657409159342,46.789986831703175L62.53952307453156,46.802823181862266L62.58247205746968,46.81599546955994L62.7252484061559,46.85991488250096L63.103663769340514,46.97207381808525L63.292871450932815,47.02775988533878L63.378769416809085,47.05368895904169L64.25516082541148,47.30765773822239L64.40490187403361,47.3485095110083L64.73920747095744,47.444348954585934L64.95047003568014,47.50358888737935L65.04797583478292,47.53117996785218L65.73515956179301,47.69608993745803L65.76998306147257,47.70553155038496L65.89534766031902,47.74025688332222L65.99169267609915,47.768166220410535L66.40028840567271,47.88168658707232L66.73343321927389,47.977853127727L67.05264863300323,48.071464774996L67.18265636514028,48.110398167627295L67.85474990895588,48.32210954063689L68.16235748945873,48.417162183137265L68.30165148817699,48.46667760823442L68.46532193667093,48.528852574259815L68.83096868330637,48.67787623447455L69.30224671230316,48.88835878332981L69.54252886009216,49.00295768629971L69.67137580890656,49.0615611058621L69.99175200595856,49.225931807313884L70.22855180377961,49.352200119519324L70.42240261866252,49.45973549371712L70.48392413476307,49.49370054696175L70.5686613173167,49.540581514519374L70.85537479801178,49.6948740898132L71.12351574554444,49.84323471541228L71.43460567601522,50.02346520487052L72.12527175299326,50.44591550012008L72.49207928295135,50.674344185905724L72.5129733827591,50.68699488637243L72.75673788051606,50.84037689412739L73.7317958715439,51.45781240914893L73.8722506535848,51.54786135041647L73.95582705281576,51.602141784284825L73.98716820252736,51.62267817644704L73.99181133581797,51.62609943506382L74.06494068514505,51.673581554006304L74.28316794980367,51.82045698206632L74.37603061561585,51.880015171475264L74.52345009759267,51.97871008413098L74.53157558085124,51.98400552059468L74.58265004704793,52.017793764608484L74.6441715631485,52.057593522470924L75.2384926243464,52.45028682416982L75.41028855609895,52.56677758590975L75.88388815174103,52.87286088588097L76.04059390029909,52.97911439315513L76.21587218201955,53.092343024586015L76.98198917497,53.603604596487244L77.00056170813242,53.61766093033914L77.09226359062195,53.67976517267219L78.12303918113707,54.36511311325994L78.51422316087087,54.64255331783484L78.59199564348857,54.70038761724307L78.63726619307201,54.730781124024716L78.797454291598,54.839660248376916L78.8729052075704,54.891889695167464L78.89960322399139,54.909844672559416L79.02264625619252,54.99874435382651L79.14452850507101,55.08470016140009L79.19792453791301,55.12044214741472L79.5403556180954,55.3613005221285L80.41094311008453,55.9619391602201L80.50264499257405,56.02528106716903L80.64890369122823,56.12137688413138L81.26295806891123,56.55883828307935L81.32099723504385,56.598134134633895L81.44752261721293,56.68842176836307L81.48234611689249,56.713024772834686L82.20667491022745,57.22864469227612L82.39240024185182,57.353074188480804L82.5723216568629,57.481013347917695L82.68027450586955,57.55025184271524L83.34308178310394,58.00261825982314L83.57872079760233,58.164434067889275L83.91650874449412,58.39286275367492L83.9873165271759,58.43951386923244L84.1695595088323,58.56330685220608L84.36921424032846,58.7010235621085L84.62922970460255,58.873872266179134L84.66753555425008,58.8956286420342L84.84513540261587,59.01322446146686L84.86254715245565,59.02499111577934L85.28158993193308,59.30983962712652L85.55785636272431,59.49991839074265L85.57062497927348,59.50923623720797L85.73893856105805,59.620882426022845L85.79001302725473,59.656093984344906L86.04190300827027,59.82774038564581L86.70122793553669,60.26150647166922L86.83587880096435,60.35303177001431L86.98678063290913,60.45164711851612L87.03901588242849,60.48659346299196L87.40698419570923,60.7243134738583L87.69021532643636,60.9140651403974L87.69950159301759,60.92042143224613L87.88754849128723,61.04822798475989L87.9490700073878,61.089344971392094L88.6118772846222,61.52845069618688L88.80921044947306,61.66289643531876L88.8254614159902,61.67488410116981L88.92644956506093,61.74181523550483L89.13422977981568,61.878586016022254L89.1725356294632,61.90170382295477L89.7355155409495,62.27406406310692L89.94329575570424,62.40922587962369L91.05300461215973,63.12797308391737L91.18765547758738,63.214477000106584L91.37686315917969,63.334972490925026L91.40820430889129,63.35432426124065L91.42793762537639,63.36511846478352L92.00949007002512,63.73681567032001L92.06404688618979,63.77251345402691L92.20450166823069,63.862500512063676L92.44594459934235,64.01739423874233L92.48076809902192,64.03970756367453L93.07160681025188,64.4108124582877L93.07857151018779,64.41505587982789L93.10410874328613,64.43069465629584L93.20857924232483,64.49005835555084L93.41519867375692,64.61672448852568L94.262570499293,65.13728622596915L94.34498611520131,65.18718179091262L94.8139425775528,65.46965221810495L95.34674212265014,65.79116212346712L95.78435743529002,66.05443106819006L95.82034171829223,66.0760636775835L96.1999178647995,66.30457192752303L96.37403536319732,66.40970269618137L96.60154889443714,66.5395602357729L96.94165840797423,66.74314722462533L97.12506217295329,66.84318588743544L97.35025413754781,66.96724408425534L98.11172799720765,67.39342505427565L98.3044180287679,67.50356836462835L98.53889625994364,67.63697092929824L99.00669193897248,67.90200796632959L99.36537398567201,68.10917534210655L99.41412688522338,68.13644816596387L99.88540491422017,68.38825103206673L100.17443996156057,68.54828106690135L100.74206300633747,68.85242830579486L100.96145105431876,68.97018325353528L101.01368630383809,68.99906504139324L101.50005451602935,69.25521741457483L102.47627329037985,69.76737187309179L102.5888692726771,69.82555979096172L102.64806922213236,69.8564395231282L102.83495533707936,69.95365807870637L103.50937044754028,70.28490133222633L103.52562141405741,70.2928754285373L103.8390329111735,70.44547947567658L104.14547970835369,70.59373401573716L104.2371815908432,70.63834298467846L104.3729932395935,70.70415138039763L105.00794171708425,71.00676037898282L105.1449141491572,71.07567177670329L105.23313368167878,71.1173987551819L105.53377656224569,71.26110045754828L105.62780001138051,71.30519667972017L106.12925840676625,71.53449173073692L106.27551710542042,71.60358877814978L106.3056974718094,71.61798104954026L106.44034833723705,71.68591115602958L106.684112834994,71.79630199930543L106.74331278444926,71.8213647077772L106.7688500175476,71.83353802332064L106.80715586719512,71.85135155332794L106.83617545026144,71.86539020625673L107.137979114151,72.00144490938925L107.1403006807963,72.00247924338967L107.25870057970683,72.05401029371842L107.26218292967478,72.05563693864217L107.44094356136323,72.1392677048302L107.63247280960084,72.22805246009723L107.80659030799866,72.30797907289912L107.96445683987936,72.37692583246577L108.16179000473022,72.4648442225017L108.87567174816132,72.78655745847928L108.93022856432597,72.81098365372003L108.9998755636851,72.84207555696351L109.0265735801061,72.85478814066103L109.33185959396363,72.98769563948454L110.16065888633729,73.35476928363455L110.84087791341145,73.63599320574944L110.93374057922364,73.67819756915132L111.35278335870107,73.85554606814686L111.68941052227021,73.99635693958899L111.93665736999512,74.10222146655535L111.99585731945038,74.12762895302727L112.1630101179123,74.19875046613323L112.21756693407694,74.21994105244958L112.35337858282726,74.2708355895473L112.4880294482549,74.31985594879812L112.49615493151346,74.32271141787619L112.82697817846935,74.455362543315L113.21235824158987,74.61822152584311L113.64300885429383,74.78933749945149L113.91463215179444,74.90381263595978L113.99936933434803,74.93906839658958L114.65753347829184,75.19609597546385L114.73646674423217,75.2279039560922L114.8258470600764,75.26378738949148L114.84209802659352,75.2707890350328L114.88736857617695,75.288584884117L114.92451364250182,75.30292411273827L115.40391715475718,75.48947553219911L115.61169736951192,75.5697822848473L116.05047346547444,75.74422227199548L116.11547733154298,75.76895788339023L116.19557138080597,75.80104875878796L116.27102229677836,75.82362729756639L116.53219854437509,75.91657591021978L116.55077107753755,75.92161497329876L116.71792387599946,75.98813060594132L116.74810424238841,75.99920770425352L116.79105322532654,76.01631399733743L117.23563323790232,76.1844242140215L117.25768812103271,76.19243367217862L117.37608801994324,76.23956217265942L117.68253481712341,76.35676017132269L117.81370333258312,76.40447214226526L117.85433074887592,76.41969541704071L119.25539621931712,76.93216813217319L119.2948628522873,76.9471085121793L119.38656473477681,76.98121501280862L119.87177216364543,77.15683962180346L120.44635990835825,77.36192064865648L120.95130065371195,77.5431943125767L121.19738671811422,77.63305760415189L121.42025711606344,77.71232118233812L121.51892369848888,77.74748853835248L121.67214709707896,77.79916103606591L121.9867193775177,77.9072179974947L122.07958204332986,77.93370402027473L122.47308758970897,78.07079305740767L122.50907187271117,78.08421287802854L122.5473777223587,78.09832225464969L122.67970702114106,78.14640552497703L122.75283637046813,78.17387283898825L123.06044395097096,78.28328239103296L123.94960397612253,78.59165537054359L124.04827055854797,78.6230124876333L124.21426257368724,78.67696582442458L124.66116415290833,78.81527484525033L124.7273288022995,78.8362178986435L124.97805799999237,78.92223558944788L125.16726568158467,78.98754891932072L125.52478694496155,79.10629399875386L126.14812758922577,79.30982794483704L126.31179803771974,79.361721454089L126.83066818294526,79.53182077462003L126.92933476537068,79.56347846740222L126.94790729853312,79.56936621478924L127.39132652778625,79.70732161715328L127.65598512535095,79.79037775334106L127.7279536913554,79.81399062611995L127.96243192253112,79.89077003461286L128.20967877025606,79.97002477233757L128.95722323004404,80.20974272751242L129.1963445945104,80.27781428138638L129.5724383910497,80.39660356312723L129.59565405750274,80.4030040572837L129.5991364074707,80.40402071036105L129.69780298989613,80.43704867468222L129.7012853398641,80.43831286068276L130.1481869190852,80.57769157735507L130.85510396258036,80.79476027005917L130.92359017861685,80.81577404714466L131.31593494167328,80.93438651965467L131.42853092397053,80.96991633459226L131.71640518798827,81.05676502878161L132.21554201672873,81.20410016084179L132.95263942661285,81.42827658462572L133.2405136906306,81.51441804189169L133.55740753771462,81.60536871023652L133.70482701969146,81.65263865810199L133.86385433489482,81.6982996419668L133.92885820096333,81.71669664243588L133.96600326728822,81.72866662736382L134.04841888319652,81.75470178660525L134.48951654580435,81.88320673558081L134.5928262615204,81.91178794774636L134.6195242779414,81.92021290759594L135.00142199109393,82.03443167071953L135.27304528859455,82.11418147429058L135.34849620456694,82.13666276799209L135.99389173196155,82.32244506729877L136.07514656454723,82.34550983146202L136.29569539585114,82.40963853948823L136.50463639392854,82.46906412197404L136.73679305845897,82.53389122646207L136.82965572427113,82.55953740539563L136.9573418897629,82.59715356925717L137.21967892068227,82.67006085559466L137.44254931863148,82.7310511997734L137.52380415121715,82.75408060209053L137.5806825340271,82.76996691148163L138.19821926167805,82.94640484293832L138.72173254019418,83.0919276803824L138.84477557239532,83.12501752793438L138.8470971390406,83.12540650824225L139.16050863615672,83.2071365751987L139.9521628622055,83.41877722451595L139.9788608786265,83.42555785851872L140.16690777689615,83.4730841797689L140.29111159241995,83.50828689762945L140.3595978084564,83.52597666117514L140.4524604742686,83.55123385980086L140.5395192234675,83.57412181473329L140.63586423924764,83.59989176012841L140.72756612173714,83.62604184536987L140.84480523732503,83.65330582876562L140.95624043629965,83.68418556093211L141.03517370223997,83.70432413232493L141.52734583104453,83.83490658976292L141.55056149749757,83.84183751161189L141.97308662694297,83.95130894688741L142.2075648581187,84.00970903583435L142.24470992444355,84.01779805814535L142.3073922238668,84.03392305999809L142.41186272290548,84.0609925532399L142.63821547082267,84.12085131834128L142.67419975382487,84.13067307111454L142.73804283657074,84.14871645312189L142.77867025286358,84.15967862543407L142.79027808609007,84.1629407557431L143.0166308340073,84.2216060585363L143.37763444735208,84.31623435888265L143.8767712760925,84.4445801795505L144.25866898924508,84.53912007528142L144.3259944219589,84.55682751975019L144.75548425134022,84.67040976964277L144.89245668341317,84.70306643457917L144.9621036827723,84.72024345135544L144.97835464928946,84.724248180434L144.99576639912922,84.72895130597436L145.0108565823237,84.73245212874502L145.20702896385194,84.77973091707206L145.60285607687632,84.87820481818922L145.8071539416631,84.93139787528786L145.99752240657807,84.9783053642301L146.0137733730952,84.98217748638552L146.5036239352544,85.09656421827842L146.56978858464558,85.11191125951548L146.7125649333318,85.147635564607L146.9168627981186,85.19896328432026L147.03294113038382,85.22818100971683L147.5402034423828,85.35100154192087L148.3074812186559,85.5355815384578L148.3922184012095,85.55356303723438L149.10261779467262,85.71846416637868L149.261645109876,85.75433875931644L150.0231189695358,85.92688688769464L150.02427975285846,85.92722282523322L150.09160518557232,85.94205711970083L150.32376185010276,85.99615190387676L150.6963732966741,86.0814888791424L150.97612207743327,86.14582975824561L151.12470234273275,86.17760237702782L151.16300819238026,86.18680529749312L151.3882001569748,86.23706332135981L151.58321175518037,86.27982463383883L151.64705483792622,86.29513631322972L151.75849003690084,86.32066756616321L152.2889680153529,86.43672514528755L152.33656013158162,86.44756355113813L152.438709063975,86.46954977899327L152.69640296160378,86.52841841240196L152.8740028099696,86.5680590419566L153.1258927909851,86.62653869505742L153.9953194996516,86.8174219406739L154.04059004923505,86.8268812345239L154.27158593044282,86.87744867454455L154.7591149259567,86.97840674535506L155.06904407310486,87.04671699169064L155.245483138148,87.08497850924473L155.52291035226187,87.14490799803848L155.88507474892936,87.2212542239158L156.07892556381228,87.2607357251627L156.81834454034168,87.41931592430443L156.87986605644227,87.43101185492459L157.29426570262908,87.51782518726777L157.3081951025009,87.52061877311505L157.594908583196,87.57696787498425L157.7260770986557,87.60424069884152L157.9129632136027,87.64385480701158L158.39352750918073,87.7403661256664L158.64889984016418,87.79451395261158L158.69300960642497,87.8032748499998L158.7765860056559,87.8204253453914L158.82185655523938,87.8284701653947L159.04704851983388,87.87246030202805L159.063299486351,87.87562518726013L159.08303280283607,87.8792320955693L159.20839740168253,87.9060452154264L159.7655733965556,88.018062703626L159.98612222785948,88.06506743764523L160.12077309328717,88.09249938981026L160.37614542427065,88.14644388613999L160.40980814062752,88.15277365660414L160.9449292523702,88.2595487511093L161.2432505662918,88.31829361805639L161.27691328264874,88.32571076529017L161.34772106533052,88.34062462391167L161.70059919541677,88.4066098288617L161.89561079362235,88.4428115188765L162.48644950485232,88.56135326769414L163.89447967522938,88.83931505950002L163.89564045855204,88.8395625924232L164.0569893404007,88.87221925735965L164.09181284008028,88.87901757228548L164.139404956309,88.88508212890336L164.64086335169475,88.97872913801855L164.68961625124615,88.98855973125332L165.07035318107603,89.06263837874512L165.55439982662202,89.15124190455056L165.56832922649383,89.1539515060132L165.6902114753723,89.17429782825229L166.07210918852488,89.24613983897395L166.70009296607972,89.36124706848253L166.72795176582335,89.36679003786941L166.7662576154709,89.37397291287233L167.2735199274699,89.46602863890995L167.38263355979922,89.48644568484137L167.77149597288766,89.56053317279472L168.03615457045237,89.60996461350723L168.1034800031662,89.62163402274277L168.36465625076295,89.66928853068531L168.65136973145803,89.72203956470686L169.99091368579863,89.96688498757614L170.2729840332031,90.01477818798033L170.56085829722085,90.0651157760009L170.62237981332143,90.07697967539036L170.74890519549052,90.10070305393852L170.90328937740327,90.12917376033477L171.11687350877128,90.16987966550523L171.26545377407075,90.19373123074575L171.3757281897227,90.21246416875341L171.54752412147522,90.24405997830478L171.58466918780007,90.25072126607674L171.65547697048186,90.26342058908192L171.6763710702896,90.26729271123735L171.9271002679825,90.31176465302475L172.1499706659317,90.35017203819429L172.27069213148752,90.3703150298179L172.7860799267451,90.4486989820807L173.12735022360485,90.50930918641316L173.327004955101,90.54293830211921L173.4291538874944,90.56005343566467L173.44308328736625,90.56262158974263L173.45236955394745,90.56425707512793L173.540589086469,90.57942730713413L173.59050276934306,90.58863906806096L174.0316004319509,90.66296524847594L174.20107479705808,90.69161718433381L174.93468985697427,90.81716499892357L175.19354453792573,90.86252098686518L175.8493871152242,90.97230183829465L175.86215573177336,90.97419369706465L176.0687751632055,91.0058071875391L176.13145746262867,91.01515597561985L176.2962886944453,91.04221662840014L177.22491535256705,91.19529806046269L177.50350335000357,91.24329734640538L177.84013051357272,91.29604838042694L177.97013824570973,91.31752186151263L178.2139027434667,91.35721553383654L178.29747914269765,91.37152824107316L178.59928280658724,91.41815725547683L178.7699179550171,91.4449747955647L179.19824700107574,91.51384199097747L179.21333718427024,91.51633058090155L179.31200376669565,91.53032945175343L179.7797994457245,91.60505787316858L179.90284247792562,91.62560752602313L180.63645753784178,91.74345087837898L180.9347788517634,91.78853723224356L181.32596283149718,91.84943475157613L181.4083784474055,91.86245233119683L181.49891954657238,91.8744532577402L181.86456629320782,91.9289502829163L181.87037020982106,91.92988737183977L181.88778195966086,91.93259255307164L182.27084045613606,91.99325137994258L182.30798552246094,91.99803848986761L182.53665983702342,92.03471756480567L182.89998501701356,92.0873359919041L182.92203990014394,92.0912125342903L183.04160058237713,92.10942830529774L183.36545912939707,92.16348330739676L183.92031355762484,92.24914737973945L183.95281549065908,92.25132655350957L184.05264285640718,92.2650734712075L184.49490130233764,92.32435760630864L184.86519118226371,92.37828000148453L185.03350476404827,92.40451407111063L185.08690079689026,92.41266055642164L185.69747282460528,92.5066479233062L185.7439041575114,92.51294233192417L185.77872765719096,92.51832617300329L185.7903354904175,92.5199881797732L185.87855502293905,92.5322720010859L185.91802165590923,92.53850452647306L186.05499408798218,92.55824969732728L186.59707989966077,92.64098315666878L186.87450711377463,92.68292230622438L187.14496962795258,92.71919471993151L187.87742390454608,92.83061989720781L187.9192121041616,92.83628663305628L188.03180808645885,92.85251772044752L188.2755725842158,92.88924541792407L188.27673336753844,92.88946200923185L188.62380758101145,92.94128037456072L188.91980732828776,92.98401958588587L189.0834777767817,93.00813636497266L189.42474807364147,93.0571036814542L189.60583027197518,93.08400078569596L189.77182228711445,93.10840487978285L189.87164965286254,93.12366351640448L190.09916318410237,93.15364594172442L190.12818276716868,93.15698321595654L190.27444146582286,93.17538905688714L190.35569629840853,93.18751817012287L190.63196272919973,93.22317175152206L190.70044894523622,93.232458656372L190.8385821606318,93.2517043411491L190.9825192926407,93.27084394038769L192.25357703094483,93.44230911222698L192.35572596333822,93.45740862054085L192.40099651292164,93.46402128577431L192.44858862915038,93.47029801346919L193.05335674025218,93.55262923181051L193.49909753615063,93.61282835468127L194.27682236232758,93.72088531611004L194.4219202776591,93.73989672865626L195.23214703687034,93.84618559777662L195.3470645858129,93.86033917670548L195.5049311176936,93.88119382548324L195.64654668305715,93.90063400041426L195.71387211577098,93.91029662487973L195.793966165034,93.9204985174993L195.7986092983246,93.9212145948842L195.91584841391247,93.93741032042928L196.01567577966054,93.95062681043468L196.68660854015351,94.03141978846769L196.8177770556132,94.04611263555061L196.96635732091266,94.06530085732768L197.20199633541105,94.09458488618581L197.26119628486634,94.10176776118874L197.34129033412933,94.11312775427031L197.95766627845762,94.19152938745619L197.97972116158803,94.19339914507233L198.0725838274002,94.20373364461503L198.21419939276376,94.2232268623153L198.33608164164224,94.23882585670628L198.54386185639697,94.26572738117882L198.56011282291414,94.26761481971805L198.6019010225296,94.27320641164341L198.64949313875834,94.27971741156915L198.75860677108764,94.29452518465212L198.8154851538976,94.30209261973214L198.92808113619486,94.31805407304635L199.02442615197498,94.3306826723592L199.12541430104574,94.34517218882667L199.14630840085348,94.34807628044324L199.3030141494115,94.36673849475855L200.26298195724488,94.48645160473055L200.54505230464935,94.52306879643781L201.46207112954457,94.64262277810205L201.5398436121623,94.65246221179838L201.61065139484407,94.66234584780241L202.58222703590394,94.7838005286982L202.7482190510432,94.80372692901403L203.3576302954356,94.87912722550638L203.44817139460244,94.89025294635708L203.81613970788322,94.93494147945226L203.9740062397639,94.95461592661414L203.99141798960366,94.95678625992272L204.65770761680602,95.03842792226378L204.75405263258617,95.04999124596081L205.05585629647572,95.08802291151481L205.2578325946172,95.11183027444761L205.3425697771708,95.1228808513752L205.51204414227803,95.14352774930671L205.53409902540844,95.14526932023051L205.61071072470347,95.15547563308083L205.79759683965048,95.17605180732001L205.9032281220118,95.18836657024812L205.95894572149913,95.19517372563551L206.182976902771,95.22127076810771L206.39888260078428,95.24651470604111L206.53585503285726,95.26218442412443L206.6147882987976,95.27239515720552L206.6681843316396,95.27915811028521L207.4308189746221,95.37204483970778L207.61190117295584,95.3923867417161L207.76280300490063,95.40823326903026L207.9473675532023,95.42948573857741L208.25497513370513,95.46430831659164L208.38730443248747,95.47927963821314L208.6856257464091,95.51346128276556L209.17663709189097,95.57021704586568L209.2346762580236,95.57659543886828L209.43433098951976,95.60123380518604L209.47727997245786,95.60629938964965L209.76399345315298,95.63969423312484L210.0495461505254,95.67232879690741L210.2875067316691,95.69847446191808L210.32000866470338,95.70227586038118L210.5254673128128,95.72523895923672L211.20568633988697,95.79758487626627L211.232384356308,95.8008470065753L211.4285567378362,95.82351837019995L211.42971752115886,95.82365097712308L211.50284687048594,95.832668247896L211.59803110294342,95.84157059266886L211.74777215156553,95.85949904867618L211.81393680095672,95.86555034460174L211.94046218312582,95.879947036223L212.02287779903412,95.88906597230365L212.17958354759216,95.90697232715712L212.57308909397125,95.9507458724827L212.7681006921768,95.97419519672306L213.53421768512726,96.05474506206366L213.67002933387755,96.07003906053144L214.3072993780136,96.1424336000995L214.5359736925761,96.16849086049476L214.5824050254822,96.17357854611221L214.72518137416841,96.18946485550332L215.2835181523641,96.24583163829558L215.4390631175995,96.26286720768717L215.67470213209788,96.28827911438985L215.90337644666036,96.31072946647595L216.25277222677866,96.34843845518367L216.27947024319968,96.35074581564615L216.50234064114886,96.3745620190405L216.91674028733573,96.42038655144383L217.00612060317994,96.43057518337108L217.24059883435567,96.45655287961246L217.3392654167811,96.4679924368479L217.46811236559552,96.48277368854625L217.52731231505075,96.48935099193355L217.8151865790685,96.51610222855986L218.27137442487083,96.56456563873351L218.4373664400101,96.58215815720224L218.67997015444436,96.60754796275107L218.86569548606872,96.62595380368167L219.06418943424225,96.64604375253603L219.23366379934947,96.66341083923544L219.24643241589862,96.66496676046684L219.39617346452076,96.68041104678085L219.41938913097383,96.68318253147429L219.76414177780154,96.71963175441226L220.03228272533417,96.74737754296206L220.3352471725464,96.77759424051287L220.4025726052602,96.78465334905421L220.5070431042989,96.79692832990538L220.76821935189565,96.82357348099319L221.12457983194986,96.85992103862343L221.9568614742915,96.94505026304283L222.43046106993359,96.99020292036897L222.475731619517,96.99487952452472L222.48733945274353,96.99618791283295L223.13969968007407,97.06375556039902L223.35444459476471,97.086497647716L223.9998401221593,97.15312378612785L224.14029490420026,97.16719780090283L224.23431835333508,97.17691346813757L224.25173010317485,97.17883184829219L224.374773135376,97.19069574768166L224.6777375825882,97.22265401615626L224.89712563056946,97.24446343478056L225.67368967342378,97.32301535581264L225.94415218760173,97.34965166643892L226.26336760133108,97.38160993491351L226.4815948659897,97.40335747030701L226.55124186534883,97.4110663527717L226.670802547582,97.42357118562296L226.79268479646046,97.43618210401273L226.9935003112793,97.45532170325133L227.60871547228496,97.50558414734878L227.84319370346068,97.52936056866619L227.86060545330048,97.53139829505164L227.94186028588612,97.53984093582432L228.19142870025635,97.56607058521965L228.77414192822775,97.62612384047496L229.47061192181906,97.69266599450215L229.57740398750306,97.70147109419806L229.72366268615724,97.71636727189644L230.0591290664037,97.74987262114091L230.60353644472758,97.80126664431576L230.6105011446635,97.80196062054681L230.64996777763366,97.80585926408686L230.80086960957846,97.82095435216995L231.19089280598956,97.85904348072398L231.2245555223465,97.86164257641735L231.52868075288137,97.8902193683521L231.58555913569134,97.89597008858522L231.78637465051014,97.91515389013152L232.11835868078867,97.94401357683562L232.52347206039428,97.98358348269794L232.55829556007387,97.98689865577622L232.85893844064077,98.00943299224697L233.375487019221,98.05850639426701L233.3801301525116,98.0591031254211L233.44397323525746,98.06509253811586L233.62853778355915,98.08189383527657L233.66336128323874,98.08500125750861L233.78408274879456,98.09707732797509L233.856051314799,98.10387122267016L234.0568668296178,98.12412029983228L234.58038010813394,98.17032939231271L235.0621051870346,98.21561907679275L235.44864603347776,98.25197105465377L235.511328332901,98.25780575927153L235.57517141564688,98.26356089973542L235.58097533226012,98.26408690719717L235.90019074598948,98.29334883490144L235.95474756215413,98.2984055789035L235.95706912879945,98.29856470721126L236.20431597652436,98.3220759146824L236.3343237086614,98.33409452214886L236.58040977306368,98.35624429854252L236.70925672187803,98.36771921762413L236.72086455510458,98.36897014293234L236.97391531944274,98.39204816778792L237.66574217974346,98.44704909927194L237.67735001296995,98.4481983592724L237.75860484555562,98.45546521865998L238.02906735973357,98.4819866032862L238.67562367045085,98.53902968138644L239.1283291662852,98.57886480109502L239.39182698052724,98.6034545448743L239.40691716372172,98.60470547018251L239.65068166147867,98.62428267226743L239.74586589393616,98.63264574888623L239.92114417565662,98.64702033935365L239.9536461086909,98.64965921712395L240.1962498231252,98.66902424813186L240.32277520529428,98.68160422490624L240.38777907136281,98.68701458736999L240.44581823749542,98.69240284867988L240.4585868540446,98.69355210868035L240.97977856591544,98.73795774700618L241.0656765317917,98.74554728324006L241.37792724558514,98.77266539902037L241.43132327842713,98.77724917832992L241.52534672756195,98.7855857335641L241.88054642429353,98.8159261975765L242.87301616516115,98.89831929914862L242.89739261493685,98.90033050414945L242.9055180981954,98.90104658153436L242.93221611461638,98.90356611307385L242.97864744752246,98.9082294565373L243.27580797812146,98.93167436054688L243.44528234322868,98.94459469509061L243.68788605766295,98.96335857471367L244.02335243790944,98.99002140672457L244.1580033033371,99.00111176572909L244.2787247688929,99.01157445196414L246.33679359995523,99.18086929049485L247.63454935468036,99.29011971423179L247.83536486949922,99.3072260073157L248.0977019004186,99.32788616593953L248.13949010003407,99.33052946394062L248.84292479356128,99.38771398942552L248.9497168592453,99.3955775799672L249.1296382742564,99.41023064497318L249.51966147066753,99.44231710014014L249.89691605052948,99.47141105907511L249.91432780036925,99.47260010115251L250.03388848260244,99.48289039838748L250.1650569980621,99.49244693731447L250.28810003026325,99.50316599693423L250.6247271938324,99.53232625933076L251.30610700422923,99.58318543458232L251.57308716843923,99.6054987595145L251.63112633457183,99.6102151457472L251.89694571545917,99.63055704775552L252.0397220641454,99.64324753029916L252.15115726312004,99.65197748607196L252.7338704910914,99.69630798047469L252.9532585390727,99.71155777663476L253.2852425693512,99.73854328549194L253.5278462837855,99.75765194311514L254.03975172907514,99.79667816059262L254.04439486236575,99.79713786459281L254.5133513247172,99.83618176299338L254.54585325775145,99.83887368353294L254.98114700374603,99.86846712854503L254.98462935371398,99.86871466146822L255.1274057024002,99.88039733139607L255.26669970111848,99.89203137878543L255.42920936628977,99.9035726013286L255.61841704788208,99.91909645179649L255.68226013062795,99.923353134029L256.42748302377066,99.97959615035967L256.9997492018382,100.02165022591532L257.2400313496272,100.03901289238395L257.4454899977366,100.05296756092811L257.6021957462947,100.06530884524085L258.09320709177655,100.10392398125663L258.23134030717216,100.11402862879922L258.52269692115783,100.1369696265009L258.8198574517568,100.15994598604875L259.1239826822917,100.18294444675045L259.42926869614917,100.20647775537546L260.167526889356,100.2609703603208L260.27315817171734,100.26901518032409L260.89069489936827,100.31311140249595L261.07525944766996,100.32639861619369L261.5175178936005,100.35997910936125L261.67886677544914,100.37177228505838L261.83789409065247,100.38351241798625L262.4658778682073,100.43064091846705L262.96269313030245,100.46836316786708L263.55701419150034,100.51009456657644L264.2058920688629,100.55240059528603L264.4403703000387,100.56528998821437L264.5262682659149,100.56987818775471L264.89423657919565,100.59620066199624" fill="none"></path></g></g></g></g></g></g><g transform="translate(51, 177)" clip-path="url(#clip_1)"><clipPath id="clip_1"><rect width="278" height="22"></rect></clipPath><g><g><line x1="0" y1="0" x2="0" y2="5" style="visibility: inherit;" fill="rgb(0, 0, 0)" stroke="rgb(204, 204, 204)" stroke-width="1px"></line><line x1="23.215666453043617" y1="0" x2="23.215666453043617" y2="5" style="visibility: inherit;" fill="rgb(0, 0, 0)" stroke="rgb(204, 204, 204)" stroke-width="1px"></line><line x1="46.431332906087235" y1="0" x2="46.431332906087235" y2="5" style="visibility: inherit;" fill="rgb(0, 0, 0)" stroke="rgb(204, 204, 204)" stroke-width="1px"></line><line x1="69.64699935913086" y1="0" x2="69.64699935913086" y2="5" style="visibility: inherit;" fill="rgb(0, 0, 0)" stroke="rgb(204, 204, 204)" stroke-width="1px"></line><line x1="92.86266581217447" y1="0" x2="92.86266581217447" y2="5" style="visibility: inherit;" fill="rgb(0, 0, 0)" stroke="rgb(204, 204, 204)" stroke-width="1px"></line><line x1="116.07833226521811" y1="0" x2="116.07833226521811" y2="5" style="visibility: inherit;" fill="rgb(0, 0, 0)" stroke="rgb(204, 204, 204)" stroke-width="1px"></line><line x1="139.29399871826172" y1="0" x2="139.29399871826172" y2="5" style="visibility: inherit;" fill="rgb(0, 0, 0)" stroke="rgb(204, 204, 204)" stroke-width="1px"></line><line x1="162.50966517130536" y1="0" x2="162.50966517130536" y2="5" style="visibility: inherit;" fill="rgb(0, 0, 0)" stroke="rgb(204, 204, 204)" stroke-width="1px"></line><line x1="185.72533162434894" y1="0" x2="185.72533162434894" y2="5" style="visibility: inherit;" fill="rgb(0, 0, 0)" stroke="rgb(204, 204, 204)" stroke-width="1px"></line><line x1="208.94099807739258" y1="0" x2="208.94099807739258" y2="5" style="visibility: inherit;" fill="rgb(0, 0, 0)" stroke="rgb(204, 204, 204)" stroke-width="1px"></line><line x1="232.15666453043622" y1="0" x2="232.15666453043622" y2="5" style="visibility: inherit;" fill="rgb(0, 0, 0)" stroke="rgb(204, 204, 204)" stroke-width="1px"></line><line x1="255.3723309834798" y1="0" x2="255.3723309834798" y2="5" style="visibility: inherit;" fill="rgb(0, 0, 0)" stroke="rgb(204, 204, 204)" stroke-width="1px"></line><line x1="278.58799743652344" y1="0" x2="278.58799743652344" y2="5" style="visibility: inherit;" fill="rgb(0, 0, 0)" stroke="rgb(204, 204, 204)" stroke-width="1px"></line></g><g transform="translate(0, 8)"><text style="text-anchor: middle; visibility: hidden; font-family: &quot;Helvetica Neue&quot;, sans-serif; font-size: 12px; font-weight: 200;" x="0" y="0" dx="0em" dy="0.95em" fill="rgb(50, 49, 63)" stroke="none" stroke-width="1px">-20k</text><text style="text-anchor: middle; visibility: inherit; font-family: &quot;Helvetica Neue&quot;, sans-serif; font-size: 12px; font-weight: 200;" x="23.215666453043617" y="0" dx="0em" dy="0.95em" fill="rgb(50, 49, 63)" stroke="none" stroke-width="1px">0</text><text style="text-anchor: middle; visibility: hidden; font-family: &quot;Helvetica Neue&quot;, sans-serif; font-size: 12px; font-weight: 200;" x="46.431332906087235" y="0" dx="0em" dy="0.95em" fill="rgb(50, 49, 63)" stroke="none" stroke-width="1px">20k</text><text style="text-anchor: middle; visibility: inherit; font-family: &quot;Helvetica Neue&quot;, sans-serif; font-size: 12px; font-weight: 200;" x="69.64699935913086" y="0" dx="0em" dy="0.95em" fill="rgb(50, 49, 63)" stroke="none" stroke-width="1px">40k</text><text style="text-anchor: middle; visibility: hidden; font-family: &quot;Helvetica Neue&quot;, sans-serif; font-size: 12px; font-weight: 200;" x="92.86266581217447" y="0" dx="0em" dy="0.95em" fill="rgb(50, 49, 63)" stroke="none" stroke-width="1px">60k</text><text style="text-anchor: middle; visibility: inherit; font-family: &quot;Helvetica Neue&quot;, sans-serif; font-size: 12px; font-weight: 200;" x="116.07833226521811" y="0" dx="0em" dy="0.95em" fill="rgb(50, 49, 63)" stroke="none" stroke-width="1px">80k</text><text style="text-anchor: middle; visibility: hidden; font-family: &quot;Helvetica Neue&quot;, sans-serif; font-size: 12px; font-weight: 200;" x="139.29399871826172" y="0" dx="0em" dy="0.95em" fill="rgb(50, 49, 63)" stroke="none" stroke-width="1px">100k</text><text style="text-anchor: middle; visibility: inherit; font-family: &quot;Helvetica Neue&quot;, sans-serif; font-size: 12px; font-weight: 200;" x="162.50966517130536" y="0" dx="0em" dy="0.95em" fill="rgb(50, 49, 63)" stroke="none" stroke-width="1px">120k</text><text style="text-anchor: middle; visibility: hidden; font-family: &quot;Helvetica Neue&quot;, sans-serif; font-size: 12px; font-weight: 200;" x="185.72533162434894" y="0" dx="0em" dy="0.95em" fill="rgb(50, 49, 63)" stroke="none" stroke-width="1px">140k</text><text style="text-anchor: middle; visibility: inherit; font-family: &quot;Helvetica Neue&quot;, sans-serif; font-size: 12px; font-weight: 200;" x="208.94099807739258" y="0" dx="0em" dy="0.95em" fill="rgb(50, 49, 63)" stroke="none" stroke-width="1px">160k</text><text style="text-anchor: middle; visibility: hidden; font-family: &quot;Helvetica Neue&quot;, sans-serif; font-size: 12px; font-weight: 200;" x="232.15666453043622" y="0" dx="0em" dy="0.95em" fill="rgb(50, 49, 63)" stroke="none" stroke-width="1px">180k</text><text style="text-anchor: middle; visibility: inherit; font-family: &quot;Helvetica Neue&quot;, sans-serif; font-size: 12px; font-weight: 200;" x="255.3723309834798" y="0" dx="0em" dy="0.95em" fill="rgb(50, 49, 63)" stroke="none" stroke-width="1px">200k</text><text style="text-anchor: middle; visibility: hidden; font-family: &quot;Helvetica Neue&quot;, sans-serif; font-size: 12px; font-weight: 200;" x="278.58799743652344" y="0" dx="0em" dy="0.95em" fill="rgb(50, 49, 63)" stroke="none" stroke-width="1px">220k</text></g><line x1="0" y1="0" x2="278.58799743652344" y2="0" fill="rgb(0, 0, 0)" stroke="rgb(204, 204, 204)" stroke-width="1px"></line></g></g></g></g></svg>