<svg viewBox="0 0 330 200" xmlns="http://www.w3.org/2000/svg"><g><g><g><g><g><line x1="51.41200256347656" y1="177.98199939727783" x2="46.41200256347656" y2="177.98199939727783" style="visibility: inherit;" fill="rgb(0, 0, 0)" stroke="rgb(204, 204, 204)" stroke-width="1px"></line><line x1="51.41200256347656" y1="155.7342494726181" x2="46.41200256347656" y2="155.7342494726181" style="visibility: inherit;" fill="rgb(0, 0, 0)" stroke="rgb(204, 204, 204)" stroke-width="1px"></line><line x1="51.41200256347656" y1="133.48649954795837" x2="46.41200256347656" y2="133.48649954795837" style="visibility: inherit;" fill="rgb(0, 0, 0)" stroke="rgb(204, 204, 204)" stroke-width="1px"></line><line x1="51.41200256347656" y1="111.23874962329865" x2="46.41200256347656" y2="111.23874962329865" style="visibility: inherit;" fill="rgb(0, 0, 0)" stroke="rgb(204, 204, 204)" stroke-width="1px"></line><line x1="51.41200256347656" y1="88.99099969863892" x2="46.41200256347656" y2="88.99099969863892" style="visibility: inherit;" fill="rgb(0, 0, 0)" stroke="rgb(204, 204, 204)" stroke-width="1px"></line><line x1="51.41200256347656" y1="66.74324977397919" x2="46.41200256347656" y2="66.74324977397919" style="visibility: inherit;" fill="rgb(0, 0, 0)" stroke="rgb(204, 204, 204)" stroke-width="1px"></line><line x1="51.41200256347656" y1="44.49549984931946" x2="46.41200256347656" y2="44.49549984931946" style="visibility: inherit;" fill="rgb(0, 0, 0)" stroke="rgb(204, 204, 204)" stroke-width="1px"></line><line x1="51.41200256347656" y1="22.24774992465973" x2="46.41200256347656" y2="22.24774992465973" style="visibility: inherit;" fill="rgb(0, 0, 0)" stroke="rgb(204, 204, 204)" stroke-width="1px"></line><line x1="51.41200256347656" y1="0" x2="46.41200256347656" y2="0" style="visibility: inherit;" fill="rgb(0, 0, 0)" stroke="rgb(204, 204, 204)" stroke-width="1px"></line></g><g transform="translate(41.41200256347656, 0)"><text style="text-anchor: end; visibility: hidden; font-family: &quot;Helvetica Neue&quot;, sans-serif; font-size: 12px; font-weight: 200;" x="0" y="177.98199939727783" dx="0em" dy="0.3em" fill="rgb(50, 49, 63)" stroke="none" stroke-width="1px">-0.5</text><text style="text-anchor: end; visibility: inherit; font-family: &quot;Helvetica Neue&quot;, sans-serif; font-size: 12px; font-weight: 200;" x="0" y="155.7342494726181" dx="0em" dy="0.3em" fill="rgb(50, 49, 63)" stroke="none" stroke-width="1px">0</text><text style="text-anchor: end; visibility: hidden; font-family: &quot;Helvetica Neue&quot;, sans-serif; font-size: 12px; font-weight: 200;" x="0" y="133.48649954795837" dx="0em" dy="0.3em" fill="rgb(50, 49, 63)" stroke="none" stroke-width="1px">0.5</text><text style="text-anchor: end; visibility: inherit; font-family: &quot;Helvetica Neue&quot;, sans-serif; font-size: 12px; font-weight: 200;" x="0" y="111.23874962329865" dx="0em" dy="0.3em" fill="rgb(50, 49, 63)" stroke="none" stroke-width="1px">1</text><text style="text-anchor: end; visibility: hidden; font-family: &quot;Helvetica Neue&quot;, sans-serif; font-size: 12px; font-weight: 200;" x="0" y="88.99099969863892" dx="0em" dy="0.3em" fill="rgb(50, 49, 63)" stroke="none" stroke-width="1px">1.5</text><text style="text-anchor: end; visibility: inherit; font-family: &quot;Helvetica Neue&quot;, sans-serif; font-size: 12px; font-weight: 200;" x="0" y="66.74324977397919" dx="0em" dy="0.3em" fill="rgb(50, 49, 63)" stroke="none" stroke-width="1px">2</text><text style="text-anchor: end; visibility: hidden; font-family: &quot;Helvetica Neue&quot;, sans-serif; font-size: 12px; font-weight: 200;" x="0" y="44.49549984931946" dx="0em" dy="0.3em" fill="rgb(50, 49, 63)" stroke="none" stroke-width="1px">2.5</text><text style="text-anchor: end; visibility: inherit; font-family: &quot;Helvetica Neue&quot;, sans-serif; font-size: 12px; font-weight: 200;" x="0" y="22.24774992465973" dx="0em" dy="0.3em" fill="rgb(50, 49, 63)" stroke="none" stroke-width="1px">3</text><text style="text-anchor: end; visibility: hidden; font-family: &quot;Helvetica Neue&quot;, sans-serif; font-size: 12px; font-weight: 200;" x="0" y="0" dx="0em" dy="0.3em" fill="rgb(50, 49, 63)" stroke="none" stroke-width="1px">3.5</text></g><line x1="51.41200256347656" y1="0" x2="51.41200256347656" y2="177.98199939727783" fill="rgb(0, 0, 0)" stroke="rgb(204, 204, 204)" stroke-width="1px"></line></g></g><g transform="translate(51, 0)" clip-path="url(#clip_0)"><clipPath id="clip_0"><rect width="278" height="177"></rect></clipPath><g><g><g><line x1="0" y1="0" x2="0" y2="177.98199939727783" fill="rgb(0, 0, 0)" stroke="rgb(60, 60, 60)" stroke-width="1px" opacity="0.25"></line><line x1="23.215666453043617" y1="0" x2="23.215666453043617" y2="177.98199939727783" fill="rgb(0, 0, 0)" stroke="rgb(60, 60, 60)" stroke-width="1px" opacity="0.25"></line><line x1="46.431332906087235" y1="0" x2="46.431332906087235" y2="177.98199939727783" fill="rgb(0, 0, 0)" stroke="rgb(60, 60, 60)" stroke-width="1px" opacity="0.25"></line><line x1="69.64699935913086" y1="0" x2="69.64699935913086" y2="177.98199939727783" fill="rgb(0, 0, 0)" stroke="rgb(60, 60, 60)" stroke-width="1px" opacity="0.25"></line><line x1="92.86266581217447" y1="0" x2="92.86266581217447" y2="177.98199939727783" fill="rgb(0, 0, 0)" stroke="rgb(60, 60, 60)" stroke-width="1px" opacity="0.25"></line><line x1="116.07833226521811" y1="0" x2="116.07833226521811" y2="177.98199939727783" fill="rgb(0, 0, 0)" stroke="rgb(60, 60, 60)" stroke-width="1px" opacity="0.25"></line><line x1="139.29399871826172" y1="0" x2="139.29399871826172" y2="177.98199939727783" fill="rgb(0, 0, 0)" stroke="rgb(60, 60, 60)" stroke-width="1px" opacity="0.25"></line><line x1="162.50966517130536" y1="0" x2="162.50966517130536" y2="177.98199939727783" fill="rgb(0, 0, 0)" stroke="rgb(60, 60, 60)" stroke-width="1px" opacity="0.25"></line><line x1="185.72533162434894" y1="0" x2="185.72533162434894" y2="177.98199939727783" fill="rgb(0, 0, 0)" stroke="rgb(60, 60, 60)" stroke-width="1px" opacity="0.25"></line><line x1="208.94099807739258" y1="0" x2="208.94099807739258" y2="177.98199939727783" fill="rgb(0, 0, 0)" stroke="rgb(60, 60, 60)" stroke-width="1px" opacity="0.25"></line><line x1="232.15666453043622" y1="0" x2="232.15666453043622" y2="177.98199939727783" fill="rgb(0, 0, 0)" stroke="rgb(60, 60, 60)" stroke-width="1px" opacity="0.25"></line><line x1="255.3723309834798" y1="0" x2="255.3723309834798" y2="177.98199939727783" fill="rgb(0, 0, 0)" stroke="rgb(60, 60, 60)" stroke-width="1px" opacity="0.25"></line><line x1="278.58799743652344" y1="0" x2="278.58799743652344" y2="177.98199939727783" fill="rgb(0, 0, 0)" stroke="rgb(60, 60, 60)" stroke-width="1px" opacity="0.25"></line></g><g><line x1="0" y1="177.98199939727783" x2="278.58799743652344" y2="177.98199939727783" fill="rgb(0, 0, 0)" stroke="rgb(60, 60, 60)" stroke-width="1px" opacity="0.25"></line><line x1="0" y1="155.7342494726181" x2="278.58799743652344" y2="155.7342494726181" fill="rgb(0, 0, 0)" stroke="rgb(60, 60, 60)" stroke-width="1px" opacity="0.25"></line><line x1="0" y1="133.48649954795837" x2="278.58799743652344" y2="133.48649954795837" fill="rgb(0, 0, 0)" stroke="rgb(60, 60, 60)" stroke-width="1px" opacity="0.25"></line><line x1="0" y1="111.23874962329865" x2="278.58799743652344" y2="111.23874962329865" fill="rgb(0, 0, 0)" stroke="rgb(60, 60, 60)" stroke-width="1px" opacity="0.25"></line><line x1="0" y1="88.99099969863892" x2="278.58799743652344" y2="88.99099969863892" fill="rgb(0, 0, 0)" stroke="rgb(60, 60, 60)" stroke-width="1px" opacity="0.25"></line><line x1="0" y1="66.74324977397919" x2="278.58799743652344" y2="66.74324977397919" fill="rgb(0, 0, 0)" stroke="rgb(60, 60, 60)" stroke-width="1px" opacity="0.25"></line><line x1="0" y1="44.49549984931946" x2="278.58799743652344" y2="44.49549984931946" fill="rgb(0, 0, 0)" stroke="rgb(60, 60, 60)" stroke-width="1px" opacity="0.25"></line><line x1="0" y1="22.24774992465973" x2="278.58799743652344" y2="22.24774992465973" fill="rgb(0, 0, 0)" stroke="rgb(60, 60, 60)" stroke-width="1px" opacity="0.25"></line><line x1="0" y1="0" x2="278.58799743652344" y2="0" fill="rgb(0, 0, 0)" stroke="rgb(60, 60, 60)" stroke-width="1px" opacity="0.25"></line></g></g></g><g><g><line x1="0" y1="155.7342494726181" x2="278.58799743652344" y2="155.7342494726181" fill="rgb(0, 0, 0)" stroke="rgb(153, 153, 153)" stroke-width="1.5px"></line></g></g><g><g><line x1="23.215666453043617" y1="0" x2="23.215666453043617" y2="177.98199939727783" fill="rgb(0, 0, 0)" stroke="rgb(153, 153, 153)" stroke-width="1.5px"></line></g></g><g><g><g><g><g><path style="fill: none;" stroke="rgb(238, 51, 119)" stroke-width="2px" d="M31.302843861961367,-2.225345732663129L31.522231909942626,1.1189478259341286L31.876270823351543,6.163272747626024L31.879753173319497,6.210809677430063L32.268615586407975,8.50950295141547L32.3092430027008,9.019880477162474L32.57970551687876,12.321198784111402L32.71203481566111,13.874991232377056L32.75962693188985,14.423792940170529L33.08116391226451,17.996329534861047L33.52226157487234,22.5435694487806L33.58842622426351,23.19214460553792L33.96568080412547,26.742657842434824L34.20712373523712,28.889606362142842L34.30695110098521,29.750246510371426L34.47410389944712,31.15658006011529L35.28781300862631,37.45025315167152L35.38067567443848,38.11615207686668L35.43058935731252,38.46953361418031L35.875169369888305,41.4964510672325L35.94597715257009,41.95919618619081L36.00865945199331,42.36458085447953L36.60298051319122,46.018315320341685L36.642447146161395,46.249571185728485L37.11024282519023,48.89113292016168L37.11604674180349,48.92278884485154L37.3365955731074,50.10690501708922L37.482854271761575,50.87261982546363L38.16423408215841,54.24014611699346L38.346477063814795,55.090039800171496L38.37781821352641,55.23385996472257L39.026696090888976,58.088897628289146L39.80906405035655,61.23379280871262L40.243197013028464,62.85417514949779L40.372043961842856,63.3190844134416L40.48115759417216,63.707898520615856L41.177627587763475,66.07874056933844L41.51541553465525,66.38172086730839L41.92401126422882,67.61752721818257L42.784151706314084,70.12067915052845L43.026755420748394,70.78921430135546L43.06273970375061,70.88718429616472L43.31811203473409,71.57072524641325L43.34364926783243,71.63806304197922L43.58044906565348,72.25542252903148L43.59670003217062,72.29738466378708L44.634440322621664,74.839416945995L45.88808631108602,77.60252088189324L46.014611693255105,77.86446198929258L46.120242975616456,78.08110457175033L46.42668977279663,78.69856484006417L46.49401520551046,78.83179236359553L46.504462255414325,78.85250026071168L46.71572482013702,79.26567160752666L46.80742670262655,79.44256393870663L47.05815590031941,79.91955104120922L47.103426449902855,80.00478546712097L47.33674389775594,80.43823506462115L47.3402262477239,80.44463732686992L47.4249634302775,80.60010037927191L47.686139677874245,81.07167711931075L47.76042981052399,81.20424691250338L47.86257874291738,81.38479919476177L47.963566891988116,81.56226438784967L48.57762126967112,82.60883535513884L49.03845224876403,83.36136903535402L49.137118831189476,83.518890147203L49.16962076422373,83.57059093439335L50.07503175589243,84.95866716296052L50.08663958911895,84.97587954158294L50.24682768764496,85.21187743054091L50.33388643684387,85.33887242868511L50.41049813613892,85.45025163556139L50.54166665159861,85.63929606517709L50.6925684835434,85.85459136129583L50.72855276654562,85.90563972242438L51.246262128448485,86.62526566859535L51.40296787700653,86.83781334926681L51.40528944365183,86.84095878548348L51.44939920991262,86.90047807686165L51.79647342338562,87.36133487323457L51.91951645558675,87.52209159400795L52.159798603375755,87.8321318845654L52.530088483301796,88.20434360496364L52.690276581827796,88.12787714880932L53.17896636066436,88.70907207578526L53.2195937769572,88.75761151392817L53.30549174283345,88.85981432172377L53.74891097208659,89.38035484205955L54.32233793347677,90.03262177555683L54.32349871679942,90.03392662768044L54.7367375796636,90.49007322614375L55.144172525914506,90.92778746229183L55.257929291534424,91.04818924421795L55.29855670782725,91.0909151948508L55.62125447152455,91.4266440985572L56.227183365948996,92.03940477751527L56.349065614827474,92.1598702107645L56.84472009359996,92.64167359671521L56.874900459988915,92.67042277765003L56.95151215928396,92.74350510512605L57.112861041132604,92.89607202232685L57.18482960713704,92.96385007287762L57.426272538248696,93.1887567187849L57.84183296775818,93.56878694337095L58.04613083254497,93.75211336246124L58.076311198933915,93.77891056948758L58.24230321407318,93.92572765050141L58.41990306243896,94.08132330982653L58.58589507757822,94.22531851551614L58.750726309394835,94.36735644302033L58.85983994172414,94.46050485010454L58.876090908241274,94.47437553426406L59.67238826758067,95.1361530362883L59.7153372505188,95.17095439719483L60.22259956251781,95.33187024627597L60.28760342858633,95.38164027666554L60.60217570902506,95.62598179322691L60.866834306589766,95.82988880678715L60.99103812211355,95.92471336537974L61.12452820421855,96.02617887868274L61.24641045309702,96.1182239961665L61.39963385168712,96.23290776756721L61.408920118268334,96.23986167461621L61.56214351685842,96.35413171241674L61.732778665288286,96.47981655416041L61.95797062988281,96.64424913884298L61.99047256291708,96.66792212676035L62.3781741926829,96.94641257816644L62.39210359255473,96.9562785332474L62.43389179217021,96.9860090054134L62.49657409159342,97.03032623912381L62.53952307453156,97.0606242689208L62.58247205746968,97.09095412437935L62.7252484061559,97.1908973102048L63.103663769340514,97.45229207708084L63.292871450932815,97.5812337448566L63.378769416809085,97.63945879266501L64.25516082541148,98.21885026548637L64.40490187403361,98.31512289167955L64.73920747095744,98.52755387825866L64.95047003568014,98.65994332603583L65.04797583478292,98.72047043002979L65.73515956179301,98.98258657856766L65.76998306147257,99.00302395756063L65.89534766031902,99.07696557789853L65.99169267609915,99.1338804693064L66.40028840567271,99.3721538930653L66.73343321927389,99.56277899720473L67.05264863300323,99.74136869700078L67.18265636514028,99.81303478253776L67.85474990895588,100.16500538218926L68.16235748945873,100.26785531176975L68.30165148817699,100.32639331191675L68.46532193667093,100.39767218523818L68.83096868330637,100.55700205551867L69.30224671230316,100.74250322814831L69.54252886009216,100.8145724387316L69.67137580890656,100.84010722784973L69.99175200595856,100.92878943376289L70.22855180377961,100.99402673566647L70.42240261866252,101.04502205402576L70.48392413476307,101.05815544369267L70.5686613173167,101.07762744428524L70.85537479801178,101.1509696813306L71.12351574554444,101.18119345125064L71.43460567601522,101.24386878739932L72.12527175299326,101.31204465871949L72.49207928295135,101.34882981919606L72.5129733827591,101.35161986885873L72.75673788051606,101.37563233049931L73.7317958715439,101.42926387449046L73.8722506535848,101.43048385818327L73.95582705281576,101.43049977101404L73.98716820252736,101.43086046184496L73.99181133581797,101.43058463944485L74.06494068514505,101.43266391599954L74.28316794980367,101.4338945082462L74.37603061561585,101.42587974581215L74.52345009759267,101.42496210590409L74.53157558085124,101.4225486599031L74.58265004704793,101.42123319922564L74.6441715631485,101.42073990147159L75.2384926243464,101.40437090288029L75.41028855609895,101.39383130462983L75.88388815174103,101.38082521760913L76.04059390029909,101.37321888449833L76.21587218201955,101.36651427846482L76.98198917497,101.29788754360601L77.00056170813242,101.29646599739004L77.09226359062195,101.28962348015648L78.12303918113707,101.18529896159077L78.51422316087087,101.1186135920866L78.59199564348857,101.1083179905747L78.63726619307201,101.10372448675744L78.797454291598,101.08350458311841L78.8729052075704,101.0728058565602L78.89960322399139,101.06887538735859L79.02264625619252,101.05057032768957L79.14452850507101,101.0327797828823L79.19792453791301,101.02588952715641L79.5403556180954,100.96788195470194L80.41094311008453,100.82857042553732L80.50264499257405,100.80988345792969L80.64890369122823,100.78328781342651L81.26295806891123,100.66903899273368L81.32099723504385,100.65788409835989L81.44752261721293,100.6217672767759L81.48234611689249,100.61397529397271L82.20667491022745,100.45159546446021L82.39240024185182,100.41742531250779L82.5723216568629,100.38261334304741L82.68027450586955,100.35601239426731L83.34308178310394,100.21230892380859L83.57872079760233,100.15783399978633L83.91650874449412,100.08456602261793L83.9873165271759,100.06649965541055L84.1695595088323,100.02428821963946L84.36921424032846,99.97231161004899L84.62922970460255,99.91550280417962L84.66753555425008,99.90781690691495L84.84513540261587,99.86743014240614L84.86254715245565,99.86365880151229L85.28158993193308,99.7476966993726L85.55785636272431,99.67568583583548L85.57062497927348,99.67162275971074L85.73893856105805,99.63222789498695L85.79001302725473,99.61875503159683L86.04190300827027,99.55574022172493L86.70122793553669,99.38059830193029L86.83587880096435,99.34020623314456L86.98678063290913,99.29861009349679L87.03901588242849,99.28401272339852L87.40698419570923,99.18461587809637L87.69021532643636,99.09583289092163L87.69950159301759,99.09355205184377L87.88754849128723,99.04174517911491L87.9490700073878,99.02586947827766L88.6118772846222,98.81350744729858L88.80921044947306,98.75570143736726L88.8254614159902,98.75111854210385L88.92644956506093,98.72259214079989L89.13422977981568,98.65406088292573L89.1725356294632,98.6425824276595L89.7355155409495,98.47573109269902L89.94329575570424,98.41184107713445L91.05300461215973,98.06926965619448L91.18765547758738,98.02549876300736L91.37686315917969,97.95852696254923L91.40820430889129,97.9459770433441L91.42793762537639,97.93850862143336L92.00949007002512,97.74627101710865L92.06404688618979,97.72666640959295L92.20450166823069,97.68441253960646L92.44594459934235,97.59871664160221L92.48076809902192,97.5880603492594L93.07160681025188,97.39801341130482L93.07857151018779,97.3955522268115L93.10410874328613,97.38705477517726L93.20857924232483,97.34761747623807L93.41519867375692,97.28600299547443L94.262570499293,96.99512705744789L94.34498611520131,96.9697248752529L94.8139425775528,96.81775203706772L95.34674212265014,96.62798622579018L95.78435743529002,96.47538748292783L95.82034171829223,96.46353772827683L96.1999178647995,96.3188635751408L96.37403536319732,96.26342857699507L96.60154889443714,96.18414554979344L96.94165840797423,96.06346264119028L97.12506217295329,96.0072797399981L97.35025413754781,95.92872339873523L98.11172799720765,95.66680350844359L98.3044180287679,95.60149725093999L98.53889625994364,95.5204797251838L99.00669193897248,95.34971913812942L99.36537398567201,95.22251727318513L99.41412688522338,95.20654609536322L99.88540491422017,95.03188156049185L100.17443996156057,94.93061760971202L100.74206300633747,94.73505952803211L100.96145105431876,94.65352748741418L101.01368630383809,94.63103204897422L101.50005451602935,94.47401484343314L102.47627329037985,94.11899428454961L102.5888692726771,94.08534925601279L102.64806922213236,94.06309781431139L102.83495533707936,93.9960305368686L103.50937044754028,93.77739354628696L103.52562141405741,93.77240752597723L103.8390329111735,93.66609920784148L104.14547970835369,93.575666590543L104.2371815908432,93.54403718723776L104.3729932395935,93.49354577518636L105.00794171708425,93.28518847328584L105.1449141491572,93.23518505471156L105.23313368167878,93.20544927826865L105.53377656224569,93.10625399548965L105.62780001138051,93.07547858076938L106.12925840676625,92.92666709163166L106.27551710542042,92.88312428235233L106.3056974718094,92.87182086822463L106.44034833723705,92.82578504879044L106.684112834994,92.73942081189361L106.74331278444926,92.71839465816194L106.7688500175476,92.71106945172818L106.80715586719512,92.69894387467707L106.83617545026144,92.68986825685798L107.137979114151,92.59817322165128L107.1403006807963,92.59740410149712L107.25870057970683,92.5627088261291L107.26218292967478,92.56169570923637L107.44094356136323,92.50489751192086L107.63247280960084,92.43556530823099L107.80659030799866,92.37056669878905L107.96445683987936,92.3218522195076L108.16179000473022,92.26424777209945L108.87567174816132,92.04139918563916L108.93022856432597,92.02302517037012L108.9998755636851,92.00287422233112L109.0265735801061,91.99529441060494L109.33185959396363,91.89790788625746L110.16065888633729,91.62741628445463L110.84087791341145,91.42520133523354L110.93374057922364,91.39465400442106L111.35278335870107,91.27188651498628L111.68941052227021,91.16323370644957L111.93665736999512,91.08216844220107L111.99585731945038,91.0596730037611L112.1630101179123,91.01371144420386L112.21756693407694,90.99645132708912L112.35337858282726,90.96006398738194L112.4880294482549,90.9228438761975L112.49615493151346,90.92104042204292L112.82697817846935,90.82186635637163L113.21235824158987,90.7056019104472L113.64300885429383,90.57730736445632L113.91463215179444,90.49108103875955L113.99936933434803,90.46155212911671L114.65753347829184,90.26395720509751L114.73646674423217,90.24054412674948L114.8258470600764,90.2121821580302L114.84209802659352,90.20725448476665L114.88736857617695,90.19459317574609L114.92451364250182,90.1818204769101L115.40391715475718,90.03879595389782L115.61169736951192,89.97578114402592L116.05047346547444,89.84827163101997L116.11547733154298,89.82846015670418L116.19557138080597,89.80592758832574L116.27102229677836,89.78647680484087L116.53219854437509,89.71285874539541L116.55077107753755,89.70795759351648L116.71792387599946,89.65834138715775L116.74810424238841,89.65092600801626L116.79105322532654,89.63850869573426L117.23563323790232,89.51030962672803L117.25768812103271,89.5020667803862L117.37608801994324,89.46496866757104L117.68253481712341,89.37401623113388L117.81370333258312,89.33482823321017L117.85433074887592,89.3223101396666L119.25539621931712,88.92166749494905L119.2948628522873,88.9118015398681L119.38656473477681,88.88760873281205L119.87177216364543,88.75648170294309L120.44635990835825,88.59187938139891L120.95130065371195,88.44914659361751L121.19738671811422,88.38013264654316L121.42025711606344,88.31569629045529L121.51892369848888,88.28536643499675L121.67214709707896,88.24183953854819L121.9867193775177,88.15307246420423L122.07958204332986,88.13103849785676L122.47308758970897,88.02166961193515L122.50907187271117,88.00794214325262L122.5473777223587,87.99595447740157L122.67970702114106,87.95681421797019L122.75283637046813,87.9353849391922L123.06044395097096,87.85095145909617L123.94960397612253,87.59075015452831L124.04827055854797,87.56456293934838L124.21426257368724,87.52132777813071L124.66116415290833,87.4098583985467L124.7273288022995,87.39366974537086L124.97805799999237,87.32195061706463L125.16726568158467,87.26942766695086L125.52478694496155,87.16628069786256L126.14812758922577,87.00297792416507L126.31179803771974,86.95985945703976L126.83066818294526,86.81991141464411L126.92933476537068,86.7974690189734L126.94790729853312,86.79309299051008L127.39132652778625,86.67713088837039L127.65598512535095,86.60711443295716L127.7279536913554,86.58927084538064L127.96243192253112,86.5211427125528L128.20967877025606,86.45490290231035L128.95722323004404,86.24807853644123L129.1963445945104,86.18666031392382L129.5724383910497,86.08481289268221L129.59565405750274,86.07919035914145L129.5991364074707,86.07822498074106L129.69780298989613,86.05033509266812L129.7012853398641,86.04910980469839L130.1481869190852,85.92630518532513L130.85510396258036,85.73461392152373L130.92359017861685,85.71644677305477L131.31593494167328,85.61561246870588L131.42853092397053,85.58440210327774L131.71640518798827,85.50778712736951L132.21554201672873,85.37923797608622L132.95263942661285,85.18353667892933L133.2405136906306,85.10552667818976L133.55740753771462,85.02122580501685L133.70482701969146,84.9798842706615L133.86385433489482,84.93576859947424L133.92885820096333,84.91885856463657L133.96600326728822,84.90614421284675L134.04841888319652,84.88291147991418L134.48951654580435,84.7623293525726L134.5928262615204,84.73534119157696L134.6195242779414,84.72785155255852L135.00142199109393,84.63155240498071L135.27304528859455,84.5622944611678L135.34849620456694,84.54032414614343L135.99389173196155,84.37331898715212L136.07514656454723,84.35211779228192L136.29569539585114,84.29328805690403L136.50463639392854,84.2392799092512L136.73679305845897,84.17823829039548L136.82965572427113,84.15568450490935L136.9573418897629,84.12290407351134L137.21967892068227,84.0552161956683L137.44254931863148,83.99628567902883L137.52380415121715,83.97490413874317L137.5806825340271,83.96147901384538L138.19821926167805,83.79711538476283L138.72173254019418,83.6660360933862L138.84477557239532,83.63957836008308L138.8470971390406,83.63905323666748L139.16050863615672,83.56311190392876L139.9521628622055,83.35968757956871L139.9788608786265,83.35258515276581L140.16690777689615,83.30586508160826L140.29111159241995,83.27391211741059L140.3595978084564,83.25892223081985L140.4524604742686,83.23715878259557L140.5395192234675,83.21569237387911L140.63586423924764,83.19099035623825L140.72756612173714,83.16731206404395L140.84480523732503,83.13865305581686L140.95624043629965,83.11013195878982L141.03517370223997,83.08915354355048L141.52734583104453,82.96874645734744L141.55056149749757,82.96301253399125L141.97308662694297,82.85813637062532L142.2075648581187,82.79573685687674L142.24470992444355,82.78730836084253L142.3073922238668,82.77058397569724L142.41186272290548,82.74263574057812L142.63821547082267,82.68821385932512L142.67419975382487,82.67776973805931L142.73804283657074,82.66146969506804L142.77867025286358,82.65144461167932L142.79027808609007,82.64802335306254L143.0166308340073,82.59820558418065L143.37763444735208,82.50718949642038L143.8767712760925,82.38828352058718L144.25866898924508,82.29655665971893L144.3259944219589,82.28146599186661L144.75548425134022,82.17843571687067L144.89245668341317,82.14426026064132L144.9621036827723,82.12670840829568L144.97835464928946,82.12289993746336L144.99576639912922,82.1183276507538L145.0108565823237,82.11444492004452L145.20702896385194,82.0694540431646L145.60285607687632,81.97590781531099L145.8071539416631,81.9219739275351L145.99752240657807,81.87776808364012L146.0137733730952,81.87226224419172L146.5036239352544,81.75921219008399L146.56978858464558,81.74556428555533L146.7125649333318,81.71282628837272L146.9168627981186,81.66237731053673L147.03294113038382,81.63525123834103L147.5402034423828,81.51633465395398L148.3074812186559,81.33912406615849L148.3922184012095,81.32051135842781L149.10261779467262,81.15511869962177L149.261645109876,81.12186618757741L150.0231189695358,80.94276727719654L150.02427975285846,80.9424649334118L150.09160518557232,80.92514116497395L150.32376185010276,80.87067684950554L150.6963732966741,80.78915011316454L150.97612207743327,80.72800771304725L151.12470234273275,80.69523258592616L151.16300819238026,80.68826807032332L151.3882001569748,80.64001506313437L151.58321175518037,80.59626538705496L151.64705483792622,80.58075568132554L151.75849003690084,80.55755477405452L152.2889680153529,80.43429929114262L152.33656013158162,80.42400899390765L152.438709063975,80.40282901614515L152.69640296160378,80.34623238135279L152.8740028099696,80.30803628321411L153.1258927909851,80.25342875226872L153.9953194996516,80.0701394631169L154.04059004923505,80.06214061351363L154.27158593044282,80.01125668496977L154.7591149259567,79.90573339981896L155.06904407310486,79.83943524253033L155.245483138148,79.80033741731435L155.52291035226187,79.73486672722606L155.88507474892936,79.65947173501064L156.07892556381228,79.62020417293306L156.81834454034168,79.45058930969452L156.87986605644227,79.43669210415038L157.29426570262908,79.34908136217612L157.3081951025009,79.34622235691342L157.594908583196,79.28746157713556L157.7260770986557,79.26023472367828L157.9129632136027,79.22033064836967L158.39352750918073,79.12186735580636L158.64889984016418,79.06964674947733L158.69300960642497,79.0608363455045L158.7765860056559,79.04435065282084L158.82185655523938,79.03692996940242L159.04704851983388,78.9937054167386L159.063299486351,78.9898810330755L159.08303280283607,78.98510187956586L159.20839740168253,78.96018238657106L159.7655733965556,78.83944643519865L159.98612222785948,78.79085395428649L160.12077309328717,78.76182364667463L160.37614542427065,78.70932721794549L160.40980814062752,78.70166253778851L160.9449292523702,78.59591116872991L161.2432505662918,78.53241897393474L161.27691328264874,78.52517863593178L161.34772106533052,78.50764269641692L161.70059919541677,78.43774293509605L161.89561079362235,78.40189132735833L162.48644950485232,78.28343621506377L163.89447967522938,77.99025822085167L163.89564045855204,77.99014152675932L164.0569893404007,77.95502190923727L164.09181284008028,77.94787704821897L164.139404956309,77.94004263120038L164.64086335169475,77.84078369709829L164.68961625124615,77.83142164832523L165.07035318107603,77.75485971518626L165.55439982662202,77.66196591339445L165.56832922649383,77.65949942462422L165.6902114753723,77.63759806519988L166.07210918852488,77.56400652713904L166.70009296607972,77.43659779539468L166.72795176582335,77.43148977671567L166.7662576154709,77.42444569695894L167.2735199274699,77.32961583408942L167.38263355979922,77.30732195817262L167.77149597288766,77.23167766494171L168.03615457045237,77.17373374381035L168.1034800031662,77.16058444131266L168.36465625076295,77.11054919707684L168.65136973145803,77.05425490606922L169.99091368579863,76.79445672654768L170.2729840332031,76.7434667124653L170.56085829722085,76.68807414853498L170.62237981332143,76.6765002162841L170.74890519549052,76.65108212125833L170.90328937740327,76.61983462589171L171.11687350877128,76.5744671453501L171.26545377407075,76.54399407441457L171.3757281897227,76.52097351255901L171.54752412147522,76.48511660054436L171.58466918780007,76.47915459328038L171.65547697048186,76.4654589502594L171.6763710702896,76.46128978859616L171.9271002679825,76.4116682779605L172.1499706659317,76.37017822385124L172.27069213148752,76.34811773611915L172.7860799267451,76.25784955140534L173.12735022360485,76.1837328899289L173.327004955101,76.14761606834492L173.4291538874944,76.12966109095296L173.44308328736625,76.12722642784428L173.45236955394745,76.12541236513584L173.540589086469,76.1103800443297L173.59050276934306,76.10120894952595L174.0316004319509,76.01651555986058L174.20107479705808,75.98656230806372L174.93468985697427,75.84858215240735L175.19354453792573,75.79893412038706L175.8493871152242,75.6753709894135L175.86215573177336,75.67354101387428L176.0687751632055,75.63895712832169L176.13145746262867,75.62795075370181L176.2962886944453,75.59699499356608L177.22491535256705,75.42927375718986L177.50350335000357,75.37919607873863L177.84013051357272,75.31958661465274L177.97013824570973,75.29614171064316L178.2139027434667,75.25120918080941L178.29747914269765,75.2357631264031L178.59928280658724,75.182624880166L178.7699179550171,75.15158425159947L179.19824700107574,75.07704324796902L179.21333718427024,75.07433806673714L179.31200376669565,75.05838810602293L179.7797994457245,74.96858139340162L179.90284247792562,74.94616551911554L180.63645753784178,74.80613791256602L180.9347788517634,74.7531428818059L181.32596283149718,74.68072358894554L181.4083784474055,74.6630868681691L181.49891954657238,74.64889792739407L181.86456629320782,74.58904446656962L181.87037020982106,74.58797300263072L181.88778195966086,74.58505034604491L182.27084045613606,74.51992973823369L182.30798552246094,74.51392529675431L182.53665983702342,74.4741485240919L182.89998501701356,74.41009407594265L182.92203990014394,74.40555361489464L183.04160058237713,74.38635743670218L183.36545912939707,74.33041322797163L183.92031355762484,74.23374808528598L183.95281549065908,74.22857641528387L184.05264285640718,74.21137994949223L184.49490130233764,74.13901900367804L184.86519118226371,74.07770686669915L185.03350476404827,74.05011932241095L185.08690079689026,74.04144682963818L185.69747282460528,73.93375409522494L185.7439041575114,73.92633871608345L185.77872765719096,73.920339578881L185.7903354904175,73.91827621515708L185.87855502293905,73.90362580228955L185.91802165590923,73.89605659911723L186.05499408798218,73.87128562587634L186.59707989966077,73.77680054100696L186.87450711377463,73.72764580674072L187.14496962795258,73.68400221619981L187.87742390454608,73.553432135408L187.9192121041616,73.54654718395904L188.03180808645885,73.52856568518246L188.2755725842158,73.48578669178036L188.27673336753844,73.4855002608264L188.62380758101145,73.4295030093266L188.91980732828776,73.37822656429026L189.0834777767817,73.34901591126294L189.42474807364147,73.29608453182593L189.60583027197518,73.26709665842947L189.77182228711445,73.24024640863388L189.87164965286254,73.22255134081126L190.09916318410237,73.18664669030429L190.12818276716868,73.1819417966716L190.27444146582286,73.16181206574029L190.35569629840853,73.148848412935L190.63196272919973,73.10288685337775L190.70044894523622,73.0909204046344L190.8385821606318,73.07101345333396L190.9825192926407,73.04791332732452L192.25357703094483,72.836930408346L192.35572596333822,72.82160635230898L192.40099651292164,72.8134377658441L192.44858862915038,72.80693472233375L193.05335674025218,72.70959063220167L193.49909753615063,72.6396696537731L194.27682236232758,72.5105529448588L194.4219202776591,72.48893801638843L195.23214703687034,72.36431933430674L195.3470645858129,72.34776999029998L195.5049311176936,72.32267545616665L195.64654668305715,72.30094913788085L195.71387211577098,72.290579276492L195.793966165034,72.27861813202557L195.7986092983246,72.27773762205598L195.91584841391247,72.25785719214016L196.01567577966054,72.24227853081072L196.68660854015351,72.14325298489334L196.8177770556132,72.12574887104003L196.96635732091266,72.10314204278464L197.20199633541105,72.06879154541676L197.26119628486634,72.06080330436734L197.34129033412933,72.0491551122395L197.95766627845762,71.9518905862613L197.97972116158803,71.94833141644446L198.0725838274002,71.93642861902421L198.21419939276376,71.9154767251695L198.33608164164224,71.89715044839278L198.54386185639697,71.86409419459466L198.56011282291414,71.86144736040896L198.6019010225296,71.85373494175965L198.64949313875834,71.8470833784954L198.75860677108764,71.82827971679541L198.8154851538976,71.82015356454593L198.92808113619486,71.80101042912273L199.02442615197498,71.78674192419382L199.12541430104574,71.7699910176639L199.14630840085348,71.76649549917016L199.3030141494115,71.74283311980665L200.26298195724488,71.59654646648534L200.54505230464935,71.55424485800651L201.46207112954457,71.41140598468661L201.5398436121623,71.39894093391229L201.61065139484407,71.38857107252343L202.58222703590394,71.24544046397264L202.7482190510432,71.21961924390055L203.3576302954356,71.12603058183154L203.44817139460244,71.11236676447211L203.81613970788322,71.05885191457332L203.9740062397639,71.0378363693955L203.99141798960366,71.03494023419432L204.65770761680602,70.93485383289189L204.75405263258617,70.92256912753302L205.05585629647572,70.87720164699141L205.2578325946172,70.8470892668868L205.3425697771708,70.8340407456507L205.51204414227803,70.80920081680978L205.53409902540844,70.8071056274243L205.61071072470347,70.79665620188158L205.79759683965048,70.77044246531702L205.9032281220118,70.75558518564941L205.95894572149913,70.7471779067229L206.182976902771,70.7153469408945L206.39888260078428,70.68540960192843L206.53585503285726,70.66441527385831L206.6147882987976,70.65299516563826L206.6681843316396,70.64496979465036L207.4308189746221,70.53007915644957L207.61190117295584,70.50471410419306L207.76280300490063,70.48122676596807L207.9473675532023,70.45549571860371L208.25497513370513,70.41167178264735L208.38730443248747,70.39172770140843L208.6856257464091,70.34619578828213L209.17663709189097,70.27812069822355L209.2346762580236,70.26957550809698L209.43433098951976,70.24147875322396L209.47727997245786,70.23498101399053L209.76399345315298,70.19481702911258L210.0495461505254,70.15426052774217L210.2875067316691,70.12000550735894L210.32000866470338,70.11514148541849L210.5254673128128,70.08709777331472L211.20568633988697,69.99955598694049L211.232384356308,69.99523830552334L211.4285567378362,69.96836153434313L211.42971752115886,69.96820240603537L211.50284687048594,69.9573233340617L211.59803110294342,69.94377621079462L211.74777215156553,69.9226121458629L211.81393680095672,69.91344105105915L211.94046218312582,69.89623928099059L212.02287779903412,69.88390153286247L212.17958354759216,69.86322546140786L212.57308909397125,69.80786472313909L212.7681006921768,69.78100916906658L213.53421768512726,69.67777202727055L213.67002933387755,69.65888880141668L214.3072993780136,69.56923060854928L214.5359736925761,69.53717686309002L214.5824050254822,69.53169224074932L214.72518137416841,69.51451168778846L215.2835181523641,69.4416097057279L215.4390631175995,69.42260978578167L215.67470213209788,69.39068864724555L215.90337644666036,69.35961088874055L216.25277222677866,69.31288551330607L216.27947024319968,69.30885956711981L216.50234064114886,69.28002551775418L216.91674028733573,69.22625606256298L217.00612060317994,69.21460787043515L217.24059883435567,69.18132883700616L217.3392654167811,69.1674051100774L217.46811236559552,69.15071785487058L217.52731231505075,69.14283569935967L217.8151865790685,69.1081722496532L218.27137442487083,69.05026015418338L218.4373664400101,69.0274464591279L218.67997015444436,68.99322856868315L218.86569548606872,68.9677096923958L219.06418943424225,68.93996832407677L219.23366379934947,68.9151602208974L219.24643241589862,68.91340450523515L219.39617346452076,68.89281860648828L219.41938913097383,68.89027785784108L219.76414177780154,68.84217337040604L220.03228272533417,68.8064225439299L220.3352471725464,68.7651340523438L220.4025726052602,68.7555757453245L220.5070431042989,68.74084046402618L220.76821935189565,68.70925349493635L221.12457983194986,68.66292063599434L221.9568614742915,68.55494677490407L222.43046106993359,68.49288143060178L222.475731619517,68.48747637241496L222.48733945274353,68.4860972604144L223.13969968007407,68.40012023573311L223.35444459476471,68.37083532282884L223.9998401221593,68.2870330516869L224.14029490420026,68.26857947226398L224.23431835333508,68.25623641985894L224.25173010317485,68.25416244758117L224.374773135376,68.23618094880459L224.6777375825882,68.19497732564929L224.89712563056946,68.1643239092983L225.67368967342378,68.06099659479455L225.94415218760173,68.02709696096531L226.26336760133108,67.98430735900936L226.4815948659897,67.95626895118252L226.55124186534883,67.94709255210185L226.670802547582,67.92796532950942L226.79268479646046,67.91012704620982L226.9935003112793,67.88448617155319L227.60871547228496,67.81395520127822L227.84319370346068,67.78298883258864L227.86060545330048,67.78044808394145L227.94186028588612,67.77021082947573L228.19142870025635,67.73571181235394L228.77414192822775,67.66184445189299L229.47061192181906,67.57616446671952L229.57740398750306,67.56432532062237L229.72366268615724,67.5449381884606L230.0591290664037,67.49716256619493L230.60353644472758,67.43298081539947L230.6105011446635,67.431808570199L230.64996777763366,67.42626029653519L230.80086960957846,67.40711185683506L231.19089280598956,67.35929380035398L231.2245555223465,67.35538454826008L231.52868075288137,67.31936850793767L231.58555913569134,67.31178339193457L231.78637465051014,67.28461488552347L232.11835868078867,67.24624374624625L232.52347206039428,67.19855299241138L232.55829556007387,67.19456948044052L232.85893844064077,67.1610941887653L233.375487019221,67.09688591658522L233.3801301525116,67.09629714184652L233.44397323525746,67.08968801279767L233.62853778355915,67.06740474543471L233.66336128323874,67.06283245872515L233.78408274879456,67.04876021204248L233.856051314799,67.03826835228435L234.0568668296178,67.01357163892041L234.58038010813394,66.95049848200233L235.0621051870346,66.89045406720857L235.44864603347776,66.84464633168216L235.511328332901,66.8368172189405L235.57517141564688,66.82878123939875L235.58097533226012,66.82805455345999L235.90019074598948,66.78602876738128L235.95474756215413,66.77995006602495L235.95706912879945,66.77963711368636L236.20431597652436,66.74969977472028L236.3343237086614,66.73320347348277L236.58040977306368,66.70590766442547L236.70925672187803,66.69097082060398L236.72086455510458,66.68880667561848L236.97391531944274,66.65797821812896L237.66574217974346,66.58080098886666L237.67735001296995,66.5794855281892L237.75860484555562,66.5696726158775L238.02906735973357,66.53567220078668L238.67562367045085,66.46317334377244L239.1283291662852,66.40968501525828L239.39182698052724,66.37847464983014L239.40691716372172,66.37702127795262L239.65068166147867,66.35151831449605L239.74586589393616,66.34149323110734L239.92114417565662,66.32308739017674L239.9536461086909,66.31962900162148L240.1962498231252,66.29400934407255L240.32277520529428,66.27864815809704L240.38777907136281,66.2711797361863L240.44581823749542,66.26558902830709L240.4585868540446,66.26448573870664L240.97977856591544,66.20607504120585L241.0656765317917,66.19614543480179L241.37792724558514,66.15983235497157L241.43132327842713,66.15357330819978L241.52534672756195,66.14344213927257L241.88054642429353,66.10025471654723L242.87301616516115,65.9952936847505L242.89739261493685,65.99245059231856L242.9055180981954,65.99128365139501L242.93221611461638,65.98852542739388L242.97864744752246,65.98317871625324L243.27580797812146,65.94937986368558L243.44528234322868,65.92840675272316L243.68788605766295,65.90258553265107L244.02335243790944,65.8674181766367L244.1580033033371,65.85253437558447L244.2787247688929,65.83957072277917L246.33679359995523,65.6166637892727L247.63454935468036,65.47478499007627L247.83536486949922,65.4537800534523L248.0977019004186,65.42267577356267L248.13949010003407,65.41878243429954L248.84292479356128,65.34814007420914L248.9497168592453,65.33858176718985L249.1296382742564,65.32002740650535L249.51966147066753,65.27901473731936L249.89691605052948,65.23598644290178L249.91432780036925,65.23372682093162L250.03388848260244,65.21988265815673L250.1650569980621,65.20631431778196L250.28810003026325,65.19261867476098L250.6247271938324,65.1573876674235L251.30610700422923,65.088739715457L251.57308716843923,65.05821890602914L251.63112633457183,65.05048527027213L251.89694571545917,65.02334858952258L252.0397220641454,65.00800862065478L252.15115726312004,64.99598912914217L252.7338704910914,64.93508542148652L252.9532585390727,64.91422900461646L253.2852425693512,64.87771436226308L253.5278462837855,64.84999421105175L254.03975172907514,64.79914741244636L254.04439486236575,64.79874428740004L254.5133513247172,64.74558482405524L254.54585325775145,64.74211582694613L254.98114700374603,64.69775085474339L254.98462935371398,64.69739016391247L255.1274057024002,64.68219871479857L255.26669970111848,64.66798325263892L255.42920936628977,64.65329040555599L255.61841704788208,64.6338767520096L255.68226013062795,64.62714032031454L256.42748302377066,64.55052534440631L256.9997492018382,64.49428940044487L257.2400313496272,64.46975181538869L257.4454899977366,64.44687977328704L257.6021957462947,64.43107302804981L258.09320709177655,64.38105369664476L258.23134030717216,64.36819612937796L258.52269692115783,64.33935147145849L258.8198574517568,64.30952021803091L259.1239826822917,64.28097259961925L259.42926869614917,64.2507276125915L260.167526889356,64.18007464394725L260.27315817171734,64.16959339274297L260.89069489936827,64.11220111641182L261.07525944766996,64.0953865585588L261.5175178936005,64.05018351060187L261.67886677544914,64.03196862364058L261.83789409065247,64.01564205926468L262.4658778682073,63.95568251290172L262.96269313030245,63.9063845631585L263.55701419150034,63.85237641550566L264.2058920688629,63.79379598114326L264.4403703000387,63.77478545264319L264.5262682659149,63.7685264058714L264.89423657919565,63.7349078987192" fill="none"></path></g></g></g></g></g></g><g transform="translate(51, 177)" clip-path="url(#clip_1)"><clipPath id="clip_1"><rect width="278" height="22"></rect></clipPath><g><g><line x1="0" y1="0" x2="0" y2="5" style="visibility: inherit;" fill="rgb(0, 0, 0)" stroke="rgb(204, 204, 204)" stroke-width="1px"></line><line x1="23.215666453043617" y1="0" x2="23.215666453043617" y2="5" style="visibility: inherit;" fill="rgb(0, 0, 0)" stroke="rgb(204, 204, 204)" stroke-width="1px"></line><line x1="46.431332906087235" y1="0" x2="46.431332906087235" y2="5" style="visibility: inherit;" fill="rgb(0, 0, 0)" stroke="rgb(204, 204, 204)" stroke-width="1px"></line><line x1="69.64699935913086" y1="0" x2="69.64699935913086" y2="5" style="visibility: inherit;" fill="rgb(0, 0, 0)" stroke="rgb(204, 204, 204)" stroke-width="1px"></line><line x1="92.86266581217447" y1="0" x2="92.86266581217447" y2="5" style="visibility: inherit;" fill="rgb(0, 0, 0)" stroke="rgb(204, 204, 204)" stroke-width="1px"></line><line x1="116.07833226521811" y1="0" x2="116.07833226521811" y2="5" style="visibility: inherit;" fill="rgb(0, 0, 0)" stroke="rgb(204, 204, 204)" stroke-width="1px"></line><line x1="139.29399871826172" y1="0" x2="139.29399871826172" y2="5" style="visibility: inherit;" fill="rgb(0, 0, 0)" stroke="rgb(204, 204, 204)" stroke-width="1px"></line><line x1="162.50966517130536" y1="0" x2="162.50966517130536" y2="5" style="visibility: inherit;" fill="rgb(0, 0, 0)" stroke="rgb(204, 204, 204)" stroke-width="1px"></line><line x1="185.72533162434894" y1="0" x2="185.72533162434894" y2="5" style="visibility: inherit;" fill="rgb(0, 0, 0)" stroke="rgb(204, 204, 204)" stroke-width="1px"></line><line x1="208.94099807739258" y1="0" x2="208.94099807739258" y2="5" style="visibility: inherit;" fill="rgb(0, 0, 0)" stroke="rgb(204, 204, 204)" stroke-width="1px"></line><line x1="232.15666453043622" y1="0" x2="232.15666453043622" y2="5" style="visibility: inherit;" fill="rgb(0, 0, 0)" stroke="rgb(204, 204, 204)" stroke-width="1px"></line><line x1="255.3723309834798" y1="0" x2="255.3723309834798" y2="5" style="visibility: inherit;" fill="rgb(0, 0, 0)" stroke="rgb(204, 204, 204)" stroke-width="1px"></line><line x1="278.58799743652344" y1="0" x2="278.58799743652344" y2="5" style="visibility: inherit;" fill="rgb(0, 0, 0)" stroke="rgb(204, 204, 204)" stroke-width="1px"></line></g><g transform="translate(0, 8)"><text style="text-anchor: middle; visibility: hidden; font-family: &quot;Helvetica Neue&quot;, sans-serif; font-size: 12px; font-weight: 200;" x="0" y="0" dx="0em" dy="0.95em" fill="rgb(50, 49, 63)" stroke="none" stroke-width="1px">-20k</text><text style="text-anchor: middle; visibility: inherit; font-family: &quot;Helvetica Neue&quot;, sans-serif; font-size: 12px; font-weight: 200;" x="23.215666453043617" y="0" dx="0em" dy="0.95em" fill="rgb(50, 49, 63)" stroke="none" stroke-width="1px">0</text><text style="text-anchor: middle; visibility: hidden; font-family: &quot;Helvetica Neue&quot;, sans-serif; font-size: 12px; font-weight: 200;" x="46.431332906087235" y="0" dx="0em" dy="0.95em" fill="rgb(50, 49, 63)" stroke="none" stroke-width="1px">20k</text><text style="text-anchor: middle; visibility: inherit; font-family: &quot;Helvetica Neue&quot;, sans-serif; font-size: 12px; font-weight: 200;" x="69.64699935913086" y="0" dx="0em" dy="0.95em" fill="rgb(50, 49, 63)" stroke="none" stroke-width="1px">40k</text><text style="text-anchor: middle; visibility: hidden; font-family: &quot;Helvetica Neue&quot;, sans-serif; font-size: 12px; font-weight: 200;" x="92.86266581217447" y="0" dx="0em" dy="0.95em" fill="rgb(50, 49, 63)" stroke="none" stroke-width="1px">60k</text><text style="text-anchor: middle; visibility: inherit; font-family: &quot;Helvetica Neue&quot;, sans-serif; font-size: 12px; font-weight: 200;" x="116.07833226521811" y="0" dx="0em" dy="0.95em" fill="rgb(50, 49, 63)" stroke="none" stroke-width="1px">80k</text><text style="text-anchor: middle; visibility: hidden; font-family: &quot;Helvetica Neue&quot;, sans-serif; font-size: 12px; font-weight: 200;" x="139.29399871826172" y="0" dx="0em" dy="0.95em" fill="rgb(50, 49, 63)" stroke="none" stroke-width="1px">100k</text><text style="text-anchor: middle; visibility: inherit; font-family: &quot;Helvetica Neue&quot;, sans-serif; font-size: 12px; font-weight: 200;" x="162.50966517130536" y="0" dx="0em" dy="0.95em" fill="rgb(50, 49, 63)" stroke="none" stroke-width="1px">120k</text><text style="text-anchor: middle; visibility: hidden; font-family: &quot;Helvetica Neue&quot;, sans-serif; font-size: 12px; font-weight: 200;" x="185.72533162434894" y="0" dx="0em" dy="0.95em" fill="rgb(50, 49, 63)" stroke="none" stroke-width="1px">140k</text><text style="text-anchor: middle; visibility: inherit; font-family: &quot;Helvetica Neue&quot;, sans-serif; font-size: 12px; font-weight: 200;" x="208.94099807739258" y="0" dx="0em" dy="0.95em" fill="rgb(50, 49, 63)" stroke="none" stroke-width="1px">160k</text><text style="text-anchor: middle; visibility: hidden; font-family: &quot;Helvetica Neue&quot;, sans-serif; font-size: 12px; font-weight: 200;" x="232.15666453043622" y="0" dx="0em" dy="0.95em" fill="rgb(50, 49, 63)" stroke="none" stroke-width="1px">180k</text><text style="text-anchor: middle; visibility: inherit; font-family: &quot;Helvetica Neue&quot;, sans-serif; font-size: 12px; font-weight: 200;" x="255.3723309834798" y="0" dx="0em" dy="0.95em" fill="rgb(50, 49, 63)" stroke="none" stroke-width="1px">200k</text><text style="text-anchor: middle; visibility: hidden; font-family: &quot;Helvetica Neue&quot;, sans-serif; font-size: 12px; font-weight: 200;" x="278.58799743652344" y="0" dx="0em" dy="0.95em" fill="rgb(50, 49, 63)" stroke="none" stroke-width="1px">220k</text></g><line x1="0" y1="0" x2="278.58799743652344" y2="0" fill="rgb(0, 0, 0)" stroke="rgb(204, 204, 204)" stroke-width="1px"></line></g></g></g></g></svg>